<mxfile host="app.diagrams.net" modified="2022-10-26T19:42:47.458Z" agent="5.0 (X11)" etag="RAMSn-7XJvofjUXnqfTA" version="20.5.1" type="github">
  <diagram name="Page-1" id="c9db0220-8083-56f3-ca83-edcdcd058819">
    <mxGraphModel dx="1088" dy="629" grid="1" gridSize="10" guides="1" tooltips="1" connect="1" arrows="1" fold="1" page="1" pageScale="1.5" pageWidth="826" pageHeight="1169" math="0" shadow="0">
      <root>
        <mxCell id="0" style=";html=1;" />
        <mxCell id="1" style=";html=1;" parent="0" />
        <mxCell id="5SMbFwftjrHj00-97PuI-2" value="Vertical Container" style="swimlane;fontColor=#1A1A1A;fillColor=#5D7F99;strokeColor=#D0CEE2;fillStyle=auto;gradientColor=none;swimlaneFillColor=#919A9E;" vertex="1" parent="1">
          <mxGeometry x="300" y="100" width="430" height="620" as="geometry" />
        </mxCell>
        <mxCell id="5SMbFwftjrHj00-97PuI-3" value="" style="shape=actor;whiteSpace=wrap;html=1;fontColor=#1A1A1A;strokeColor=#D0CEE2;fillColor=#5D7F99;" vertex="1" parent="5SMbFwftjrHj00-97PuI-2">
          <mxGeometry x="355" y="50" width="30" height="40" as="geometry" />
        </mxCell>
        <mxCell id="5SMbFwftjrHj00-97PuI-8" value="" style="ellipse;whiteSpace=wrap;html=1;aspect=fixed;strokeColor=#09090A;fontColor=#1A1A1A;fillColor=none;strokeWidth=3;" vertex="1" parent="5SMbFwftjrHj00-97PuI-2">
          <mxGeometry x="340" y="40" width="60" height="60" as="geometry" />
        </mxCell>
        <mxCell id="5SMbFwftjrHj00-97PuI-28" value="" style="text;html=1;strokeColor=none;fillColor=none;align=center;verticalAlign=middle;whiteSpace=wrap;rounded=0;fillStyle=auto;strokeWidth=3;fontColor=#1A1A1A;image=data:image/svg+xml,PHN2ZyB2aWV3Qm94PSIwIDAgMTAyMyAxMDIzIiBoZWlnaHQ9IjEwMjMiIHdpZHRoPSIxMDIzIiBzdHlsZT0ibWF4LXdpZHRoOiAxMDAlO2hlaWdodDogYXV0bzsiIHhtbG5zOnhsaW5rPSJodHRwOi8vd3d3LnczLm9yZy8xOTk5L3hsaW5rIiB4bWw6c3BhY2U9InByZXNlcnZlIiB4bWxucz0iaHR0cDovL3d3dy53My5vcmcvMjAwMC9zdmciPiYjeGE7PGRlZnM+PG1hc2sgaWQ9InFybWFzayI+PGcgZmlsbD0iI2ZmZmZmZiI+PGc+JiN4YTs8ZyB0cmFuc2Zvcm09InRyYW5zbGF0ZSgzMTAsNjIpIHNjYWxlKDUuMzIxNjY2NjY2NjY2NykiPjxyZWN0IGhlaWdodD0iNiIgd2lkdGg9IjYiLz48L2c+JiN4YTs8ZyB0cmFuc2Zvcm09InRyYW5zbGF0ZSgzNDEsNjIpIHNjYWxlKDUuMzIxNjY2NjY2NjY2NykiPjxyZWN0IGhlaWdodD0iNiIgd2lkdGg9IjYiLz48L2c+JiN4YTs8ZyB0cmFuc2Zvcm09InRyYW5zbGF0ZSgzNzIsNjIpIHNjYWxlKDUuMzIxNjY2NjY2NjY2NykiPjxyZWN0IGhlaWdodD0iNiIgd2lkdGg9IjYiLz48L2c+JiN4YTs8ZyB0cmFuc2Zvcm09InRyYW5zbGF0ZSg1NTgsNjIpIHNjYWxlKDUuMzIxNjY2NjY2NjY2NykiPjxyZWN0IGhlaWdodD0iNiIgd2lkdGg9IjYiLz48L2c+JiN4YTs8ZyB0cmFuc2Zvcm09InRyYW5zbGF0ZSg1ODksNjIpIHNjYWxlKDUuMzIxNjY2NjY2NjY2NykiPjxyZWN0IGhlaWdodD0iNiIgd2lkdGg9IjYiLz48L2c+JiN4YTs8ZyB0cmFuc2Zvcm09InRyYW5zbGF0ZSg2MjAsNjIpIHNjYWxlKDUuMzIxNjY2NjY2NjY2NykiPjxyZWN0IGhlaWdodD0iNiIgd2lkdGg9IjYiLz48L2c+JiN4YTs8ZyB0cmFuc2Zvcm09InRyYW5zbGF0ZSgzMTAsOTMpIHNjYWxlKDUuMzIxNjY2NjY2NjY2NykiPjxyZWN0IGhlaWdodD0iNiIgd2lkdGg9IjYiLz48L2c+JiN4YTs8ZyB0cmFuc2Zvcm09InRyYW5zbGF0ZSgzNDEsOTMpIHNjYWxlKDUuMzIxNjY2NjY2NjY2NykiPjxyZWN0IGhlaWdodD0iNiIgd2lkdGg9IjYiLz48L2c+JiN4YTs8ZyB0cmFuc2Zvcm09InRyYW5zbGF0ZSgzNzIsOTMpIHNjYWxlKDUuMzIxNjY2NjY2NjY2NykiPjxyZWN0IGhlaWdodD0iNiIgd2lkdGg9IjYiLz48L2c+JiN4YTs8ZyB0cmFuc2Zvcm09InRyYW5zbGF0ZSg0MzQsOTMpIHNjYWxlKDUuMzIxNjY2NjY2NjY2NykiPjxyZWN0IGhlaWdodD0iNiIgd2lkdGg9IjYiLz48L2c+JiN4YTs8ZyB0cmFuc2Zvcm09InRyYW5zbGF0ZSg0OTYsOTMpIHNjYWxlKDUuMzIxNjY2NjY2NjY2NykiPjxyZWN0IGhlaWdodD0iNiIgd2lkdGg9IjYiLz48L2c+JiN4YTs8ZyB0cmFuc2Zvcm09InRyYW5zbGF0ZSg1MjcsOTMpIHNjYWxlKDUuMzIxNjY2NjY2NjY2NykiPjxyZWN0IGhlaWdodD0iNiIgd2lkdGg9IjYiLz48L2c+JiN4YTs8ZyB0cmFuc2Zvcm09InRyYW5zbGF0ZSg1NTgsOTMpIHNjYWxlKDUuMzIxNjY2NjY2NjY2NykiPjxyZWN0IGhlaWdodD0iNiIgd2lkdGg9IjYiLz48L2c+JiN4YTs8ZyB0cmFuc2Zvcm09InRyYW5zbGF0ZSg1ODksOTMpIHNjYWxlKDUuMzIxNjY2NjY2NjY2NykiPjxyZWN0IGhlaWdodD0iNiIgd2lkdGg9IjYiLz48L2c+JiN4YTs8ZyB0cmFuc2Zvcm09InRyYW5zbGF0ZSg2ODIsOTMpIHNjYWxlKDUuMzIxNjY2NjY2NjY2NykiPjxyZWN0IGhlaWdodD0iNiIgd2lkdGg9IjYiLz48L2c+JiN4YTs8ZyB0cmFuc2Zvcm09InRyYW5zbGF0ZSgzMTAsMTI0KSBzY2FsZSg1LjMyMTY2NjY2NjY2NjcpIj48cmVjdCBoZWlnaHQ9IjYiIHdpZHRoPSI2Ii8+PC9nPiYjeGE7PGcgdHJhbnNmb3JtPSJ0cmFuc2xhdGUoNDAzLDEyNCkgc2NhbGUoNS4zMjE2NjY2NjY2NjY3KSI+PHJlY3QgaGVpZ2h0PSI2IiB3aWR0aD0iNiIvPjwvZz4mI3hhOzxnIHRyYW5zZm9ybT0idHJhbnNsYXRlKDQzNCwxMjQpIHNjYWxlKDUuMzIxNjY2NjY2NjY2NykiPjxyZWN0IGhlaWdodD0iNiIgd2lkdGg9IjYiLz48L2c+JiN4YTs8ZyB0cmFuc2Zvcm09InRyYW5zbGF0ZSg0NjUsMTI0KSBzY2FsZSg1LjMyMTY2NjY2NjY2NjcpIj48cmVjdCBoZWlnaHQ9IjYiIHdpZHRoPSI2Ii8+PC9nPiYjeGE7PGcgdHJhbnNmb3JtPSJ0cmFuc2xhdGUoNDk2LDEyNCkgc2NhbGUoNS4zMjE2NjY2NjY2NjY3KSI+PHJlY3QgaGVpZ2h0PSI2IiB3aWR0aD0iNiIvPjwvZz4mI3hhOzxnIHRyYW5zZm9ybT0idHJhbnNsYXRlKDYyMCwxMjQpIHNjYWxlKDUuMzIxNjY2NjY2NjY2NykiPjxyZWN0IGhlaWdodD0iNiIgd2lkdGg9IjYiLz48L2c+JiN4YTs8ZyB0cmFuc2Zvcm09InRyYW5zbGF0ZSg2NTEsMTI0KSBzY2FsZSg1LjMyMTY2NjY2NjY2NjcpIj48cmVjdCBoZWlnaHQ9IjYiIHdpZHRoPSI2Ii8+PC9nPiYjeGE7PGcgdHJhbnNmb3JtPSJ0cmFuc2xhdGUoNjgyLDEyNCkgc2NhbGUoNS4zMjE2NjY2NjY2NjY3KSI+PHJlY3QgaGVpZ2h0PSI2IiB3aWR0aD0iNiIvPjwvZz4mI3hhOzxnIHRyYW5zZm9ybT0idHJhbnNsYXRlKDM3MiwxNTUpIHNjYWxlKDUuMzIxNjY2NjY2NjY2NykiPjxyZWN0IGhlaWdodD0iNiIgd2lkdGg9IjYiLz48L2c+JiN4YTs8ZyB0cmFuc2Zvcm09InRyYW5zbGF0ZSg0MDMsMTU1KSBzY2FsZSg1LjMyMTY2NjY2NjY2NjcpIj48cmVjdCBoZWlnaHQ9IjYiIHdpZHRoPSI2Ii8+PC9nPiYjeGE7PGcgdHJhbnNmb3JtPSJ0cmFuc2xhdGUoNDY1LDE1NSkgc2NhbGUoNS4zMjE2NjY2NjY2NjY3KSI+PHJlY3QgaGVpZ2h0PSI2IiB3aWR0aD0iNiIvPjwvZz4mI3hhOzxnIHRyYW5zZm9ybT0idHJhbnNsYXRlKDUyNywxNTUpIHNjYWxlKDUuMzIxNjY2NjY2NjY2NykiPjxyZWN0IGhlaWdodD0iNiIgd2lkdGg9IjYiLz48L2c+JiN4YTs8ZyB0cmFuc2Zvcm09InRyYW5zbGF0ZSg1NTgsMTU1KSBzY2FsZSg1LjMyMTY2NjY2NjY2NjcpIj48cmVjdCBoZWlnaHQ9IjYiIHdpZHRoPSI2Ii8+PC9nPiYjeGE7PGcgdHJhbnNmb3JtPSJ0cmFuc2xhdGUoNTg5LDE1NSkgc2NhbGUoNS4zMjE2NjY2NjY2NjY3KSI+PHJlY3QgaGVpZ2h0PSI2IiB3aWR0aD0iNiIvPjwvZz4mI3hhOzxnIHRyYW5zZm9ybT0idHJhbnNsYXRlKDM3MiwxODYpIHNjYWxlKDUuMzIxNjY2NjY2NjY2NykiPjxyZWN0IGhlaWdodD0iNiIgd2lkdGg9IjYiLz48L2c+JiN4YTs8ZyB0cmFuc2Zvcm09InRyYW5zbGF0ZSg0MDMsMTg2KSBzY2FsZSg1LjMyMTY2NjY2NjY2NjcpIj48cmVjdCBoZWlnaHQ9IjYiIHdpZHRoPSI2Ii8+PC9nPiYjeGE7PGcgdHJhbnNmb3JtPSJ0cmFuc2xhdGUoNDY1LDE4Nikgc2NhbGUoNS4zMjE2NjY2NjY2NjY3KSI+PHJlY3QgaGVpZ2h0PSI2IiB3aWR0aD0iNiIvPjwvZz4mI3hhOzxnIHRyYW5zZm9ybT0idHJhbnNsYXRlKDQ5NiwxODYpIHNjYWxlKDUuMzIxNjY2NjY2NjY2NykiPjxyZWN0IGhlaWdodD0iNiIgd2lkdGg9IjYiLz48L2c+JiN4YTs8ZyB0cmFuc2Zvcm09InRyYW5zbGF0ZSg1ODksMTg2KSBzY2FsZSg1LjMyMTY2NjY2NjY2NjcpIj48cmVjdCBoZWlnaHQ9IjYiIHdpZHRoPSI2Ii8+PC9nPiYjeGE7PGcgdHJhbnNmb3JtPSJ0cmFuc2xhdGUoNjIwLDE4Nikgc2NhbGUoNS4zMjE2NjY2NjY2NjY3KSI+PHJlY3QgaGVpZ2h0PSI2IiB3aWR0aD0iNiIvPjwvZz4mI3hhOzxnIHRyYW5zZm9ybT0idHJhbnNsYXRlKDY1MSwxODYpIHNjYWxlKDUuMzIxNjY2NjY2NjY2NykiPjxyZWN0IGhlaWdodD0iNiIgd2lkdGg9IjYiLz48L2c+JiN4YTs8ZyB0cmFuc2Zvcm09InRyYW5zbGF0ZSgzMTAsMjE3KSBzY2FsZSg1LjMyMTY2NjY2NjY2NjcpIj48cmVjdCBoZWlnaHQ9IjYiIHdpZHRoPSI2Ii8+PC9nPiYjeGE7PGcgdHJhbnNmb3JtPSJ0cmFuc2xhdGUoMzQxLDIxNykgc2NhbGUoNS4zMjE2NjY2NjY2NjY3KSI+PHJlY3QgaGVpZ2h0PSI2IiB3aWR0aD0iNiIvPjwvZz4mI3hhOzxnIHRyYW5zZm9ybT0idHJhbnNsYXRlKDQ2NSwyMTcpIHNjYWxlKDUuMzIxNjY2NjY2NjY2NykiPjxyZWN0IGhlaWdodD0iNiIgd2lkdGg9IjYiLz48L2c+JiN4YTs8ZyB0cmFuc2Zvcm09InRyYW5zbGF0ZSg1NTgsMjE3KSBzY2FsZSg1LjMyMTY2NjY2NjY2NjcpIj48cmVjdCBoZWlnaHQ9IjYiIHdpZHRoPSI2Ii8+PC9nPiYjeGE7PGcgdHJhbnNmb3JtPSJ0cmFuc2xhdGUoNTg5LDIxNykgc2NhbGUoNS4zMjE2NjY2NjY2NjY3KSI+PHJlY3QgaGVpZ2h0PSI2IiB3aWR0aD0iNiIvPjwvZz4mI3hhOzxnIHRyYW5zZm9ybT0idHJhbnNsYXRlKDMxMCwyNDgpIHNjYWxlKDUuMzIxNjY2NjY2NjY2NykiPjxyZWN0IGhlaWdodD0iNiIgd2lkdGg9IjYiLz48L2c+JiN4YTs8ZyB0cmFuc2Zvcm09InRyYW5zbGF0ZSgzNzIsMjQ4KSBzY2FsZSg1LjMyMTY2NjY2NjY2NjcpIj48cmVjdCBoZWlnaHQ9IjYiIHdpZHRoPSI2Ii8+PC9nPiYjeGE7PGcgdHJhbnNmb3JtPSJ0cmFuc2xhdGUoNDM0LDI0OCkgc2NhbGUoNS4zMjE2NjY2NjY2NjY3KSI+PHJlY3QgaGVpZ2h0PSI2IiB3aWR0aD0iNiIvPjwvZz4mI3hhOzxnIHRyYW5zZm9ybT0idHJhbnNsYXRlKDQ5NiwyNDgpIHNjYWxlKDUuMzIxNjY2NjY2NjY2NykiPjxyZWN0IGhlaWdodD0iNiIgd2lkdGg9IjYiLz48L2c+JiN4YTs8ZyB0cmFuc2Zvcm09InRyYW5zbGF0ZSg1NTgsMjQ4KSBzY2FsZSg1LjMyMTY2NjY2NjY2NjcpIj48cmVjdCBoZWlnaHQ9IjYiIHdpZHRoPSI2Ii8+PC9nPiYjeGE7PGcgdHJhbnNmb3JtPSJ0cmFuc2xhdGUoNjIwLDI0OCkgc2NhbGUoNS4zMjE2NjY2NjY2NjY3KSI+PHJlY3QgaGVpZ2h0PSI2IiB3aWR0aD0iNiIvPjwvZz4mI3hhOzxnIHRyYW5zZm9ybT0idHJhbnNsYXRlKDY4MiwyNDgpIHNjYWxlKDUuMzIxNjY2NjY2NjY2NykiPjxyZWN0IGhlaWdodD0iNiIgd2lkdGg9IjYiLz48L2c+JiN4YTs8ZyB0cmFuc2Zvcm09InRyYW5zbGF0ZSgzMTAsMjc5KSBzY2FsZSg1LjMyMTY2NjY2NjY2NjcpIj48cmVjdCBoZWlnaHQ9IjYiIHdpZHRoPSI2Ii8+PC9nPiYjeGE7PGcgdHJhbnNmb3JtPSJ0cmFuc2xhdGUoMzQxLDI3OSkgc2NhbGUoNS4zMjE2NjY2NjY2NjY3KSI+PHJlY3QgaGVpZ2h0PSI2IiB3aWR0aD0iNiIvPjwvZz4mI3hhOzxnIHRyYW5zZm9ybT0idHJhbnNsYXRlKDQ2NSwyNzkpIHNjYWxlKDUuMzIxNjY2NjY2NjY2NykiPjxyZWN0IGhlaWdodD0iNiIgd2lkdGg9IjYiLz48L2c+JiN4YTs8ZyB0cmFuc2Zvcm09InRyYW5zbGF0ZSg1NTgsMjc5KSBzY2FsZSg1LjMyMTY2NjY2NjY2NjcpIj48cmVjdCBoZWlnaHQ9IjYiIHdpZHRoPSI2Ii8+PC9nPiYjeGE7PGcgdHJhbnNmb3JtPSJ0cmFuc2xhdGUoNTg5LDI3OSkgc2NhbGUoNS4zMjE2NjY2NjY2NjY3KSI+PHJlY3QgaGVpZ2h0PSI2IiB3aWR0aD0iNiIvPjwvZz4mI3hhOzxnIHRyYW5zZm9ybT0idHJhbnNsYXRlKDYyMCwyNzkpIHNjYWxlKDUuMzIxNjY2NjY2NjY2NykiPjxyZWN0IGhlaWdodD0iNiIgd2lkdGg9IjYiLz48L2c+JiN4YTs8ZyB0cmFuc2Zvcm09InRyYW5zbGF0ZSg2NTEsMjc5KSBzY2FsZSg1LjMyMTY2NjY2NjY2NjcpIj48cmVjdCBoZWlnaHQ9IjYiIHdpZHRoPSI2Ii8+PC9nPiYjeGE7PGcgdHJhbnNmb3JtPSJ0cmFuc2xhdGUoMTI0LDMxMCkgc2NhbGUoNS4zMjE2NjY2NjY2NjY3KSI+PHJlY3QgaGVpZ2h0PSI2IiB3aWR0aD0iNiIvPjwvZz4mI3hhOzxnIHRyYW5zZm9ybT0idHJhbnNsYXRlKDE1NSwzMTApIHNjYWxlKDUuMzIxNjY2NjY2NjY2NykiPjxyZWN0IGhlaWdodD0iNiIgd2lkdGg9IjYiLz48L2c+JiN4YTs8ZyB0cmFuc2Zvcm09InRyYW5zbGF0ZSgxODYsMzEwKSBzY2FsZSg1LjMyMTY2NjY2NjY2NjcpIj48cmVjdCBoZWlnaHQ9IjYiIHdpZHRoPSI2Ii8+PC9nPiYjeGE7PGcgdHJhbnNmb3JtPSJ0cmFuc2xhdGUoMjQ4LDMxMCkgc2NhbGUoNS4zMjE2NjY2NjY2NjY3KSI+PHJlY3QgaGVpZ2h0PSI2IiB3aWR0aD0iNiIvPjwvZz4mI3hhOzxnIHRyYW5zZm9ybT0idHJhbnNsYXRlKDMxMCwzMTApIHNjYWxlKDUuMzIxNjY2NjY2NjY2NykiPjxyZWN0IGhlaWdodD0iNiIgd2lkdGg9IjYiLz48L2c+JiN4YTs8ZyB0cmFuc2Zvcm09InRyYW5zbGF0ZSgzNzIsMzEwKSBzY2FsZSg1LjMyMTY2NjY2NjY2NjcpIj48cmVjdCBoZWlnaHQ9IjYiIHdpZHRoPSI2Ii8+PC9nPiYjeGE7PGcgdHJhbnNmb3JtPSJ0cmFuc2xhdGUoNDAzLDMxMCkgc2NhbGUoNS4zMjE2NjY2NjY2NjY3KSI+PHJlY3QgaGVpZ2h0PSI2IiB3aWR0aD0iNiIvPjwvZz4mI3hhOzxnIHRyYW5zZm9ybT0idHJhbnNsYXRlKDQzNCwzMTApIHNjYWxlKDUuMzIxNjY2NjY2NjY2NykiPjxyZWN0IGhlaWdodD0iNiIgd2lkdGg9IjYiLz48L2c+JiN4YTs8ZyB0cmFuc2Zvcm09InRyYW5zbGF0ZSg0NjUsMzEwKSBzY2FsZSg1LjMyMTY2NjY2NjY2NjcpIj48cmVjdCBoZWlnaHQ9IjYiIHdpZHRoPSI2Ii8+PC9nPiYjeGE7PGcgdHJhbnNmb3JtPSJ0cmFuc2xhdGUoNDk2LDMxMCkgc2NhbGUoNS4zMjE2NjY2NjY2NjY3KSI+PHJlY3QgaGVpZ2h0PSI2IiB3aWR0aD0iNiIvPjwvZz4mI3hhOzxnIHRyYW5zZm9ybT0idHJhbnNsYXRlKDY4MiwzMTApIHNjYWxlKDUuMzIxNjY2NjY2NjY2NykiPjxyZWN0IGhlaWdodD0iNiIgd2lkdGg9IjYiLz48L2c+JiN4YTs8ZyB0cmFuc2Zvcm09InRyYW5zbGF0ZSg3MTMsMzEwKSBzY2FsZSg1LjMyMTY2NjY2NjY2NjcpIj48cmVjdCBoZWlnaHQ9IjYiIHdpZHRoPSI2Ii8+PC9nPiYjeGE7PGcgdHJhbnNmb3JtPSJ0cmFuc2xhdGUoNzQ0LDMxMCkgc2NhbGUoNS4zMjE2NjY2NjY2NjY3KSI+PHJlY3QgaGVpZ2h0PSI2IiB3aWR0aD0iNiIvPjwvZz4mI3hhOzxnIHRyYW5zZm9ybT0idHJhbnNsYXRlKDc3NSwzMTApIHNjYWxlKDUuMzIxNjY2NjY2NjY2NykiPjxyZWN0IGhlaWdodD0iNiIgd2lkdGg9IjYiLz48L2c+JiN4YTs8ZyB0cmFuc2Zvcm09InRyYW5zbGF0ZSg4NjgsMzEwKSBzY2FsZSg1LjMyMTY2NjY2NjY2NjcpIj48cmVjdCBoZWlnaHQ9IjYiIHdpZHRoPSI2Ii8+PC9nPiYjeGE7PGcgdHJhbnNmb3JtPSJ0cmFuc2xhdGUoODk5LDMxMCkgc2NhbGUoNS4zMjE2NjY2NjY2NjY3KSI+PHJlY3QgaGVpZ2h0PSI2IiB3aWR0aD0iNiIvPjwvZz4mI3hhOzxnIHRyYW5zZm9ybT0idHJhbnNsYXRlKDkzMCwzMTApIHNjYWxlKDUuMzIxNjY2NjY2NjY2NykiPjxyZWN0IGhlaWdodD0iNiIgd2lkdGg9IjYiLz48L2c+JiN4YTs8ZyB0cmFuc2Zvcm09InRyYW5zbGF0ZSg2MiwzNDEpIHNjYWxlKDUuMzIxNjY2NjY2NjY2NykiPjxyZWN0IGhlaWdodD0iNiIgd2lkdGg9IjYiLz48L2c+JiN4YTs8ZyB0cmFuc2Zvcm09InRyYW5zbGF0ZSgxMjQsMzQxKSBzY2FsZSg1LjMyMTY2NjY2NjY2NjcpIj48cmVjdCBoZWlnaHQ9IjYiIHdpZHRoPSI2Ii8+PC9nPiYjeGE7PGcgdHJhbnNmb3JtPSJ0cmFuc2xhdGUoMTU1LDM0MSkgc2NhbGUoNS4zMjE2NjY2NjY2NjY3KSI+PHJlY3QgaGVpZ2h0PSI2IiB3aWR0aD0iNiIvPjwvZz4mI3hhOzxnIHRyYW5zZm9ybT0idHJhbnNsYXRlKDIxNywzNDEpIHNjYWxlKDUuMzIxNjY2NjY2NjY2NykiPjxyZWN0IGhlaWdodD0iNiIgd2lkdGg9IjYiLz48L2c+JiN4YTs8ZyB0cmFuc2Zvcm09InRyYW5zbGF0ZSgyNzksMzQxKSBzY2FsZSg1LjMyMTY2NjY2NjY2NjcpIj48cmVjdCBoZWlnaHQ9IjYiIHdpZHRoPSI2Ii8+PC9nPiYjeGE7PGcgdHJhbnNmb3JtPSJ0cmFuc2xhdGUoMzEwLDM0MSkgc2NhbGUoNS4zMjE2NjY2NjY2NjY3KSI+PHJlY3QgaGVpZ2h0PSI2IiB3aWR0aD0iNiIvPjwvZz4mI3hhOzxnIHRyYW5zZm9ybT0idHJhbnNsYXRlKDQwMywzNDEpIHNjYWxlKDUuMzIxNjY2NjY2NjY2NykiPjxyZWN0IGhlaWdodD0iNiIgd2lkdGg9IjYiLz48L2c+JiN4YTs8ZyB0cmFuc2Zvcm09InRyYW5zbGF0ZSg0MzQsMzQxKSBzY2FsZSg1LjMyMTY2NjY2NjY2NjcpIj48cmVjdCBoZWlnaHQ9IjYiIHdpZHRoPSI2Ii8+PC9nPiYjeGE7PGcgdHJhbnNmb3JtPSJ0cmFuc2xhdGUoNTU4LDM0MSkgc2NhbGUoNS4zMjE2NjY2NjY2NjY3KSI+PHJlY3QgaGVpZ2h0PSI2IiB3aWR0aD0iNiIvPjwvZz4mI3hhOzxnIHRyYW5zZm9ybT0idHJhbnNsYXRlKDYyMCwzNDEpIHNjYWxlKDUuMzIxNjY2NjY2NjY2NykiPjxyZWN0IGhlaWdodD0iNiIgd2lkdGg9IjYiLz48L2c+JiN4YTs8ZyB0cmFuc2Zvcm09InRyYW5zbGF0ZSg2NTEsMzQxKSBzY2FsZSg1LjMyMTY2NjY2NjY2NjcpIj48cmVjdCBoZWlnaHQ9IjYiIHdpZHRoPSI2Ii8+PC9nPiYjeGE7PGcgdHJhbnNmb3JtPSJ0cmFuc2xhdGUoNzEzLDM0MSkgc2NhbGUoNS4zMjE2NjY2NjY2NjY3KSI+PHJlY3QgaGVpZ2h0PSI2IiB3aWR0aD0iNiIvPjwvZz4mI3hhOzxnIHRyYW5zZm9ybT0idHJhbnNsYXRlKDc0NCwzNDEpIHNjYWxlKDUuMzIxNjY2NjY2NjY2NykiPjxyZWN0IGhlaWdodD0iNiIgd2lkdGg9IjYiLz48L2c+JiN4YTs8ZyB0cmFuc2Zvcm09InRyYW5zbGF0ZSg3NzUsMzQxKSBzY2FsZSg1LjMyMTY2NjY2NjY2NjcpIj48cmVjdCBoZWlnaHQ9IjYiIHdpZHRoPSI2Ii8+PC9nPiYjeGE7PGcgdHJhbnNmb3JtPSJ0cmFuc2xhdGUoODA2LDM0MSkgc2NhbGUoNS4zMjE2NjY2NjY2NjY3KSI+PHJlY3QgaGVpZ2h0PSI2IiB3aWR0aD0iNiIvPjwvZz4mI3hhOzxnIHRyYW5zZm9ybT0idHJhbnNsYXRlKDgzNywzNDEpIHNjYWxlKDUuMzIxNjY2NjY2NjY2NykiPjxyZWN0IGhlaWdodD0iNiIgd2lkdGg9IjYiLz48L2c+JiN4YTs8ZyB0cmFuc2Zvcm09InRyYW5zbGF0ZSg5MzAsMzQxKSBzY2FsZSg1LjMyMTY2NjY2NjY2NjcpIj48cmVjdCBoZWlnaHQ9IjYiIHdpZHRoPSI2Ii8+PC9nPiYjeGE7PGcgdHJhbnNmb3JtPSJ0cmFuc2xhdGUoNjIsMzcyKSBzY2FsZSg1LjMyMTY2NjY2NjY2NjcpIj48cmVjdCBoZWlnaHQ9IjYiIHdpZHRoPSI2Ii8+PC9nPiYjeGE7PGcgdHJhbnNmb3JtPSJ0cmFuc2xhdGUoOTMsMzcyKSBzY2FsZSg1LjMyMTY2NjY2NjY2NjcpIj48cmVjdCBoZWlnaHQ9IjYiIHdpZHRoPSI2Ii8+PC9nPiYjeGE7PGcgdHJhbnNmb3JtPSJ0cmFuc2xhdGUoMjE3LDM3Mikgc2NhbGUoNS4zMjE2NjY2NjY2NjY3KSI+PHJlY3QgaGVpZ2h0PSI2IiB3aWR0aD0iNiIvPjwvZz4mI3hhOzxnIHRyYW5zZm9ybT0idHJhbnNsYXRlKDI0OCwzNzIpIHNjYWxlKDUuMzIxNjY2NjY2NjY2NykiPjxyZWN0IGhlaWdodD0iNiIgd2lkdGg9IjYiLz48L2c+JiN4YTs8ZyB0cmFuc2Zvcm09InRyYW5zbGF0ZSgyNzksMzcyKSBzY2FsZSg1LjMyMTY2NjY2NjY2NjcpIj48cmVjdCBoZWlnaHQ9IjYiIHdpZHRoPSI2Ii8+PC9nPiYjeGE7PGcgdHJhbnNmb3JtPSJ0cmFuc2xhdGUoMzEwLDM3Mikgc2NhbGUoNS4zMjE2NjY2NjY2NjY3KSI+PHJlY3QgaGVpZ2h0PSI2IiB3aWR0aD0iNiIvPjwvZz4mI3hhOzxnIHRyYW5zZm9ybT0idHJhbnNsYXRlKDM0MSwzNzIpIHNjYWxlKDUuMzIxNjY2NjY2NjY2NykiPjxyZWN0IGhlaWdodD0iNiIgd2lkdGg9IjYiLz48L2c+JiN4YTs8ZyB0cmFuc2Zvcm09InRyYW5zbGF0ZSgzNzIsMzcyKSBzY2FsZSg1LjMyMTY2NjY2NjY2NjcpIj48cmVjdCBoZWlnaHQ9IjYiIHdpZHRoPSI2Ii8+PC9nPiYjeGE7PGcgdHJhbnNmb3JtPSJ0cmFuc2xhdGUoNDAzLDM3Mikgc2NhbGUoNS4zMjE2NjY2NjY2NjY3KSI+PHJlY3QgaGVpZ2h0PSI2IiB3aWR0aD0iNiIvPjwvZz4mI3hhOzxnIHRyYW5zZm9ybT0idHJhbnNsYXRlKDQzNCwzNzIpIHNjYWxlKDUuMzIxNjY2NjY2NjY2NykiPjxyZWN0IGhlaWdodD0iNiIgd2lkdGg9IjYiLz48L2c+JiN4YTs8ZyB0cmFuc2Zvcm09InRyYW5zbGF0ZSg1ODksMzcyKSBzY2FsZSg1LjMyMTY2NjY2NjY2NjcpIj48cmVjdCBoZWlnaHQ9IjYiIHdpZHRoPSI2Ii8+PC9nPiYjeGE7PGcgdHJhbnNmb3JtPSJ0cmFuc2xhdGUoNjIwLDM3Mikgc2NhbGUoNS4zMjE2NjY2NjY2NjY3KSI+PHJlY3QgaGVpZ2h0PSI2IiB3aWR0aD0iNiIvPjwvZz4mI3hhOzxnIHRyYW5zZm9ybT0idHJhbnNsYXRlKDY4MiwzNzIpIHNjYWxlKDUuMzIxNjY2NjY2NjY2NykiPjxyZWN0IGhlaWdodD0iNiIgd2lkdGg9IjYiLz48L2c+JiN4YTs8ZyB0cmFuc2Zvcm09InRyYW5zbGF0ZSg3MTMsMzcyKSBzY2FsZSg1LjMyMTY2NjY2NjY2NjcpIj48cmVjdCBoZWlnaHQ9IjYiIHdpZHRoPSI2Ii8+PC9nPiYjeGE7PGcgdHJhbnNmb3JtPSJ0cmFuc2xhdGUoNzQ0LDM3Mikgc2NhbGUoNS4zMjE2NjY2NjY2NjY3KSI+PHJlY3QgaGVpZ2h0PSI2IiB3aWR0aD0iNiIvPjwvZz4mI3hhOzxnIHRyYW5zZm9ybT0idHJhbnNsYXRlKDgwNiwzNzIpIHNjYWxlKDUuMzIxNjY2NjY2NjY2NykiPjxyZWN0IGhlaWdodD0iNiIgd2lkdGg9IjYiLz48L2c+JiN4YTs8ZyB0cmFuc2Zvcm09InRyYW5zbGF0ZSgxODYsNDAzKSBzY2FsZSg1LjMyMTY2NjY2NjY2NjcpIj48cmVjdCBoZWlnaHQ9IjYiIHdpZHRoPSI2Ii8+PC9nPiYjeGE7PGcgdHJhbnNmb3JtPSJ0cmFuc2xhdGUoMjc5LDQwMykgc2NhbGUoNS4zMjE2NjY2NjY2NjY3KSI+PHJlY3QgaGVpZ2h0PSI2IiB3aWR0aD0iNiIvPjwvZz4mI3hhOzxnIHRyYW5zZm9ybT0idHJhbnNsYXRlKDMxMCw0MDMpIHNjYWxlKDUuMzIxNjY2NjY2NjY2NykiPjxyZWN0IGhlaWdodD0iNiIgd2lkdGg9IjYiLz48L2c+JiN4YTs8ZyB0cmFuc2Zvcm09InRyYW5zbGF0ZSgzNDEsNDAzKSBzY2FsZSg1LjMyMTY2NjY2NjY2NjcpIj48cmVjdCBoZWlnaHQ9IjYiIHdpZHRoPSI2Ii8+PC9nPiYjeGE7PGcgdHJhbnNmb3JtPSJ0cmFuc2xhdGUoMzcyLDQwMykgc2NhbGUoNS4zMjE2NjY2NjY2NjY3KSI+PHJlY3QgaGVpZ2h0PSI2IiB3aWR0aD0iNiIvPjwvZz4mI3hhOzxnIHRyYW5zZm9ybT0idHJhbnNsYXRlKDQ2NSw0MDMpIHNjYWxlKDUuMzIxNjY2NjY2NjY2NykiPjxyZWN0IGhlaWdodD0iNiIgd2lkdGg9IjYiLz48L2c+JiN4YTs8ZyB0cmFuc2Zvcm09InRyYW5zbGF0ZSg1NTgsNDAzKSBzY2FsZSg1LjMyMTY2NjY2NjY2NjcpIj48cmVjdCBoZWlnaHQ9IjYiIHdpZHRoPSI2Ii8+PC9nPiYjeGE7PGcgdHJhbnNmb3JtPSJ0cmFuc2xhdGUoNTg5LDQwMykgc2NhbGUoNS4zMjE2NjY2NjY2NjY3KSI+PHJlY3QgaGVpZ2h0PSI2IiB3aWR0aD0iNiIvPjwvZz4mI3hhOzxnIHRyYW5zZm9ybT0idHJhbnNsYXRlKDYyMCw0MDMpIHNjYWxlKDUuMzIxNjY2NjY2NjY2NykiPjxyZWN0IGhlaWdodD0iNiIgd2lkdGg9IjYiLz48L2c+JiN4YTs8ZyB0cmFuc2Zvcm09InRyYW5zbGF0ZSg3MTMsNDAzKSBzY2FsZSg1LjMyMTY2NjY2NjY2NjcpIj48cmVjdCBoZWlnaHQ9IjYiIHdpZHRoPSI2Ii8+PC9nPiYjeGE7PGcgdHJhbnNmb3JtPSJ0cmFuc2xhdGUoNzQ0LDQwMykgc2NhbGUoNS4zMjE2NjY2NjY2NjY3KSI+PHJlY3QgaGVpZ2h0PSI2IiB3aWR0aD0iNiIvPjwvZz4mI3hhOzxnIHRyYW5zZm9ybT0idHJhbnNsYXRlKDgzNyw0MDMpIHNjYWxlKDUuMzIxNjY2NjY2NjY2NykiPjxyZWN0IGhlaWdodD0iNiIgd2lkdGg9IjYiLz48L2c+JiN4YTs8ZyB0cmFuc2Zvcm09InRyYW5zbGF0ZSg4OTksNDAzKSBzY2FsZSg1LjMyMTY2NjY2NjY2NjcpIj48cmVjdCBoZWlnaHQ9IjYiIHdpZHRoPSI2Ii8+PC9nPiYjeGE7PGcgdHJhbnNmb3JtPSJ0cmFuc2xhdGUoOTMsNDM0KSBzY2FsZSg1LjMyMTY2NjY2NjY2NjcpIj48cmVjdCBoZWlnaHQ9IjYiIHdpZHRoPSI2Ii8+PC9nPiYjeGE7PGcgdHJhbnNmb3JtPSJ0cmFuc2xhdGUoMTU1LDQzNCkgc2NhbGUoNS4zMjE2NjY2NjY2NjY3KSI+PHJlY3QgaGVpZ2h0PSI2IiB3aWR0aD0iNiIvPjwvZz4mI3hhOzxnIHRyYW5zZm9ybT0idHJhbnNsYXRlKDE4Niw0MzQpIHNjYWxlKDUuMzIxNjY2NjY2NjY2NykiPjxyZWN0IGhlaWdodD0iNiIgd2lkdGg9IjYiLz48L2c+JiN4YTs8ZyB0cmFuc2Zvcm09InRyYW5zbGF0ZSgyMTcsNDM0KSBzY2FsZSg1LjMyMTY2NjY2NjY2NjcpIj48cmVjdCBoZWlnaHQ9IjYiIHdpZHRoPSI2Ii8+PC9nPiYjeGE7PGcgdHJhbnNmb3JtPSJ0cmFuc2xhdGUoMjQ4LDQzNCkgc2NhbGUoNS4zMjE2NjY2NjY2NjY3KSI+PHJlY3QgaGVpZ2h0PSI2IiB3aWR0aD0iNiIvPjwvZz4mI3hhOzxnIHRyYW5zZm9ybT0idHJhbnNsYXRlKDI3OSw0MzQpIHNjYWxlKDUuMzIxNjY2NjY2NjY2NykiPjxyZWN0IGhlaWdodD0iNiIgd2lkdGg9IjYiLz48L2c+JiN4YTs8ZyB0cmFuc2Zvcm09InRyYW5zbGF0ZSg0MDMsNDM0KSBzY2FsZSg1LjMyMTY2NjY2NjY2NjcpIj48cmVjdCBoZWlnaHQ9IjYiIHdpZHRoPSI2Ii8+PC9nPiYjeGE7PGcgdHJhbnNmb3JtPSJ0cmFuc2xhdGUoNDk2LDQzNCkgc2NhbGUoNS4zMjE2NjY2NjY2NjY3KSI+PHJlY3QgaGVpZ2h0PSI2IiB3aWR0aD0iNiIvPjwvZz4mI3hhOzxnIHRyYW5zZm9ybT0idHJhbnNsYXRlKDUyNyw0MzQpIHNjYWxlKDUuMzIxNjY2NjY2NjY2NykiPjxyZWN0IGhlaWdodD0iNiIgd2lkdGg9IjYiLz48L2c+JiN4YTs8ZyB0cmFuc2Zvcm09InRyYW5zbGF0ZSg2MjAsNDM0KSBzY2FsZSg1LjMyMTY2NjY2NjY2NjcpIj48cmVjdCBoZWlnaHQ9IjYiIHdpZHRoPSI2Ii8+PC9nPiYjeGE7PGcgdHJhbnNmb3JtPSJ0cmFuc2xhdGUoNjUxLDQzNCkgc2NhbGUoNS4zMjE2NjY2NjY2NjY3KSI+PHJlY3QgaGVpZ2h0PSI2IiB3aWR0aD0iNiIvPjwvZz4mI3hhOzxnIHRyYW5zZm9ybT0idHJhbnNsYXRlKDY4Miw0MzQpIHNjYWxlKDUuMzIxNjY2NjY2NjY2NykiPjxyZWN0IGhlaWdodD0iNiIgd2lkdGg9IjYiLz48L2c+JiN4YTs8ZyB0cmFuc2Zvcm09InRyYW5zbGF0ZSg3MTMsNDM0KSBzY2FsZSg1LjMyMTY2NjY2NjY2NjcpIj48cmVjdCBoZWlnaHQ9IjYiIHdpZHRoPSI2Ii8+PC9nPiYjeGE7PGcgdHJhbnNmb3JtPSJ0cmFuc2xhdGUoNzc1LDQzNCkgc2NhbGUoNS4zMjE2NjY2NjY2NjY3KSI+PHJlY3QgaGVpZ2h0PSI2IiB3aWR0aD0iNiIvPjwvZz4mI3hhOzxnIHRyYW5zZm9ybT0idHJhbnNsYXRlKDg2OCw0MzQpIHNjYWxlKDUuMzIxNjY2NjY2NjY2NykiPjxyZWN0IGhlaWdodD0iNiIgd2lkdGg9IjYiLz48L2c+JiN4YTs8ZyB0cmFuc2Zvcm09InRyYW5zbGF0ZSg4OTksNDM0KSBzY2FsZSg1LjMyMTY2NjY2NjY2NjcpIj48cmVjdCBoZWlnaHQ9IjYiIHdpZHRoPSI2Ii8+PC9nPiYjeGE7PGcgdHJhbnNmb3JtPSJ0cmFuc2xhdGUoOTMwLDQzNCkgc2NhbGUoNS4zMjE2NjY2NjY2NjY3KSI+PHJlY3QgaGVpZ2h0PSI2IiB3aWR0aD0iNiIvPjwvZz4mI3hhOzxnIHRyYW5zZm9ybT0idHJhbnNsYXRlKDYyLDQ2NSkgc2NhbGUoNS4zMjE2NjY2NjY2NjY3KSI+PHJlY3QgaGVpZ2h0PSI2IiB3aWR0aD0iNiIvPjwvZz4mI3hhOzxnIHRyYW5zZm9ybT0idHJhbnNsYXRlKDkzLDQ2NSkgc2NhbGUoNS4zMjE2NjY2NjY2NjY3KSI+PHJlY3QgaGVpZ2h0PSI2IiB3aWR0aD0iNiIvPjwvZz4mI3hhOzxnIHRyYW5zZm9ybT0idHJhbnNsYXRlKDEyNCw0NjUpIHNjYWxlKDUuMzIxNjY2NjY2NjY2NykiPjxyZWN0IGhlaWdodD0iNiIgd2lkdGg9IjYiLz48L2c+JiN4YTs8ZyB0cmFuc2Zvcm09InRyYW5zbGF0ZSgxNTUsNDY1KSBzY2FsZSg1LjMyMTY2NjY2NjY2NjcpIj48cmVjdCBoZWlnaHQ9IjYiIHdpZHRoPSI2Ii8+PC9nPiYjeGE7PGcgdHJhbnNmb3JtPSJ0cmFuc2xhdGUoMTg2LDQ2NSkgc2NhbGUoNS4zMjE2NjY2NjY2NjY3KSI+PHJlY3QgaGVpZ2h0PSI2IiB3aWR0aD0iNiIvPjwvZz4mI3hhOzxnIHRyYW5zZm9ybT0idHJhbnNsYXRlKDIxNyw0NjUpIHNjYWxlKDUuMzIxNjY2NjY2NjY2NykiPjxyZWN0IGhlaWdodD0iNiIgd2lkdGg9IjYiLz48L2c+JiN4YTs8ZyB0cmFuc2Zvcm09InRyYW5zbGF0ZSgyNzksNDY1KSBzY2FsZSg1LjMyMTY2NjY2NjY2NjcpIj48cmVjdCBoZWlnaHQ9IjYiIHdpZHRoPSI2Ii8+PC9nPiYjeGE7PGcgdHJhbnNmb3JtPSJ0cmFuc2xhdGUoMzcyLDQ2NSkgc2NhbGUoNS4zMjE2NjY2NjY2NjY3KSI+PHJlY3QgaGVpZ2h0PSI2IiB3aWR0aD0iNiIvPjwvZz4mI3hhOzxnIHRyYW5zZm9ybT0idHJhbnNsYXRlKDQ5Niw0NjUpIHNjYWxlKDUuMzIxNjY2NjY2NjY2NykiPjxyZWN0IGhlaWdodD0iNiIgd2lkdGg9IjYiLz48L2c+JiN4YTs8ZyB0cmFuc2Zvcm09InRyYW5zbGF0ZSg1MjcsNDY1KSBzY2FsZSg1LjMyMTY2NjY2NjY2NjcpIj48cmVjdCBoZWlnaHQ9IjYiIHdpZHRoPSI2Ii8+PC9nPiYjeGE7PGcgdHJhbnNmb3JtPSJ0cmFuc2xhdGUoNTg5LDQ2NSkgc2NhbGUoNS4zMjE2NjY2NjY2NjY3KSI+PHJlY3QgaGVpZ2h0PSI2IiB3aWR0aD0iNiIvPjwvZz4mI3hhOzxnIHRyYW5zZm9ybT0idHJhbnNsYXRlKDYyMCw0NjUpIHNjYWxlKDUuMzIxNjY2NjY2NjY2NykiPjxyZWN0IGhlaWdodD0iNiIgd2lkdGg9IjYiLz48L2c+JiN4YTs8ZyB0cmFuc2Zvcm09InRyYW5zbGF0ZSg2NTEsNDY1KSBzY2FsZSg1LjMyMTY2NjY2NjY2NjcpIj48cmVjdCBoZWlnaHQ9IjYiIHdpZHRoPSI2Ii8+PC9nPiYjeGE7PGcgdHJhbnNmb3JtPSJ0cmFuc2xhdGUoNjgyLDQ2NSkgc2NhbGUoNS4zMjE2NjY2NjY2NjY3KSI+PHJlY3QgaGVpZ2h0PSI2IiB3aWR0aD0iNiIvPjwvZz4mI3hhOzxnIHRyYW5zZm9ybT0idHJhbnNsYXRlKDcxMyw0NjUpIHNjYWxlKDUuMzIxNjY2NjY2NjY2NykiPjxyZWN0IGhlaWdodD0iNiIgd2lkdGg9IjYiLz48L2c+JiN4YTs8ZyB0cmFuc2Zvcm09InRyYW5zbGF0ZSg3NDQsNDY1KSBzY2FsZSg1LjMyMTY2NjY2NjY2NjcpIj48cmVjdCBoZWlnaHQ9IjYiIHdpZHRoPSI2Ii8+PC9nPiYjeGE7PGcgdHJhbnNmb3JtPSJ0cmFuc2xhdGUoODA2LDQ2NSkgc2NhbGUoNS4zMjE2NjY2NjY2NjY3KSI+PHJlY3QgaGVpZ2h0PSI2IiB3aWR0aD0iNiIvPjwvZz4mI3hhOzxnIHRyYW5zZm9ybT0idHJhbnNsYXRlKDgzNyw0NjUpIHNjYWxlKDUuMzIxNjY2NjY2NjY2NykiPjxyZWN0IGhlaWdodD0iNiIgd2lkdGg9IjYiLz48L2c+JiN4YTs8ZyB0cmFuc2Zvcm09InRyYW5zbGF0ZSg4OTksNDY1KSBzY2FsZSg1LjMyMTY2NjY2NjY2NjcpIj48cmVjdCBoZWlnaHQ9IjYiIHdpZHRoPSI2Ii8+PC9nPiYjeGE7PGcgdHJhbnNmb3JtPSJ0cmFuc2xhdGUoOTMwLDQ2NSkgc2NhbGUoNS4zMjE2NjY2NjY2NjY3KSI+PHJlY3QgaGVpZ2h0PSI2IiB3aWR0aD0iNiIvPjwvZz4mI3hhOzxnIHRyYW5zZm9ybT0idHJhbnNsYXRlKDYyLDQ5Nikgc2NhbGUoNS4zMjE2NjY2NjY2NjY3KSI+PHJlY3QgaGVpZ2h0PSI2IiB3aWR0aD0iNiIvPjwvZz4mI3hhOzxnIHRyYW5zZm9ybT0idHJhbnNsYXRlKDE4Niw0OTYpIHNjYWxlKDUuMzIxNjY2NjY2NjY2NykiPjxyZWN0IGhlaWdodD0iNiIgd2lkdGg9IjYiLz48L2c+JiN4YTs8ZyB0cmFuc2Zvcm09InRyYW5zbGF0ZSgyMTcsNDk2KSBzY2FsZSg1LjMyMTY2NjY2NjY2NjcpIj48cmVjdCBoZWlnaHQ9IjYiIHdpZHRoPSI2Ii8+PC9nPiYjeGE7PGcgdHJhbnNmb3JtPSJ0cmFuc2xhdGUoMjQ4LDQ5Nikgc2NhbGUoNS4zMjE2NjY2NjY2NjY3KSI+PHJlY3QgaGVpZ2h0PSI2IiB3aWR0aD0iNiIvPjwvZz4mI3hhOzxnIHRyYW5zZm9ybT0idHJhbnNsYXRlKDI3OSw0OTYpIHNjYWxlKDUuMzIxNjY2NjY2NjY2NykiPjxyZWN0IGhlaWdodD0iNiIgd2lkdGg9IjYiLz48L2c+JiN4YTs8ZyB0cmFuc2Zvcm09InRyYW5zbGF0ZSgzNzIsNDk2KSBzY2FsZSg1LjMyMTY2NjY2NjY2NjcpIj48cmVjdCBoZWlnaHQ9IjYiIHdpZHRoPSI2Ii8+PC9nPiYjeGE7PGcgdHJhbnNmb3JtPSJ0cmFuc2xhdGUoNDAzLDQ5Nikgc2NhbGUoNS4zMjE2NjY2NjY2NjY3KSI+PHJlY3QgaGVpZ2h0PSI2IiB3aWR0aD0iNiIvPjwvZz4mI3hhOzxnIHRyYW5zZm9ybT0idHJhbnNsYXRlKDQzNCw0OTYpIHNjYWxlKDUuMzIxNjY2NjY2NjY2NykiPjxyZWN0IGhlaWdodD0iNiIgd2lkdGg9IjYiLz48L2c+JiN4YTs8ZyB0cmFuc2Zvcm09InRyYW5zbGF0ZSg0NjUsNDk2KSBzY2FsZSg1LjMyMTY2NjY2NjY2NjcpIj48cmVjdCBoZWlnaHQ9IjYiIHdpZHRoPSI2Ii8+PC9nPiYjeGE7PGcgdHJhbnNmb3JtPSJ0cmFuc2xhdGUoNDk2LDQ5Nikgc2NhbGUoNS4zMjE2NjY2NjY2NjY3KSI+PHJlY3QgaGVpZ2h0PSI2IiB3aWR0aD0iNiIvPjwvZz4mI3hhOzxnIHRyYW5zZm9ybT0idHJhbnNsYXRlKDU1OCw0OTYpIHNjYWxlKDUuMzIxNjY2NjY2NjY2NykiPjxyZWN0IGhlaWdodD0iNiIgd2lkdGg9IjYiLz48L2c+JiN4YTs8ZyB0cmFuc2Zvcm09InRyYW5zbGF0ZSg2MjAsNDk2KSBzY2FsZSg1LjMyMTY2NjY2NjY2NjcpIj48cmVjdCBoZWlnaHQ9IjYiIHdpZHRoPSI2Ii8+PC9nPiYjeGE7PGcgdHJhbnNmb3JtPSJ0cmFuc2xhdGUoNjgyLDQ5Nikgc2NhbGUoNS4zMjE2NjY2NjY2NjY3KSI+PHJlY3QgaGVpZ2h0PSI2IiB3aWR0aD0iNiIvPjwvZz4mI3hhOzxnIHRyYW5zZm9ybT0idHJhbnNsYXRlKDcxMyw0OTYpIHNjYWxlKDUuMzIxNjY2NjY2NjY2NykiPjxyZWN0IGhlaWdodD0iNiIgd2lkdGg9IjYiLz48L2c+JiN4YTs8ZyB0cmFuc2Zvcm09InRyYW5zbGF0ZSg3NzUsNDk2KSBzY2FsZSg1LjMyMTY2NjY2NjY2NjcpIj48cmVjdCBoZWlnaHQ9IjYiIHdpZHRoPSI2Ii8+PC9nPiYjeGE7PGcgdHJhbnNmb3JtPSJ0cmFuc2xhdGUoOTMsNTI3KSBzY2FsZSg1LjMyMTY2NjY2NjY2NjcpIj48cmVjdCBoZWlnaHQ9IjYiIHdpZHRoPSI2Ii8+PC9nPiYjeGE7PGcgdHJhbnNmb3JtPSJ0cmFuc2xhdGUoMTI0LDUyNykgc2NhbGUoNS4zMjE2NjY2NjY2NjY3KSI+PHJlY3QgaGVpZ2h0PSI2IiB3aWR0aD0iNiIvPjwvZz4mI3hhOzxnIHRyYW5zZm9ybT0idHJhbnNsYXRlKDIxNyw1MjcpIHNjYWxlKDUuMzIxNjY2NjY2NjY2NykiPjxyZWN0IGhlaWdodD0iNiIgd2lkdGg9IjYiLz48L2c+JiN4YTs8ZyB0cmFuc2Zvcm09InRyYW5zbGF0ZSgzMTAsNTI3KSBzY2FsZSg1LjMyMTY2NjY2NjY2NjcpIj48cmVjdCBoZWlnaHQ9IjYiIHdpZHRoPSI2Ii8+PC9nPiYjeGE7PGcgdHJhbnNmb3JtPSJ0cmFuc2xhdGUoMzcyLDUyNykgc2NhbGUoNS4zMjE2NjY2NjY2NjY3KSI+PHJlY3QgaGVpZ2h0PSI2IiB3aWR0aD0iNiIvPjwvZz4mI3hhOzxnIHRyYW5zZm9ybT0idHJhbnNsYXRlKDQ2NSw1MjcpIHNjYWxlKDUuMzIxNjY2NjY2NjY2NykiPjxyZWN0IGhlaWdodD0iNiIgd2lkdGg9IjYiLz48L2c+JiN4YTs8ZyB0cmFuc2Zvcm09InRyYW5zbGF0ZSg1MjcsNTI3KSBzY2FsZSg1LjMyMTY2NjY2NjY2NjcpIj48cmVjdCBoZWlnaHQ9IjYiIHdpZHRoPSI2Ii8+PC9nPiYjeGE7PGcgdHJhbnNmb3JtPSJ0cmFuc2xhdGUoNTU4LDUyNykgc2NhbGUoNS4zMjE2NjY2NjY2NjY3KSI+PHJlY3QgaGVpZ2h0PSI2IiB3aWR0aD0iNiIvPjwvZz4mI3hhOzxnIHRyYW5zZm9ybT0idHJhbnNsYXRlKDU4OSw1MjcpIHNjYWxlKDUuMzIxNjY2NjY2NjY2NykiPjxyZWN0IGhlaWdodD0iNiIgd2lkdGg9IjYiLz48L2c+JiN4YTs8ZyB0cmFuc2Zvcm09InRyYW5zbGF0ZSg2MjAsNTI3KSBzY2FsZSg1LjMyMTY2NjY2NjY2NjcpIj48cmVjdCBoZWlnaHQ9IjYiIHdpZHRoPSI2Ii8+PC9nPiYjeGE7PGcgdHJhbnNmb3JtPSJ0cmFuc2xhdGUoNzQ0LDUyNykgc2NhbGUoNS4zMjE2NjY2NjY2NjY3KSI+PHJlY3QgaGVpZ2h0PSI2IiB3aWR0aD0iNiIvPjwvZz4mI3hhOzxnIHRyYW5zZm9ybT0idHJhbnNsYXRlKDgwNiw1MjcpIHNjYWxlKDUuMzIxNjY2NjY2NjY2NykiPjxyZWN0IGhlaWdodD0iNiIgd2lkdGg9IjYiLz48L2c+JiN4YTs8ZyB0cmFuc2Zvcm09InRyYW5zbGF0ZSg4MzcsNTI3KSBzY2FsZSg1LjMyMTY2NjY2NjY2NjcpIj48cmVjdCBoZWlnaHQ9IjYiIHdpZHRoPSI2Ii8+PC9nPiYjeGE7PGcgdHJhbnNmb3JtPSJ0cmFuc2xhdGUoOTMwLDUyNykgc2NhbGUoNS4zMjE2NjY2NjY2NjY3KSI+PHJlY3QgaGVpZ2h0PSI2IiB3aWR0aD0iNiIvPjwvZz4mI3hhOzxnIHRyYW5zZm9ybT0idHJhbnNsYXRlKDkzLDU1OCkgc2NhbGUoNS4zMjE2NjY2NjY2NjY3KSI+PHJlY3QgaGVpZ2h0PSI2IiB3aWR0aD0iNiIvPjwvZz4mI3hhOzxnIHRyYW5zZm9ybT0idHJhbnNsYXRlKDE4Niw1NTgpIHNjYWxlKDUuMzIxNjY2NjY2NjY2NykiPjxyZWN0IGhlaWdodD0iNiIgd2lkdGg9IjYiLz48L2c+JiN4YTs8ZyB0cmFuc2Zvcm09InRyYW5zbGF0ZSgyMTcsNTU4KSBzY2FsZSg1LjMyMTY2NjY2NjY2NjcpIj48cmVjdCBoZWlnaHQ9IjYiIHdpZHRoPSI2Ii8+PC9nPiYjeGE7PGcgdHJhbnNmb3JtPSJ0cmFuc2xhdGUoMjQ4LDU1OCkgc2NhbGUoNS4zMjE2NjY2NjY2NjY3KSI+PHJlY3QgaGVpZ2h0PSI2IiB3aWR0aD0iNiIvPjwvZz4mI3hhOzxnIHRyYW5zZm9ybT0idHJhbnNsYXRlKDMxMCw1NTgpIHNjYWxlKDUuMzIxNjY2NjY2NjY2NykiPjxyZWN0IGhlaWdodD0iNiIgd2lkdGg9IjYiLz48L2c+JiN4YTs8ZyB0cmFuc2Zvcm09InRyYW5zbGF0ZSgzNzIsNTU4KSBzY2FsZSg1LjMyMTY2NjY2NjY2NjcpIj48cmVjdCBoZWlnaHQ9IjYiIHdpZHRoPSI2Ii8+PC9nPiYjeGE7PGcgdHJhbnNmb3JtPSJ0cmFuc2xhdGUoNDM0LDU1OCkgc2NhbGUoNS4zMjE2NjY2NjY2NjY3KSI+PHJlY3QgaGVpZ2h0PSI2IiB3aWR0aD0iNiIvPjwvZz4mI3hhOzxnIHRyYW5zZm9ybT0idHJhbnNsYXRlKDY4Miw1NTgpIHNjYWxlKDUuMzIxNjY2NjY2NjY2NykiPjxyZWN0IGhlaWdodD0iNiIgd2lkdGg9IjYiLz48L2c+JiN4YTs8ZyB0cmFuc2Zvcm09InRyYW5zbGF0ZSg4MzcsNTU4KSBzY2FsZSg1LjMyMTY2NjY2NjY2NjcpIj48cmVjdCBoZWlnaHQ9IjYiIHdpZHRoPSI2Ii8+PC9nPiYjeGE7PGcgdHJhbnNmb3JtPSJ0cmFuc2xhdGUoODY4LDU1OCkgc2NhbGUoNS4zMjE2NjY2NjY2NjY3KSI+PHJlY3QgaGVpZ2h0PSI2IiB3aWR0aD0iNiIvPjwvZz4mI3hhOzxnIHRyYW5zZm9ybT0idHJhbnNsYXRlKDkzMCw1NTgpIHNjYWxlKDUuMzIxNjY2NjY2NjY2NykiPjxyZWN0IGhlaWdodD0iNiIgd2lkdGg9IjYiLz48L2c+JiN4YTs8ZyB0cmFuc2Zvcm09InRyYW5zbGF0ZSg2Miw1ODkpIHNjYWxlKDUuMzIxNjY2NjY2NjY2NykiPjxyZWN0IGhlaWdodD0iNiIgd2lkdGg9IjYiLz48L2c+JiN4YTs8ZyB0cmFuc2Zvcm09InRyYW5zbGF0ZSgxMjQsNTg5KSBzY2FsZSg1LjMyMTY2NjY2NjY2NjcpIj48cmVjdCBoZWlnaHQ9IjYiIHdpZHRoPSI2Ii8+PC9nPiYjeGE7PGcgdHJhbnNmb3JtPSJ0cmFuc2xhdGUoMTg2LDU4OSkgc2NhbGUoNS4zMjE2NjY2NjY2NjY3KSI+PHJlY3QgaGVpZ2h0PSI2IiB3aWR0aD0iNiIvPjwvZz4mI3hhOzxnIHRyYW5zZm9ybT0idHJhbnNsYXRlKDIxNyw1ODkpIHNjYWxlKDUuMzIxNjY2NjY2NjY2NykiPjxyZWN0IGhlaWdodD0iNiIgd2lkdGg9IjYiLz48L2c+JiN4YTs8ZyB0cmFuc2Zvcm09InRyYW5zbGF0ZSgyNzksNTg5KSBzY2FsZSg1LjMyMTY2NjY2NjY2NjcpIj48cmVjdCBoZWlnaHQ9IjYiIHdpZHRoPSI2Ii8+PC9nPiYjeGE7PGcgdHJhbnNmb3JtPSJ0cmFuc2xhdGUoNDk2LDU4OSkgc2NhbGUoNS4zMjE2NjY2NjY2NjY3KSI+PHJlY3QgaGVpZ2h0PSI2IiB3aWR0aD0iNiIvPjwvZz4mI3hhOzxnIHRyYW5zZm9ybT0idHJhbnNsYXRlKDU4OSw1ODkpIHNjYWxlKDUuMzIxNjY2NjY2NjY2NykiPjxyZWN0IGhlaWdodD0iNiIgd2lkdGg9IjYiLz48L2c+JiN4YTs8ZyB0cmFuc2Zvcm09InRyYW5zbGF0ZSg2NTEsNTg5KSBzY2FsZSg1LjMyMTY2NjY2NjY2NjcpIj48cmVjdCBoZWlnaHQ9IjYiIHdpZHRoPSI2Ii8+PC9nPiYjeGE7PGcgdHJhbnNmb3JtPSJ0cmFuc2xhdGUoNjgyLDU4OSkgc2NhbGUoNS4zMjE2NjY2NjY2NjY3KSI+PHJlY3QgaGVpZ2h0PSI2IiB3aWR0aD0iNiIvPjwvZz4mI3hhOzxnIHRyYW5zZm9ybT0idHJhbnNsYXRlKDcxMyw1ODkpIHNjYWxlKDUuMzIxNjY2NjY2NjY2NykiPjxyZWN0IGhlaWdodD0iNiIgd2lkdGg9IjYiLz48L2c+JiN4YTs8ZyB0cmFuc2Zvcm09InRyYW5zbGF0ZSg3NzUsNTg5KSBzY2FsZSg1LjMyMTY2NjY2NjY2NjcpIj48cmVjdCBoZWlnaHQ9IjYiIHdpZHRoPSI2Ii8+PC9nPiYjeGE7PGcgdHJhbnNmb3JtPSJ0cmFuc2xhdGUoODA2LDU4OSkgc2NhbGUoNS4zMjE2NjY2NjY2NjY3KSI+PHJlY3QgaGVpZ2h0PSI2IiB3aWR0aD0iNiIvPjwvZz4mI3hhOzxnIHRyYW5zZm9ybT0idHJhbnNsYXRlKDgzNyw1ODkpIHNjYWxlKDUuMzIxNjY2NjY2NjY2NykiPjxyZWN0IGhlaWdodD0iNiIgd2lkdGg9IjYiLz48L2c+JiN4YTs8ZyB0cmFuc2Zvcm09InRyYW5zbGF0ZSg4OTksNTg5KSBzY2FsZSg1LjMyMTY2NjY2NjY2NjcpIj48cmVjdCBoZWlnaHQ9IjYiIHdpZHRoPSI2Ii8+PC9nPiYjeGE7PGcgdHJhbnNmb3JtPSJ0cmFuc2xhdGUoOTMwLDU4OSkgc2NhbGUoNS4zMjE2NjY2NjY2NjY3KSI+PHJlY3QgaGVpZ2h0PSI2IiB3aWR0aD0iNiIvPjwvZz4mI3hhOzxnIHRyYW5zZm9ybT0idHJhbnNsYXRlKDYyLDYyMCkgc2NhbGUoNS4zMjE2NjY2NjY2NjY3KSI+PHJlY3QgaGVpZ2h0PSI2IiB3aWR0aD0iNiIvPjwvZz4mI3hhOzxnIHRyYW5zZm9ybT0idHJhbnNsYXRlKDE1NSw2MjApIHNjYWxlKDUuMzIxNjY2NjY2NjY2NykiPjxyZWN0IGhlaWdodD0iNiIgd2lkdGg9IjYiLz48L2c+JiN4YTs8ZyB0cmFuc2Zvcm09InRyYW5zbGF0ZSgxODYsNjIwKSBzY2FsZSg1LjMyMTY2NjY2NjY2NjcpIj48cmVjdCBoZWlnaHQ9IjYiIHdpZHRoPSI2Ii8+PC9nPiYjeGE7PGcgdHJhbnNmb3JtPSJ0cmFuc2xhdGUoMjE3LDYyMCkgc2NhbGUoNS4zMjE2NjY2NjY2NjY3KSI+PHJlY3QgaGVpZ2h0PSI2IiB3aWR0aD0iNiIvPjwvZz4mI3hhOzxnIHRyYW5zZm9ybT0idHJhbnNsYXRlKDI0OCw2MjApIHNjYWxlKDUuMzIxNjY2NjY2NjY2NykiPjxyZWN0IGhlaWdodD0iNiIgd2lkdGg9IjYiLz48L2c+JiN4YTs8ZyB0cmFuc2Zvcm09InRyYW5zbGF0ZSgzNzIsNjIwKSBzY2FsZSg1LjMyMTY2NjY2NjY2NjcpIj48cmVjdCBoZWlnaHQ9IjYiIHdpZHRoPSI2Ii8+PC9nPiYjeGE7PGcgdHJhbnNmb3JtPSJ0cmFuc2xhdGUoNDM0LDYyMCkgc2NhbGUoNS4zMjE2NjY2NjY2NjY3KSI+PHJlY3QgaGVpZ2h0PSI2IiB3aWR0aD0iNiIvPjwvZz4mI3hhOzxnIHRyYW5zZm9ybT0idHJhbnNsYXRlKDUyNyw2MjApIHNjYWxlKDUuMzIxNjY2NjY2NjY2NykiPjxyZWN0IGhlaWdodD0iNiIgd2lkdGg9IjYiLz48L2c+JiN4YTs8ZyB0cmFuc2Zvcm09InRyYW5zbGF0ZSg1ODksNjIwKSBzY2FsZSg1LjMyMTY2NjY2NjY2NjcpIj48cmVjdCBoZWlnaHQ9IjYiIHdpZHRoPSI2Ii8+PC9nPiYjeGE7PGcgdHJhbnNmb3JtPSJ0cmFuc2xhdGUoNjgyLDYyMCkgc2NhbGUoNS4zMjE2NjY2NjY2NjY3KSI+PHJlY3QgaGVpZ2h0PSI2IiB3aWR0aD0iNiIvPjwvZz4mI3hhOzxnIHRyYW5zZm9ybT0idHJhbnNsYXRlKDc0NCw2MjApIHNjYWxlKDUuMzIxNjY2NjY2NjY2NykiPjxyZWN0IGhlaWdodD0iNiIgd2lkdGg9IjYiLz48L2c+JiN4YTs8ZyB0cmFuc2Zvcm09InRyYW5zbGF0ZSg3NzUsNjIwKSBzY2FsZSg1LjMyMTY2NjY2NjY2NjcpIj48cmVjdCBoZWlnaHQ9IjYiIHdpZHRoPSI2Ii8+PC9nPiYjeGE7PGcgdHJhbnNmb3JtPSJ0cmFuc2xhdGUoODM3LDYyMCkgc2NhbGUoNS4zMjE2NjY2NjY2NjY3KSI+PHJlY3QgaGVpZ2h0PSI2IiB3aWR0aD0iNiIvPjwvZz4mI3hhOzxnIHRyYW5zZm9ybT0idHJhbnNsYXRlKDYyLDY1MSkgc2NhbGUoNS4zMjE2NjY2NjY2NjY3KSI+PHJlY3QgaGVpZ2h0PSI2IiB3aWR0aD0iNiIvPjwvZz4mI3hhOzxnIHRyYW5zZm9ybT0idHJhbnNsYXRlKDEyNCw2NTEpIHNjYWxlKDUuMzIxNjY2NjY2NjY2NykiPjxyZWN0IGhlaWdodD0iNiIgd2lkdGg9IjYiLz48L2c+JiN4YTs8ZyB0cmFuc2Zvcm09InRyYW5zbGF0ZSgxODYsNjUxKSBzY2FsZSg1LjMyMTY2NjY2NjY2NjcpIj48cmVjdCBoZWlnaHQ9IjYiIHdpZHRoPSI2Ii8+PC9nPiYjeGE7PGcgdHJhbnNmb3JtPSJ0cmFuc2xhdGUoMjE3LDY1MSkgc2NhbGUoNS4zMjE2NjY2NjY2NjY3KSI+PHJlY3QgaGVpZ2h0PSI2IiB3aWR0aD0iNiIvPjwvZz4mI3hhOzxnIHRyYW5zZm9ybT0idHJhbnNsYXRlKDI3OSw2NTEpIHNjYWxlKDUuMzIxNjY2NjY2NjY2NykiPjxyZWN0IGhlaWdodD0iNiIgd2lkdGg9IjYiLz48L2c+JiN4YTs8ZyB0cmFuc2Zvcm09InRyYW5zbGF0ZSgzMTAsNjUxKSBzY2FsZSg1LjMyMTY2NjY2NjY2NjcpIj48cmVjdCBoZWlnaHQ9IjYiIHdpZHRoPSI2Ii8+PC9nPiYjeGE7PGcgdHJhbnNmb3JtPSJ0cmFuc2xhdGUoMzQxLDY1MSkgc2NhbGUoNS4zMjE2NjY2NjY2NjY3KSI+PHJlY3QgaGVpZ2h0PSI2IiB3aWR0aD0iNiIvPjwvZz4mI3hhOzxnIHRyYW5zZm9ybT0idHJhbnNsYXRlKDQwMyw2NTEpIHNjYWxlKDUuMzIxNjY2NjY2NjY2NykiPjxyZWN0IGhlaWdodD0iNiIgd2lkdGg9IjYiLz48L2c+JiN4YTs8ZyB0cmFuc2Zvcm09InRyYW5zbGF0ZSg0MzQsNjUxKSBzY2FsZSg1LjMyMTY2NjY2NjY2NjcpIj48cmVjdCBoZWlnaHQ9IjYiIHdpZHRoPSI2Ii8+PC9nPiYjeGE7PGcgdHJhbnNmb3JtPSJ0cmFuc2xhdGUoNTI3LDY1MSkgc2NhbGUoNS4zMjE2NjY2NjY2NjY3KSI+PHJlY3QgaGVpZ2h0PSI2IiB3aWR0aD0iNiIvPjwvZz4mI3hhOzxnIHRyYW5zZm9ybT0idHJhbnNsYXRlKDU1OCw2NTEpIHNjYWxlKDUuMzIxNjY2NjY2NjY2NykiPjxyZWN0IGhlaWdodD0iNiIgd2lkdGg9IjYiLz48L2c+JiN4YTs8ZyB0cmFuc2Zvcm09InRyYW5zbGF0ZSg1ODksNjUxKSBzY2FsZSg1LjMyMTY2NjY2NjY2NjcpIj48cmVjdCBoZWlnaHQ9IjYiIHdpZHRoPSI2Ii8+PC9nPiYjeGE7PGcgdHJhbnNmb3JtPSJ0cmFuc2xhdGUoNjIwLDY1MSkgc2NhbGUoNS4zMjE2NjY2NjY2NjY3KSI+PHJlY3QgaGVpZ2h0PSI2IiB3aWR0aD0iNiIvPjwvZz4mI3hhOzxnIHRyYW5zZm9ybT0idHJhbnNsYXRlKDY1MSw2NTEpIHNjYWxlKDUuMzIxNjY2NjY2NjY2NykiPjxyZWN0IGhlaWdodD0iNiIgd2lkdGg9IjYiLz48L2c+JiN4YTs8ZyB0cmFuc2Zvcm09InRyYW5zbGF0ZSg3NDQsNjUxKSBzY2FsZSg1LjMyMTY2NjY2NjY2NjcpIj48cmVjdCBoZWlnaHQ9IjYiIHdpZHRoPSI2Ii8+PC9nPiYjeGE7PGcgdHJhbnNmb3JtPSJ0cmFuc2xhdGUoNzc1LDY1MSkgc2NhbGUoNS4zMjE2NjY2NjY2NjY3KSI+PHJlY3QgaGVpZ2h0PSI2IiB3aWR0aD0iNiIvPjwvZz4mI3hhOzxnIHRyYW5zZm9ybT0idHJhbnNsYXRlKDgzNyw2NTEpIHNjYWxlKDUuMzIxNjY2NjY2NjY2NykiPjxyZWN0IGhlaWdodD0iNiIgd2lkdGg9IjYiLz48L2c+JiN4YTs8ZyB0cmFuc2Zvcm09InRyYW5zbGF0ZSg5MzAsNjUxKSBzY2FsZSg1LjMyMTY2NjY2NjY2NjcpIj48cmVjdCBoZWlnaHQ9IjYiIHdpZHRoPSI2Ii8+PC9nPiYjeGE7PGcgdHJhbnNmb3JtPSJ0cmFuc2xhdGUoNjIsNjgyKSBzY2FsZSg1LjMyMTY2NjY2NjY2NjcpIj48cmVjdCBoZWlnaHQ9IjYiIHdpZHRoPSI2Ii8+PC9nPiYjeGE7PGcgdHJhbnNmb3JtPSJ0cmFuc2xhdGUoMTI0LDY4Mikgc2NhbGUoNS4zMjE2NjY2NjY2NjY3KSI+PHJlY3QgaGVpZ2h0PSI2IiB3aWR0aD0iNiIvPjwvZz4mI3hhOzxnIHRyYW5zZm9ybT0idHJhbnNsYXRlKDE1NSw2ODIpIHNjYWxlKDUuMzIxNjY2NjY2NjY2NykiPjxyZWN0IGhlaWdodD0iNiIgd2lkdGg9IjYiLz48L2c+JiN4YTs8ZyB0cmFuc2Zvcm09InRyYW5zbGF0ZSgxODYsNjgyKSBzY2FsZSg1LjMyMTY2NjY2NjY2NjcpIj48cmVjdCBoZWlnaHQ9IjYiIHdpZHRoPSI2Ii8+PC9nPiYjeGE7PGcgdHJhbnNmb3JtPSJ0cmFuc2xhdGUoMjE3LDY4Mikgc2NhbGUoNS4zMjE2NjY2NjY2NjY3KSI+PHJlY3QgaGVpZ2h0PSI2IiB3aWR0aD0iNiIvPjwvZz4mI3hhOzxnIHRyYW5zZm9ybT0idHJhbnNsYXRlKDI0OCw2ODIpIHNjYWxlKDUuMzIxNjY2NjY2NjY2NykiPjxyZWN0IGhlaWdodD0iNiIgd2lkdGg9IjYiLz48L2c+JiN4YTs8ZyB0cmFuc2Zvcm09InRyYW5zbGF0ZSgyNzksNjgyKSBzY2FsZSg1LjMyMTY2NjY2NjY2NjcpIj48cmVjdCBoZWlnaHQ9IjYiIHdpZHRoPSI2Ii8+PC9nPiYjeGE7PGcgdHJhbnNmb3JtPSJ0cmFuc2xhdGUoMzcyLDY4Mikgc2NhbGUoNS4zMjE2NjY2NjY2NjY3KSI+PHJlY3QgaGVpZ2h0PSI2IiB3aWR0aD0iNiIvPjwvZz4mI3hhOzxnIHRyYW5zZm9ybT0idHJhbnNsYXRlKDQzNCw2ODIpIHNjYWxlKDUuMzIxNjY2NjY2NjY2NykiPjxyZWN0IGhlaWdodD0iNiIgd2lkdGg9IjYiLz48L2c+JiN4YTs8ZyB0cmFuc2Zvcm09InRyYW5zbGF0ZSg0NjUsNjgyKSBzY2FsZSg1LjMyMTY2NjY2NjY2NjcpIj48cmVjdCBoZWlnaHQ9IjYiIHdpZHRoPSI2Ii8+PC9nPiYjeGE7PGcgdHJhbnNmb3JtPSJ0cmFuc2xhdGUoNTg5LDY4Mikgc2NhbGUoNS4zMjE2NjY2NjY2NjY3KSI+PHJlY3QgaGVpZ2h0PSI2IiB3aWR0aD0iNiIvPjwvZz4mI3hhOzxnIHRyYW5zZm9ybT0idHJhbnNsYXRlKDY1MSw2ODIpIHNjYWxlKDUuMzIxNjY2NjY2NjY2NykiPjxyZWN0IGhlaWdodD0iNiIgd2lkdGg9IjYiLz48L2c+JiN4YTs8ZyB0cmFuc2Zvcm09InRyYW5zbGF0ZSg2ODIsNjgyKSBzY2FsZSg1LjMyMTY2NjY2NjY2NjcpIj48cmVjdCBoZWlnaHQ9IjYiIHdpZHRoPSI2Ii8+PC9nPiYjeGE7PGcgdHJhbnNmb3JtPSJ0cmFuc2xhdGUoNzEzLDY4Mikgc2NhbGUoNS4zMjE2NjY2NjY2NjY3KSI+PHJlY3QgaGVpZ2h0PSI2IiB3aWR0aD0iNiIvPjwvZz4mI3hhOzxnIHRyYW5zZm9ybT0idHJhbnNsYXRlKDc0NCw2ODIpIHNjYWxlKDUuMzIxNjY2NjY2NjY2NykiPjxyZWN0IGhlaWdodD0iNiIgd2lkdGg9IjYiLz48L2c+JiN4YTs8ZyB0cmFuc2Zvcm09InRyYW5zbGF0ZSg3NzUsNjgyKSBzY2FsZSg1LjMyMTY2NjY2NjY2NjcpIj48cmVjdCBoZWlnaHQ9IjYiIHdpZHRoPSI2Ii8+PC9nPiYjeGE7PGcgdHJhbnNmb3JtPSJ0cmFuc2xhdGUoODA2LDY4Mikgc2NhbGUoNS4zMjE2NjY2NjY2NjY3KSI+PHJlY3QgaGVpZ2h0PSI2IiB3aWR0aD0iNiIvPjwvZz4mI3hhOzxnIHRyYW5zZm9ybT0idHJhbnNsYXRlKDgzNyw2ODIpIHNjYWxlKDUuMzIxNjY2NjY2NjY2NykiPjxyZWN0IGhlaWdodD0iNiIgd2lkdGg9IjYiLz48L2c+JiN4YTs8ZyB0cmFuc2Zvcm09InRyYW5zbGF0ZSg4NjgsNjgyKSBzY2FsZSg1LjMyMTY2NjY2NjY2NjcpIj48cmVjdCBoZWlnaHQ9IjYiIHdpZHRoPSI2Ii8+PC9nPiYjeGE7PGcgdHJhbnNmb3JtPSJ0cmFuc2xhdGUoMzEwLDcxMykgc2NhbGUoNS4zMjE2NjY2NjY2NjY3KSI+PHJlY3QgaGVpZ2h0PSI2IiB3aWR0aD0iNiIvPjwvZz4mI3hhOzxnIHRyYW5zZm9ybT0idHJhbnNsYXRlKDQwMyw3MTMpIHNjYWxlKDUuMzIxNjY2NjY2NjY2NykiPjxyZWN0IGhlaWdodD0iNiIgd2lkdGg9IjYiLz48L2c+JiN4YTs8ZyB0cmFuc2Zvcm09InRyYW5zbGF0ZSg0NjUsNzEzKSBzY2FsZSg1LjMyMTY2NjY2NjY2NjcpIj48cmVjdCBoZWlnaHQ9IjYiIHdpZHRoPSI2Ii8+PC9nPiYjeGE7PGcgdHJhbnNmb3JtPSJ0cmFuc2xhdGUoNjIwLDcxMykgc2NhbGUoNS4zMjE2NjY2NjY2NjY3KSI+PHJlY3QgaGVpZ2h0PSI2IiB3aWR0aD0iNiIvPjwvZz4mI3hhOzxnIHRyYW5zZm9ybT0idHJhbnNsYXRlKDY1MSw3MTMpIHNjYWxlKDUuMzIxNjY2NjY2NjY2NykiPjxyZWN0IGhlaWdodD0iNiIgd2lkdGg9IjYiLz48L2c+JiN4YTs8ZyB0cmFuc2Zvcm09InRyYW5zbGF0ZSg2ODIsNzEzKSBzY2FsZSg1LjMyMTY2NjY2NjY2NjcpIj48cmVjdCBoZWlnaHQ9IjYiIHdpZHRoPSI2Ii8+PC9nPiYjeGE7PGcgdHJhbnNmb3JtPSJ0cmFuc2xhdGUoODA2LDcxMykgc2NhbGUoNS4zMjE2NjY2NjY2NjY3KSI+PHJlY3QgaGVpZ2h0PSI2IiB3aWR0aD0iNiIvPjwvZz4mI3hhOzxnIHRyYW5zZm9ybT0idHJhbnNsYXRlKDgzNyw3MTMpIHNjYWxlKDUuMzIxNjY2NjY2NjY2NykiPjxyZWN0IGhlaWdodD0iNiIgd2lkdGg9IjYiLz48L2c+JiN4YTs8ZyB0cmFuc2Zvcm09InRyYW5zbGF0ZSg4OTksNzEzKSBzY2FsZSg1LjMyMTY2NjY2NjY2NjcpIj48cmVjdCBoZWlnaHQ9IjYiIHdpZHRoPSI2Ii8+PC9nPiYjeGE7PGcgdHJhbnNmb3JtPSJ0cmFuc2xhdGUoOTMwLDcxMykgc2NhbGUoNS4zMjE2NjY2NjY2NjY3KSI+PHJlY3QgaGVpZ2h0PSI2IiB3aWR0aD0iNiIvPjwvZz4mI3hhOzxnIHRyYW5zZm9ybT0idHJhbnNsYXRlKDM0MSw3NDQpIHNjYWxlKDUuMzIxNjY2NjY2NjY2NykiPjxyZWN0IGhlaWdodD0iNiIgd2lkdGg9IjYiLz48L2c+JiN4YTs8ZyB0cmFuc2Zvcm09InRyYW5zbGF0ZSg0MzQsNzQ0KSBzY2FsZSg1LjMyMTY2NjY2NjY2NjcpIj48cmVjdCBoZWlnaHQ9IjYiIHdpZHRoPSI2Ii8+PC9nPiYjeGE7PGcgdHJhbnNmb3JtPSJ0cmFuc2xhdGUoNDk2LDc0NCkgc2NhbGUoNS4zMjE2NjY2NjY2NjY3KSI+PHJlY3QgaGVpZ2h0PSI2IiB3aWR0aD0iNiIvPjwvZz4mI3hhOzxnIHRyYW5zZm9ybT0idHJhbnNsYXRlKDUyNyw3NDQpIHNjYWxlKDUuMzIxNjY2NjY2NjY2NykiPjxyZWN0IGhlaWdodD0iNiIgd2lkdGg9IjYiLz48L2c+JiN4YTs8ZyB0cmFuc2Zvcm09InRyYW5zbGF0ZSg1ODksNzQ0KSBzY2FsZSg1LjMyMTY2NjY2NjY2NjcpIj48cmVjdCBoZWlnaHQ9IjYiIHdpZHRoPSI2Ii8+PC9nPiYjeGE7PGcgdHJhbnNmb3JtPSJ0cmFuc2xhdGUoNjUxLDc0NCkgc2NhbGUoNS4zMjE2NjY2NjY2NjY3KSI+PHJlY3QgaGVpZ2h0PSI2IiB3aWR0aD0iNiIvPjwvZz4mI3hhOzxnIHRyYW5zZm9ybT0idHJhbnNsYXRlKDY4Miw3NDQpIHNjYWxlKDUuMzIxNjY2NjY2NjY2NykiPjxyZWN0IGhlaWdodD0iNiIgd2lkdGg9IjYiLz48L2c+JiN4YTs8ZyB0cmFuc2Zvcm09InRyYW5zbGF0ZSg3NDQsNzQ0KSBzY2FsZSg1LjMyMTY2NjY2NjY2NjcpIj48cmVjdCBoZWlnaHQ9IjYiIHdpZHRoPSI2Ii8+PC9nPiYjeGE7PGcgdHJhbnNmb3JtPSJ0cmFuc2xhdGUoODA2LDc0NCkgc2NhbGUoNS4zMjE2NjY2NjY2NjY3KSI+PHJlY3QgaGVpZ2h0PSI2IiB3aWR0aD0iNiIvPjwvZz4mI3hhOzxnIHRyYW5zZm9ybT0idHJhbnNsYXRlKDM3Miw3NzUpIHNjYWxlKDUuMzIxNjY2NjY2NjY2NykiPjxyZWN0IGhlaWdodD0iNiIgd2lkdGg9IjYiLz48L2c+JiN4YTs8ZyB0cmFuc2Zvcm09InRyYW5zbGF0ZSg0MDMsNzc1KSBzY2FsZSg1LjMyMTY2NjY2NjY2NjcpIj48cmVjdCBoZWlnaHQ9IjYiIHdpZHRoPSI2Ii8+PC9nPiYjeGE7PGcgdHJhbnNmb3JtPSJ0cmFuc2xhdGUoNDY1LDc3NSkgc2NhbGUoNS4zMjE2NjY2NjY2NjY3KSI+PHJlY3QgaGVpZ2h0PSI2IiB3aWR0aD0iNiIvPjwvZz4mI3hhOzxnIHRyYW5zZm9ybT0idHJhbnNsYXRlKDU1OCw3NzUpIHNjYWxlKDUuMzIxNjY2NjY2NjY2NykiPjxyZWN0IGhlaWdodD0iNiIgd2lkdGg9IjYiLz48L2c+JiN4YTs8ZyB0cmFuc2Zvcm09InRyYW5zbGF0ZSg1ODksNzc1KSBzY2FsZSg1LjMyMTY2NjY2NjY2NjcpIj48cmVjdCBoZWlnaHQ9IjYiIHdpZHRoPSI2Ii8+PC9nPiYjeGE7PGcgdHJhbnNmb3JtPSJ0cmFuc2xhdGUoNjIwLDc3NSkgc2NhbGUoNS4zMjE2NjY2NjY2NjY3KSI+PHJlY3QgaGVpZ2h0PSI2IiB3aWR0aD0iNiIvPjwvZz4mI3hhOzxnIHRyYW5zZm9ybT0idHJhbnNsYXRlKDY1MSw3NzUpIHNjYWxlKDUuMzIxNjY2NjY2NjY2NykiPjxyZWN0IGhlaWdodD0iNiIgd2lkdGg9IjYiLz48L2c+JiN4YTs8ZyB0cmFuc2Zvcm09InRyYW5zbGF0ZSg2ODIsNzc1KSBzY2FsZSg1LjMyMTY2NjY2NjY2NjcpIj48cmVjdCBoZWlnaHQ9IjYiIHdpZHRoPSI2Ii8+PC9nPiYjeGE7PGcgdHJhbnNmb3JtPSJ0cmFuc2xhdGUoODA2LDc3NSkgc2NhbGUoNS4zMjE2NjY2NjY2NjY3KSI+PHJlY3QgaGVpZ2h0PSI2IiB3aWR0aD0iNiIvPjwvZz4mI3hhOzxnIHRyYW5zZm9ybT0idHJhbnNsYXRlKDgzNyw3NzUpIHNjYWxlKDUuMzIxNjY2NjY2NjY2NykiPjxyZWN0IGhlaWdodD0iNiIgd2lkdGg9IjYiLz48L2c+JiN4YTs8ZyB0cmFuc2Zvcm09InRyYW5zbGF0ZSg5MzAsNzc1KSBzY2FsZSg1LjMyMTY2NjY2NjY2NjcpIj48cmVjdCBoZWlnaHQ9IjYiIHdpZHRoPSI2Ii8+PC9nPiYjeGE7PGcgdHJhbnNmb3JtPSJ0cmFuc2xhdGUoMzEwLDgwNikgc2NhbGUoNS4zMjE2NjY2NjY2NjY3KSI+PHJlY3QgaGVpZ2h0PSI2IiB3aWR0aD0iNiIvPjwvZz4mI3hhOzxnIHRyYW5zZm9ybT0idHJhbnNsYXRlKDQzNCw4MDYpIHNjYWxlKDUuMzIxNjY2NjY2NjY2NykiPjxyZWN0IGhlaWdodD0iNiIgd2lkdGg9IjYiLz48L2c+JiN4YTs8ZyB0cmFuc2Zvcm09InRyYW5zbGF0ZSg0NjUsODA2KSBzY2FsZSg1LjMyMTY2NjY2NjY2NjcpIj48cmVjdCBoZWlnaHQ9IjYiIHdpZHRoPSI2Ii8+PC9nPiYjeGE7PGcgdHJhbnNmb3JtPSJ0cmFuc2xhdGUoNTU4LDgwNikgc2NhbGUoNS4zMjE2NjY2NjY2NjY3KSI+PHJlY3QgaGVpZ2h0PSI2IiB3aWR0aD0iNiIvPjwvZz4mI3hhOzxnIHRyYW5zZm9ybT0idHJhbnNsYXRlKDU4OSw4MDYpIHNjYWxlKDUuMzIxNjY2NjY2NjY2NykiPjxyZWN0IGhlaWdodD0iNiIgd2lkdGg9IjYiLz48L2c+JiN4YTs8ZyB0cmFuc2Zvcm09InRyYW5zbGF0ZSg2MjAsODA2KSBzY2FsZSg1LjMyMTY2NjY2NjY2NjcpIj48cmVjdCBoZWlnaHQ9IjYiIHdpZHRoPSI2Ii8+PC9nPiYjeGE7PGcgdHJhbnNmb3JtPSJ0cmFuc2xhdGUoNjgyLDgwNikgc2NhbGUoNS4zMjE2NjY2NjY2NjY3KSI+PHJlY3QgaGVpZ2h0PSI2IiB3aWR0aD0iNiIvPjwvZz4mI3hhOzxnIHRyYW5zZm9ybT0idHJhbnNsYXRlKDcxMyw4MDYpIHNjYWxlKDUuMzIxNjY2NjY2NjY2NykiPjxyZWN0IGhlaWdodD0iNiIgd2lkdGg9IjYiLz48L2c+JiN4YTs8ZyB0cmFuc2Zvcm09InRyYW5zbGF0ZSg3NDQsODA2KSBzY2FsZSg1LjMyMTY2NjY2NjY2NjcpIj48cmVjdCBoZWlnaHQ9IjYiIHdpZHRoPSI2Ii8+PC9nPiYjeGE7PGcgdHJhbnNmb3JtPSJ0cmFuc2xhdGUoNzc1LDgwNikgc2NhbGUoNS4zMjE2NjY2NjY2NjY3KSI+PHJlY3QgaGVpZ2h0PSI2IiB3aWR0aD0iNiIvPjwvZz4mI3hhOzxnIHRyYW5zZm9ybT0idHJhbnNsYXRlKDgwNiw4MDYpIHNjYWxlKDUuMzIxNjY2NjY2NjY2NykiPjxyZWN0IGhlaWdodD0iNiIgd2lkdGg9IjYiLz48L2c+JiN4YTs8ZyB0cmFuc2Zvcm09InRyYW5zbGF0ZSg4MzcsODA2KSBzY2FsZSg1LjMyMTY2NjY2NjY2NjcpIj48cmVjdCBoZWlnaHQ9IjYiIHdpZHRoPSI2Ii8+PC9nPiYjeGE7PGcgdHJhbnNmb3JtPSJ0cmFuc2xhdGUoODY4LDgwNikgc2NhbGUoNS4zMjE2NjY2NjY2NjY3KSI+PHJlY3QgaGVpZ2h0PSI2IiB3aWR0aD0iNiIvPjwvZz4mI3hhOzxnIHRyYW5zZm9ybT0idHJhbnNsYXRlKDg5OSw4MDYpIHNjYWxlKDUuMzIxNjY2NjY2NjY2NykiPjxyZWN0IGhlaWdodD0iNiIgd2lkdGg9IjYiLz48L2c+JiN4YTs8ZyB0cmFuc2Zvcm09InRyYW5zbGF0ZSgzMTAsODM3KSBzY2FsZSg1LjMyMTY2NjY2NjY2NjcpIj48cmVjdCBoZWlnaHQ9IjYiIHdpZHRoPSI2Ii8+PC9nPiYjeGE7PGcgdHJhbnNmb3JtPSJ0cmFuc2xhdGUoNDAzLDgzNykgc2NhbGUoNS4zMjE2NjY2NjY2NjY3KSI+PHJlY3QgaGVpZ2h0PSI2IiB3aWR0aD0iNiIvPjwvZz4mI3hhOzxnIHRyYW5zZm9ybT0idHJhbnNsYXRlKDQzNCw4MzcpIHNjYWxlKDUuMzIxNjY2NjY2NjY2NykiPjxyZWN0IGhlaWdodD0iNiIgd2lkdGg9IjYiLz48L2c+JiN4YTs8ZyB0cmFuc2Zvcm09InRyYW5zbGF0ZSg2NTEsODM3KSBzY2FsZSg1LjMyMTY2NjY2NjY2NjcpIj48cmVjdCBoZWlnaHQ9IjYiIHdpZHRoPSI2Ii8+PC9nPiYjeGE7PGcgdHJhbnNmb3JtPSJ0cmFuc2xhdGUoNjgyLDgzNykgc2NhbGUoNS4zMjE2NjY2NjY2NjY3KSI+PHJlY3QgaGVpZ2h0PSI2IiB3aWR0aD0iNiIvPjwvZz4mI3hhOzxnIHRyYW5zZm9ybT0idHJhbnNsYXRlKDcxMyw4MzcpIHNjYWxlKDUuMzIxNjY2NjY2NjY2NykiPjxyZWN0IGhlaWdodD0iNiIgd2lkdGg9IjYiLz48L2c+JiN4YTs8ZyB0cmFuc2Zvcm09InRyYW5zbGF0ZSg3NzUsODM3KSBzY2FsZSg1LjMyMTY2NjY2NjY2NjcpIj48cmVjdCBoZWlnaHQ9IjYiIHdpZHRoPSI2Ii8+PC9nPiYjeGE7PGcgdHJhbnNmb3JtPSJ0cmFuc2xhdGUoMzEwLDg2OCkgc2NhbGUoNS4zMjE2NjY2NjY2NjY3KSI+PHJlY3QgaGVpZ2h0PSI2IiB3aWR0aD0iNiIvPjwvZz4mI3hhOzxnIHRyYW5zZm9ybT0idHJhbnNsYXRlKDM0MSw4NjgpIHNjYWxlKDUuMzIxNjY2NjY2NjY2NykiPjxyZWN0IGhlaWdodD0iNiIgd2lkdGg9IjYiLz48L2c+JiN4YTs8ZyB0cmFuc2Zvcm09InRyYW5zbGF0ZSgzNzIsODY4KSBzY2FsZSg1LjMyMTY2NjY2NjY2NjcpIj48cmVjdCBoZWlnaHQ9IjYiIHdpZHRoPSI2Ii8+PC9nPiYjeGE7PGcgdHJhbnNmb3JtPSJ0cmFuc2xhdGUoNDAzLDg2OCkgc2NhbGUoNS4zMjE2NjY2NjY2NjY3KSI+PHJlY3QgaGVpZ2h0PSI2IiB3aWR0aD0iNiIvPjwvZz4mI3hhOzxnIHRyYW5zZm9ybT0idHJhbnNsYXRlKDQ2NSw4NjgpIHNjYWxlKDUuMzIxNjY2NjY2NjY2NykiPjxyZWN0IGhlaWdodD0iNiIgd2lkdGg9IjYiLz48L2c+JiN4YTs8ZyB0cmFuc2Zvcm09InRyYW5zbGF0ZSg2MjAsODY4KSBzY2FsZSg1LjMyMTY2NjY2NjY2NjcpIj48cmVjdCBoZWlnaHQ9IjYiIHdpZHRoPSI2Ii8+PC9nPiYjeGE7PGcgdHJhbnNmb3JtPSJ0cmFuc2xhdGUoNjUxLDg2OCkgc2NhbGUoNS4zMjE2NjY2NjY2NjY3KSI+PHJlY3QgaGVpZ2h0PSI2IiB3aWR0aD0iNiIvPjwvZz4mI3hhOzxnIHRyYW5zZm9ybT0idHJhbnNsYXRlKDY4Miw4NjgpIHNjYWxlKDUuMzIxNjY2NjY2NjY2NykiPjxyZWN0IGhlaWdodD0iNiIgd2lkdGg9IjYiLz48L2c+JiN4YTs8ZyB0cmFuc2Zvcm09InRyYW5zbGF0ZSg3MTMsODY4KSBzY2FsZSg1LjMyMTY2NjY2NjY2NjcpIj48cmVjdCBoZWlnaHQ9IjYiIHdpZHRoPSI2Ii8+PC9nPiYjeGE7PGcgdHJhbnNmb3JtPSJ0cmFuc2xhdGUoNzQ0LDg2OCkgc2NhbGUoNS4zMjE2NjY2NjY2NjY3KSI+PHJlY3QgaGVpZ2h0PSI2IiB3aWR0aD0iNiIvPjwvZz4mI3hhOzxnIHRyYW5zZm9ybT0idHJhbnNsYXRlKDc3NSw4NjgpIHNjYWxlKDUuMzIxNjY2NjY2NjY2NykiPjxyZWN0IGhlaWdodD0iNiIgd2lkdGg9IjYiLz48L2c+JiN4YTs8ZyB0cmFuc2Zvcm09InRyYW5zbGF0ZSg4MDYsODY4KSBzY2FsZSg1LjMyMTY2NjY2NjY2NjcpIj48cmVjdCBoZWlnaHQ9IjYiIHdpZHRoPSI2Ii8+PC9nPiYjeGE7PGcgdHJhbnNmb3JtPSJ0cmFuc2xhdGUoODM3LDg2OCkgc2NhbGUoNS4zMjE2NjY2NjY2NjY3KSI+PHJlY3QgaGVpZ2h0PSI2IiB3aWR0aD0iNiIvPjwvZz4mI3hhOzxnIHRyYW5zZm9ybT0idHJhbnNsYXRlKDg2OCw4NjgpIHNjYWxlKDUuMzIxNjY2NjY2NjY2NykiPjxyZWN0IGhlaWdodD0iNiIgd2lkdGg9IjYiLz48L2c+JiN4YTs8ZyB0cmFuc2Zvcm09InRyYW5zbGF0ZSg4OTksODY4KSBzY2FsZSg1LjMyMTY2NjY2NjY2NjcpIj48cmVjdCBoZWlnaHQ9IjYiIHdpZHRoPSI2Ii8+PC9nPiYjeGE7PGcgdHJhbnNmb3JtPSJ0cmFuc2xhdGUoMzcyLDg5OSkgc2NhbGUoNS4zMjE2NjY2NjY2NjY3KSI+PHJlY3QgaGVpZ2h0PSI2IiB3aWR0aD0iNiIvPjwvZz4mI3hhOzxnIHRyYW5zZm9ybT0idHJhbnNsYXRlKDQwMyw4OTkpIHNjYWxlKDUuMzIxNjY2NjY2NjY2NykiPjxyZWN0IGhlaWdodD0iNiIgd2lkdGg9IjYiLz48L2c+JiN4YTs8ZyB0cmFuc2Zvcm09InRyYW5zbGF0ZSg0MzQsODk5KSBzY2FsZSg1LjMyMTY2NjY2NjY2NjcpIj48cmVjdCBoZWlnaHQ9IjYiIHdpZHRoPSI2Ii8+PC9nPiYjeGE7PGcgdHJhbnNmb3JtPSJ0cmFuc2xhdGUoNDk2LDg5OSkgc2NhbGUoNS4zMjE2NjY2NjY2NjY3KSI+PHJlY3QgaGVpZ2h0PSI2IiB3aWR0aD0iNiIvPjwvZz4mI3hhOzxnIHRyYW5zZm9ybT0idHJhbnNsYXRlKDUyNyw4OTkpIHNjYWxlKDUuMzIxNjY2NjY2NjY2NykiPjxyZWN0IGhlaWdodD0iNiIgd2lkdGg9IjYiLz48L2c+JiN4YTs8ZyB0cmFuc2Zvcm09InRyYW5zbGF0ZSg1NTgsODk5KSBzY2FsZSg1LjMyMTY2NjY2NjY2NjcpIj48cmVjdCBoZWlnaHQ9IjYiIHdpZHRoPSI2Ii8+PC9nPiYjeGE7PGcgdHJhbnNmb3JtPSJ0cmFuc2xhdGUoNTg5LDg5OSkgc2NhbGUoNS4zMjE2NjY2NjY2NjY3KSI+PHJlY3QgaGVpZ2h0PSI2IiB3aWR0aD0iNiIvPjwvZz4mI3hhOzxnIHRyYW5zZm9ybT0idHJhbnNsYXRlKDYyMCw4OTkpIHNjYWxlKDUuMzIxNjY2NjY2NjY2NykiPjxyZWN0IGhlaWdodD0iNiIgd2lkdGg9IjYiLz48L2c+JiN4YTs8ZyB0cmFuc2Zvcm09InRyYW5zbGF0ZSg2ODIsODk5KSBzY2FsZSg1LjMyMTY2NjY2NjY2NjcpIj48cmVjdCBoZWlnaHQ9IjYiIHdpZHRoPSI2Ii8+PC9nPiYjeGE7PGcgdHJhbnNmb3JtPSJ0cmFuc2xhdGUoNzQ0LDg5OSkgc2NhbGUoNS4zMjE2NjY2NjY2NjY3KSI+PHJlY3QgaGVpZ2h0PSI2IiB3aWR0aD0iNiIvPjwvZz4mI3hhOzxnIHRyYW5zZm9ybT0idHJhbnNsYXRlKDgwNiw4OTkpIHNjYWxlKDUuMzIxNjY2NjY2NjY2NykiPjxyZWN0IGhlaWdodD0iNiIgd2lkdGg9IjYiLz48L2c+JiN4YTs8ZyB0cmFuc2Zvcm09InRyYW5zbGF0ZSg4OTksODk5KSBzY2FsZSg1LjMyMTY2NjY2NjY2NjcpIj48cmVjdCBoZWlnaHQ9IjYiIHdpZHRoPSI2Ii8+PC9nPiYjeGE7PGcgdHJhbnNmb3JtPSJ0cmFuc2xhdGUoMzQxLDkzMCkgc2NhbGUoNS4zMjE2NjY2NjY2NjY3KSI+PHJlY3QgaGVpZ2h0PSI2IiB3aWR0aD0iNiIvPjwvZz4mI3hhOzxnIHRyYW5zZm9ybT0idHJhbnNsYXRlKDM3Miw5MzApIHNjYWxlKDUuMzIxNjY2NjY2NjY2NykiPjxyZWN0IGhlaWdodD0iNiIgd2lkdGg9IjYiLz48L2c+JiN4YTs8ZyB0cmFuc2Zvcm09InRyYW5zbGF0ZSg0NjUsOTMwKSBzY2FsZSg1LjMyMTY2NjY2NjY2NjcpIj48cmVjdCBoZWlnaHQ9IjYiIHdpZHRoPSI2Ii8+PC9nPiYjeGE7PGcgdHJhbnNmb3JtPSJ0cmFuc2xhdGUoNDk2LDkzMCkgc2NhbGUoNS4zMjE2NjY2NjY2NjY3KSI+PHJlY3QgaGVpZ2h0PSI2IiB3aWR0aD0iNiIvPjwvZz4mI3hhOzxnIHRyYW5zZm9ybT0idHJhbnNsYXRlKDUyNyw5MzApIHNjYWxlKDUuMzIxNjY2NjY2NjY2NykiPjxyZWN0IGhlaWdodD0iNiIgd2lkdGg9IjYiLz48L2c+JiN4YTs8ZyB0cmFuc2Zvcm09InRyYW5zbGF0ZSg2MjAsOTMwKSBzY2FsZSg1LjMyMTY2NjY2NjY2NjcpIj48cmVjdCBoZWlnaHQ9IjYiIHdpZHRoPSI2Ii8+PC9nPiYjeGE7PGcgdHJhbnNmb3JtPSJ0cmFuc2xhdGUoNjUxLDkzMCkgc2NhbGUoNS4zMjE2NjY2NjY2NjY3KSI+PHJlY3QgaGVpZ2h0PSI2IiB3aWR0aD0iNiIvPjwvZz4mI3hhOzxnIHRyYW5zZm9ybT0idHJhbnNsYXRlKDc0NCw5MzApIHNjYWxlKDUuMzIxNjY2NjY2NjY2NykiPjxyZWN0IGhlaWdodD0iNiIgd2lkdGg9IjYiLz48L2c+JiN4YTs8ZyB0cmFuc2Zvcm09InRyYW5zbGF0ZSg4MDYsOTMwKSBzY2FsZSg1LjMyMTY2NjY2NjY2NjcpIj48cmVjdCBoZWlnaHQ9IjYiIHdpZHRoPSI2Ii8+PC9nPiYjeGE7PGcgdHJhbnNmb3JtPSJ0cmFuc2xhdGUoODY4LDkzMCkgc2NhbGUoNS4zMjE2NjY2NjY2NjY3KSI+PHJlY3QgaGVpZ2h0PSI2IiB3aWR0aD0iNiIvPjwvZz4mI3hhOzwvZz48L2c+PC9tYXNrPjwvZGVmcz4mI3hhOzxyZWN0IHk9IjAiIHg9IjAiIGZpbGw9IiNmZmZmZmYiIGhlaWdodD0iMTAyMyIgd2lkdGg9IjEwMjMiLz4mI3hhOzxyZWN0IGZpbGw9IiMwMDAwMDAiIG1hc2s9InVybCgjcXJtYXNrKSIgaGVpZ2h0PSIxMDIzIiB3aWR0aD0iMTAyMyIgeT0iMCIgeD0iMCIvPiYjeGE7PGc+PGcgZmlsbD0iIzAwMDAwMCIgdHJhbnNmb3JtPSJ0cmFuc2xhdGUoNjIsNjIpIj48ZyB0cmFuc2Zvcm09InNjYWxlKDE1LjUpIj48cGF0aCBkPSJNMCwwdjE0aDE0VjBIMHogTTEyLDEySDJWMmgxMFYxMnoiLz48L2c+PC9nPiYjeGE7PGcgZmlsbD0iIzAwMDAwMCIgdHJhbnNmb3JtPSJ0cmFuc2xhdGUoMTI0LDEyNCkiPjxnIHRyYW5zZm9ybT0ic2NhbGUoMTUuNSkiPjxyZWN0IGhlaWdodD0iNiIgd2lkdGg9IjYiLz48L2c+PC9nPiYjeGE7PGcgZmlsbD0iIzAwMDAwMCIgdHJhbnNmb3JtPSJ0cmFuc2xhdGUoNzQ0LDYyKSI+PGcgdHJhbnNmb3JtPSJzY2FsZSgxNS41KSI+PHBhdGggZD0iTTAsMHYxNGgxNFYwSDB6IE0xMiwxMkgyVjJoMTBWMTJ6Ii8+PC9nPjwvZz4mI3hhOzxnIGZpbGw9IiMwMDAwMDAiIHRyYW5zZm9ybT0idHJhbnNsYXRlKDgwNiwxMjQpIj48ZyB0cmFuc2Zvcm09InNjYWxlKDE1LjUpIj48cmVjdCBoZWlnaHQ9IjYiIHdpZHRoPSI2Ii8+PC9nPjwvZz4mI3hhOzxnIGZpbGw9IiMwMDAwMDAiIHRyYW5zZm9ybT0idHJhbnNsYXRlKDYyLDc0NCkiPjxnIHRyYW5zZm9ybT0ic2NhbGUoMTUuNSkiPjxwYXRoIGQ9Ik0wLDB2MTRoMTRWMEgweiBNMTIsMTJIMlYyaDEwVjEyeiIvPjwvZz48L2c+JiN4YTs8ZyBmaWxsPSIjMDAwMDAwIiB0cmFuc2Zvcm09InRyYW5zbGF0ZSgxMjQsODA2KSI+PGcgdHJhbnNmb3JtPSJzY2FsZSgxNS41KSI+PHJlY3QgaGVpZ2h0PSI2IiB3aWR0aD0iNiIvPjwvZz48L2c+PC9nPiYjeGE7PC9zdmc+;imageWidth=80;imageHeight=80;" vertex="1" parent="5SMbFwftjrHj00-97PuI-2">
          <mxGeometry x="170" y="560" width="30" height="50" as="geometry" />
        </mxCell>
        <UserObject label="" link="https://educacion.rionegro.gov.ar/files/calendario/calendario-2022%20%281%29.pdf?_t=1656689775" id="5SMbFwftjrHj00-97PuI-34">
          <mxCell style="text;html=1;strokeColor=none;fillColor=none;whiteSpace=wrap;align=center;verticalAlign=middle;fontColor=#0000EE;fontStyle=4;fillStyle=auto;strokeWidth=3;image=data:image/png,/9j/4AAQSkZJRgABAQAAAQABAAD/4QAYRXhpZgAASUkqAAgAAAAAAAAAAAAAAP/hAytodHRwOi8vbnMuYWRvYmUuY29tL3hhcC8xLjAvADw/eHBhY2tldCBiZWdpbj0i77u/IiBpZD0iVzVNME1wQ2VoaUh6cmVTek5UY3prYzlkIj8+IDx4OnhtcG1ldGEgeG1sbnM6eD0iYWRvYmU6bnM6bWV0YS8iIHg6eG1wdGs9IkFkb2JlIFhNUCBDb3JlIDUuMy1jMDExIDY2LjE0NTY2MSwgMjAxMi8wMi8wNi0xNDo1NjoyNyAgICAgICAgIj4gPHJkZjpSREYgeG1sbnM6cmRmPSJodHRwOi8vd3d3LnczLm9yZy8xOTk5LzAyLzIyLXJkZi1zeW50YXgtbnMjIj4gPHJkZjpEZXNjcmlwdGlvbiByZGY6YWJvdXQ9IiIgeG1sbnM6eG1wPSJodHRwOi8vbnMuYWRvYmUuY29tL3hhcC8xLjAvIiB4bWxuczp4bXBNTT0iaHR0cDovL25zLmFkb2JlLmNvbS94YXAvMS4wL21tLyIgeG1sbnM6c3RSZWY9Imh0dHA6Ly9ucy5hZG9iZS5jb20veGFwLzEuMC9zVHlwZS9SZXNvdXJjZVJlZiMiIHhtcDpDcmVhdG9yVG9vbD0iQWRvYmUgUGhvdG9zaG9wIENTNiAoV2luZG93cykiIHhtcE1NOkluc3RhbmNlSUQ9InhtcC5paWQ6Nzg4QTJBMjVEMDI1MTFFN0EwQUVDODc5QjYyQkFCMUQiIHhtcE1NOkRvY3VtZW50SUQ9InhtcC5kaWQ6Nzg4QTJBMjZEMDI1MTFFN0EwQUVDODc5QjYyQkFCMUQiPiA8eG1wTU06RGVyaXZlZEZyb20gc3RSZWY6aW5zdGFuY2VJRD0ieG1wLmlpZDo3ODhBMkEyM0QwMjUxMUU3QTBBRUM4NzlCNjJCQUIxRCIgc3RSZWY6ZG9jdW1lbnRJRD0ieG1wLmRpZDo3ODhBMkEyNEQwMjUxMUU3QTBBRUM4NzlCNjJCQUIxRCIvPiA8L3JkZjpEZXNjcmlwdGlvbj4gPC9yZGY6UkRGPiA8L3g6eG1wbWV0YT4gPD94cGFja2V0IGVuZD0iciI/Pv/bAEMAAwICAgICAwICAgMDAwMEBgQEBAQECAYGBQYJCAoKCQgJCQoMDwwKCw4LCQkNEQ0ODxAQERAKDBITEhATDxAQEP/bAEMBAwMDBAMECAQECBALCQsQEBAQEBAQEBAQEBAQEBAQEBAQEBAQEBAQEBAQEBAQEBAQEBAQEBAQEBAQEBAQEBAQEP/AABEIA4QDhAMBEQACEQEDEQH/xAAdAAEBAQEBAQADAQAAAAAAAAAABQYJCAcCAwQB/8QAYxAAAQAECQUGEAgLBwMEAQUAAAECAwUEBgcRFWSCouEIEhNEwQkhUVeRsxQYGTE1NzhBVmFjcnWUldIXM1NxgZKx0RYiIzI2Q2J0k7LTQlJVc3ahwzS04yUnRYQkJmWDo/H/xAAcAQEAAgIDAQAAAAAAAAAAAAAABQcEBgEDCAL/xABBEQEAAQICABIIBgMBAAMBAAAAAQIDBAUGBxESExUxMjNRUlNxcpGxwdEUFhchNDVBoUJhgYKS4SJioiMkQ/Al/9oADAMBAAIRAxEAPwDqmAAkP7V7WwCQAA1wACQ/tXtbAJAADXAAJD+1e1sAkAANcAAkP7V7WwCQAA1wACQ/tXtbAJAADXAAJD+1e1sAkAANcAAkP7V7WwCQAA1wACQ/tXtbAJAADXAAJD+1e1sAkAANcAAkP7V7WwCQAA1wACQ/tXtbAJAADXAAJD+1e1sAkAANcAAkP7V7WwCQAA1wACQ/tXtbAJAADXAAJD+1e1sAkAANcAAkP7V7WwCQAA1wACQ/tXtbAJAADXAAJD+1e1sAkAANcAAkP7V7WwCQAA1wACQ/tXtbAJAADXAAJD+1e1sAkAANcAAkP7V7WwCQAA1wAAAAASH9q9rYBIAAa4ABIf2r2tgEgABrgAEh/ava2ASAAGuAASH9q9rYBIAAa4ABIf2r2tgEgABrgAEh/ava2ASAAGuAASH9q9rYBIAAa4ABIf2r2tgEgABrgAEh/ava2ASAAGuAASH9q9rYBIAAa4ABIf2r2tgEgABrgAEh/ava2ASAAGuAASH9q9rYBIAAa4ABIf2r2tgEgABrgAEh/ava2ASAAGuAASH9q9rYBIAAa4ABIf2r2tgEgABrgAEh/ava2ASAAGuAASH9q9rYBIAAa4ABIf2r2tgEgABrgAEh/ava2ASAAGuAASH9q9rYBIAAa4AAAkU9U7+ACnqnfwAdm/I6G1nT8nAAoGuXMQFA1y5iAp6p38AFPVO/gA7N+R0NrOn5OABQNcuYgKBrlzEBT1Tv4AKeqd/AB2b8jobWdPycACga5cxAUDXLmICnqnfwAU9U7+ADs35HQ2s6fk4AFA1y5iAoGuXMQFPVO/gAp6p38AHZvyOhtZ0/JwAf4lxIRvphtzEDz7LdlhSIyKtWzpbxiXjE/WU6Eu51KqtEs1uBo0zs1T5p0p8Ri3cXbte7dls+U6E8wzWIrinWUcdXhG7LybHrdQZZX41aMokRdckXIMlKUKLLs0wttN40rTKz2TArzC5O9jUb1hNAGAtRq4iqqueyHy2F5dOVNC2yWqZVIWxnTPmMYJB1VUfRmHT6Ze5SYp0I5PTGpsMds+am5t0AymXa1Zrw+OEFfDNRO+zh0AZJQsjgnUQqnvH1Tjb0fV0X9BeUXo1ItzT0TPjqvvclu6XuOHwhk75W4pNXYhdKFUvB1TtmavjWZLJQshHzJT8xlW8xifdchq+Y6X1yiJqwNzV/Kr3fd7UiFGmI8p7jZxjiHHGBPiANEI/KQdM6VE/3V1Z51U+JKEEhRcpuRq0y0DGYHEYC5sWJommfzaWnqnfwPtiFPVO/gA7N+R0NrOn5OABQNcuYgKBrlzEBT1Tv4AKeqd/AB2b8jobWdPycACga5cxAUDXLmICnqnfwAU9U7+ADs35HQ2s6fk4AFA1y5iAoGuXMQFPVO/gAp6p38AHZvyOhtZ0/JwAKBrlzEBQNcuYgKeqd/ABT1Tv4AOzfkdDazp+TgAUDXLmICga5cxAU9U7+ACnqnfwAdm/I6G1nT8nAAoGuXMQFA1y5iAp6p38AFPVO/gA7N+R0NrOn5OABQNcuYgKBrlzEBT1Tv4AKeqd/AB2b8jobWdPycACga5cxAUDXLmICnqnfwAU9U7+ADs35HQ2s6fk4AFA1y5iAoGuXMQFPVO/gAp6p38AHZvyOhtZ0/JwAKBrlzEBQNcuYgKeqd/ABT1Tv4AOzfkdDazp+TgAUDXLmIH4NnOxg7Jdu3eKrNmzVSsuuuiZVVCOulKUp3kBzETM6kPNUsO6JyPSatm7ni8waRsfDGdVLOANUIgzNdHeWbJRMmzOYd3G27fuj3y2/KtBeYZhEXLv/AJ0Tx7vZ5vKMdN00l8jA1XVivA3HFuDJSnNQxg3RDVCPGu0nRP8AMgwa8fdnc9zdsLoDy2zH/tNVc9OpH2fNoZluZT8Oaoat5VYdvJnQqrBmCqqPoQp4jq9MvcpKRoSyeI1NgjtnzaCLO6BZRbhbKLPF+O59sVU/jM4bAlEJWtM81KD7px16ndnVYeI0EZTej/CmaZ/KfPVekZJd0iiBGNuxdcqrjhMWYQ0ShXo6CITCYIhPCsidC6iPoSZlrMKavdXGo1PMtAGJsRNeCr18cU+6fJ7Mi7KHF+NrpYP2LMMgjzd8JVzmUIgsIQ0UWR86EdfxGfTVFUatLQ7+Hu4WubV6maao+kqVPVO/gcuk7N+R0NrOn5OABQNcuYgKBrlzEBT1Tv4AKeqd/AB2b8jobWdPycACga5cxAUDXLmICnqnfwAU9U7+ADs35HQ2s6fk4AFA1y5iAoGuXMQFPVO/gAp6p38AHZvyOhtZ0/JwAKBrlzEBQNcuYgKeqd/ABT1Tv4AKeqd/ACQAAruHWLO0CuAAyIACu4dYs7QK4ADIgAK7h1iztArgAMiAAruHWLO0CuAAyIAD++AvCAumAvB5vOFsoLBIKz0zds1XQqozUVQslKyUp6yEIOJmIjVl9UUVXKooojVmXN3K5y/H9HuFw2T6Rt4NnXFtmssxhL1ZJSpCHh3koUT11Gf+6fEjeIjE42a/8be4tzQ3oOt4OmMVj411z6U/SOnjl4pXXXaLrNGiyVllkzrLJTOlKeFJHt/iNT3Q/wAAAAAGykslej/I1GVjGmIL/bu+Es1kaVkhZKWMIU76jRTrLIT/AP4dlu7VanVplgZhluGzSzNnE06sfeOiXUnJmyoorZQbhSyQqzdsZ4CohMPdqV+uj5VlPvrKJT9KO+TeHxNN+PzUroh0OX8ju6u+tzuT4T+b7eZLW1dw6xZ2gVwAGRAAV3DrFnaBXAAZEABXcOsWdoFcABkQAFdw6xZ2gVwAGRAAV3DrFnaBXAAZEABXcOsWdoFcABkQAFdw6xZ2gVwAGRAAV3DrFnaBXAAZEABXcOsWdoFcABkQAFdw6xZ2gVwAGRAAV3DrFnaB+Mb43xciHFyHRtjY9WLudTuZJbQiENVpkKoR3kcKU9ZCEb6UnzVVFEa6p34bDXcZdpsWadWqdyHKDKoy4I6y4w+ExZijCYS4Yls10qKQdkulRvDkIT+e3WR3k95RG8jvzkLiMXVdnUp90Ln0PaE8PlNMXr8a67x/SOjzeXzDbeAAAAD6VIplAShyFP5R6xSei68CXXQmGOxuslaDQlXvoSr3luBZG+g7rN+uzOrSiM3yTCZza1l+n3/SqN2HVeQqXeJsvUUWcY4sN9FC2KEKPB3tFkaaCNZuslHfVT3lusknLN6m/Tq0qQznJsRkt/Yb0e6dyfpMPsDh1iztO5EK4ADIgAK7h1iztArgAMiAAruHWLO0CuAAyIACu4dYs7QK4ADIgAAAABXcOsWdoFcABkQAFdw6xZ2gVwAGRAAV3DrFnaBXAAZEABXcOsWdoFcABkQAHPLL4yooY+HlC5DojPJZm64IuhD9hDFf/qWyP1E6P7Cv9rhTvd4icdiNWdjp3PqtfQVoeizbjMcTH+U72OKOPpn6PERGrGAAAAAAAXoix4jJJxGp3xxio8GkDeTuaoaM11U7yyO+osjvqpRvJQfVFc26oqpY2MwdnH2KsPfjVpqdiJBZZHJLlJ0746ulKrKELK6F4QVC06YNCVUIz1E+LvoT30JQbBYuxeo10KBzrKrmT4urDXNzdieOH1tw6xZ2nciVcABkQAFdw6xZ2gVwAGRAAV3DrFnaBXAAZEABXcOsWdoFcABkQAFdw6xZ2gVwAGRAAV3DrFnaBXAAZEABXcOsWdoFcABkQAFdw6xZ2gVwAGRAAV3DrFnaBXAAZEABXcOsWdoFcABkQAFVytFGTOFNWq6qiiiELLLLJmQhCM6dKQ5iJmdSHKfLoyp4bLVHVtEiKsPXViZF9uszZIZrTKw+EK7yzZbhVQmdCqODf75CYzEbLVradyF16EtD1OVYeMRej/1rjsji83lgwm4gAAAAAAN7InLFGeRGPcCjnFxuslVmshnDYIlZKGcLg6U/jM1kfN1k95O+dtm7VZq10IzN8qs5xhqsPejoninjdopII9OCUqJ0DjtFmFIbu96sGbZmmffUTv5yi3AsqmdCUeI2CiuLlMVUqAx2Du5fiKsNejUqpluT7YgBkQAFdw6xZ2gVwAGRAAV3DrFnaBXAAZEABXcOsWdoFcABkQAADXAAJD+1e1sAkAANcAAkP7V7WwCQAA1wACQ/tXtbAJAADXAAJD+1e1sAkAANcB8eyrpZmch0ir7jbB2qqr1hCnQDqVSnfTCWqEoVWsonWsnRibuw25q+qc0O5XttmFFid7Hvq6I89xxNhkLhLwhbaHQ1uu2hEIaLNWrRdM6y66yZ0pSnhSlJr0zq++XoCmmKKYpp3IfqDkAAAAAAAA9TbnvLi1kullYRRekMSo4Y5JVgLZVZb8RlCv1LTxb6c1PiWM3BXtjua2dyWn6NMpjMMBN+iP8AO37/ANPrHi6tv7V7Wwm1JJAADXAAJD+1e1sAkAANcAAkP7V7WwCQAA1wACQ/tXtbAJAADXAAJD+1e1sAkAANcAAkP7V7WwCQAA1wACQ/tXtbAJAADXAAJD+1e1sAkAANcAAkP7V7WwCQAA1wACQ/tXtbAJAADXAAPKW6HSztZL5I2UXnNC9E+o2JawFisotMuyg6EK6ZdHBvJQqhP7Rh429sdvUjdluGgzKYzHH7Lcj/AAt+/wDX6R4uShBrtAAAAAAAAAHtzc4Ja27sjDDZFn1DEpgLzQvD3ShdbeZwhVCNIojzlUTzcKqeEksvvak7HKudH2Uxcs05hbj30+6ro+k/o6HEsqgA1wACQ/tXtbAJAADXAAJD+1e1sAkAANcAAkP7V7WwCQAA1wAAAAASH9q9rYBIAAa4ABIf2r2tgEgABrgAEh/ava2ASAAGuAASH9q9rYBIAAa4Dmbupso7V5x9i5JjBW6ehnLAkvGFKITvJbtkzKz/ADKK3iIzG5q1RRxLa0vsDFvDXMXMe+qdSOiP7eGSOWGAAAAAAAAAP3QKGQl3Qxg8IG1SzbwZqq2ZLoTvqrqpnQnlQcxOpOrDiumK6Zpq3JdxJMI9M5S5JYmx5UXQsu9nYzatt/rNUIVVaI+shY2O1XslEVPOea4ScBjbuH5Mz2fT7NAdiPANcAAkP7V7WwCQAA1wACQ/tXtbAJAADXAAJD+1e1sAkAANcAAkP7V7WwCQAA1wACQ/tXtbAJAADXAAJD+1e1sAkAANcAAkP7V7WwCQAA1wACQ/tXtbAJAADXAAJD+1e1sAkAANcAA5C7ohKO1jxlDvFysYQleAxUg7N1sVUJ3kNJs9qn585aayQeOua+7qcS79BWBjCZXTcmPfXOr5PMJhtuAAAAAAAAAGhk8jdDYhR5cUcXc0So3dEOYwpEyeuqqsjOR9KJ0fSfduqaKoqhi47C043DV4evcqiYdvnO84M+nTAnxAl0LQeHQdnCWSyO+quqhZH+yTZInVjVecLtubNdVurdidTsf1nLra4ABIf2r2tgEgABrgAEh/ava2ASAAGuAASH9q9rYBIAAa4AAAkU9U7+ACnqnfwAdm/I6G1nT8nAAoGuXMQFA1y5iAp6p38AFPVO/gA7N+R0NrOn5OABQNcuYgKBrlzEBT1Tv4AKeqd/AB2b8jobWdPycACga5cxAUDXLmICnqnfwAU9U7+ADs35HQ2s6fk4AFA1y5iAoGuXMQFPVO/gBxkyxY0NY3ZSUd3mulOaxh/QbNCUz5qjJRVRCP9kmv4qrXXqpX9oXsRh8ps08cavb73xkx0+AAAAAAAAAAHVzc4ny0jTk6sXO2bpQtF96wqDKz786i6UNEI/3STeAq1bWpxKV0dWItZrNcfipifB6loGuXMTNaYUDXLmICnqnfwAU9U7+ADs35HQ2s6fk4AFA1y5iAoGuXMQFPVO/gAp6p38AHZvyOhtZ0/JwAKBrlzEBQNcuYgKeqd/ABT1Tv4AOzfkdDazp+TgAUDXLmICga5cxAU9U7+ACnqnfwAdm/I6G1nT8nAAoGuXMQFA1y5iAp6p38AFPVO/gA7N+R0NrOn5OABQNcuYgKBrlzEBT1Tv4AKeqd/AB2b8jobWdPycACga5cxAUDXLmICnqnfwAU9U7+ADs35HQ2s6fk4AFA1y5iAoGuXMQFPVO/gAp6p38AHZvyOhtZ0/JwAKBrlzEBQNcuYgKeqd/ABT1Tv4AOzfkdDazp+TgAUDXLmICga5cxAU9U7+AH628Y1IOxaN2kEmVZqpXW/H7yET8AcxGunUhwmlKf7eNUocZYyQldKzR5PaFQlKUpn/OarJR/sa1cnXVzL0jgLMYfC27UfSmI+zNnwywAAAAAAAAAA7P5IUKXjfk4RGe7aGpS1VdqIKv+LPvslks+HgVQbDhatdaplQGiexGHza/RG5q6vb732Kga5cxO9AlPVO/gAp6p38AHZvyOhtZ0/JwAKBrlzEBQNcuYgKeqd/ABT1Tv4AOzfkdDazp+TgAUDXLmICga5cxAU9U7+ACnqnfwAdm/I6G1nT8nAAoGuXMQFA1y5iAp6p38AFPVO/gAp6p38AJAACu4dYs7QK4ADIgAK7h1iztArgAMiAAruHWLO0CuAAyIACu4dYs7QK4ADIgcS5b2q7eWGOjVdM6yz8hiU/xVjXL3CVdL0Zk8a3L7MRyY7mJOpIgAAAAAAAAAB033KhqstJdHFklO8o+mSUfSxwJjLt5PSqPTDj/5tqf9fF7hJBXwBkQAFdw6xZ2gVwAGRAAV3DrFnaBXAAZEABXcOsWdoFcABkQAFdw6xZ2gVwAGRAAV3DrFnaBXAAZEABXcOsWdoFcABkQAFdw6xZ2gVwAGRAAV3DrFnaBXAAZEABXcOsWdoFcABkQJsZl0s4uPVojrqwFulH0M0nzVuS7sPGreoj8473C2GrJWhjdZPXS1WSnlSa1O69K0b2H6Th9AAAAAAAAAAB2E3PFsu1yW4uoXTPo4VDVEfNplk7SdwXAwo3RrGpnFzojuelDLaoyIACu4dYs7QK4ADIgAK7h1iztArgAMiAAruHWLO0CuAAyIAAAAAV3DrFnaBXAAZEABXcOsWdoFcABkQAFdw6xZ2gVwAGRAAV3DrFnaBXAAZEDiRLT23Y5enIZzqxrd7hKul6Nyn4Cz1Y7mMOtIAAAAAAAAAAB0z3KbtZx09MseZJfLt5KpNMP4y11Z73uUkVegGRAAV3DrFnaBXAAZEABXcOsWdoFcABkQAFdw6xZ2gVwAGRAAV3DrFnaBXAAZEABXcOsWdoFcABkQAFdw6xZ2gVwAGRAAV3DrFnaBXAAZEABXcOsWdoFcABkQAFdw6xZ2gVwAGRAlxq/Rh8fuEI5tY+at7Luw3DUdMd7hdC/+qbf5i32msvS1O9h+oOQAAAAAAAAAA7AbnZ3Lrh/fYbzySdwPAwo7Rt84r6I7npgy2psiAAruHWLO0CuAAyIACu4dYs7QK4ADIgAK7h1iztArgAMiAAAa4ABIf2r2tgEgABrgAEh/ava2ASAAGuAASH9q9rYBIAAa4ABIf2r2tgEgABrgOD8ufbljv6ehvPLGt3uEq6Xo3KPgLPVp7mHOtIAAAAAAAAAAB0h3MbtWxp9OK8yoS+XbyVSaYfxlrq+L2SSKvQDXAAJD+1e1sAkAANcAAkP7V7WwCQAA1wACQ/tXtbAJAADXAAJD+1e1sAkAANcAAkP7V7WwCQAA1wACQ/tXtbAJAADXAAJD+1e1sAkAANcAAkP7V7WwCQAA1wACQ/tXtbAJAADXASY2/oq+fR8J5tY+at7Luw3DUdMd7gFDP+rb/wCYt9prL0tTvYfqDkAAAAAAAAAAOr+QH3NTj/fIZzqSdwPAwo/Rt84r6Ke56LMtqTXAAJD+1e1sAkAANcAAkP7V7WwCQAA1wACQ/tXtbAJAADXAAAAABIf2r2tgEgABrgAEh/ava2ASAAGuAASH9q9rYBIAAa4ABIf2r2tgEgABrgOD8ufbljv6ehvPLGt3uEq6Xo3KPgLPVp7mHOtIAAAAAAAAAAB0h3MbtWxp9OK8yoS+XbyVSaYfxlrq+L2SSKvQDXAAJD+1e1sAkAANcAAkP7V7WwCQAA1wACQ/tXtbAJAADXAAJD+1e1sAkAANcAAkP7V7WwCQAA1wACQ/tXtbAJAADXAAJD+1e1sAkAANcAAkP7V7WwCQAA1wACQ/tXtbAJAADXASY2/oq+fR8J5tY+at7Luw3DUdMd7gFDP+rb/5i32msvS1O9h+oOQAAAAAAAAAA6v5Afc1OP8AfIZzqSdwPAwo/Rt84r6Ke56LMtqTXAAJD+1e1sAkAANcAAkP7V7WwCQAA1wACQ/tXtbAJAADXAAAEinqnfwAU9U7+ADs35HQ2s6fk4AFA1y5iAoGuXMQFPVO/gAp6p38AHZvyOhtZ0/JwAKBrlzEBQNcuYgKeqd/ABT1Tv4AOzfkdDazp+TgAUDXLmICga5cxAU9U7+ACnqnfwAdm/I6G1nT8nAAoGuXMQFA1y5iAp6p38AOGkty+klhjo0mmzn7DUzcH5ZY1u9wlXS9G5T8BZ6sdzEnWkAAAAAAAAAAA6VbltA+jpMI3qaTM0b7Zp60887FH3Evl28lUmmH8Za6vi9r0DXLmJIq9KBrlzEBT1Tv4AKeqd/AB2b8jobWdPycACga5cxAUDXLmICnqnfwAU9U7+ADs35HQ2s6fk4AFA1y5iAoGuXMQFPVO/gAp6p38AHZvyOhtZ0/JwAKBrlzEBQNcuYgKeqd/ABT1Tv4AOzfkdDazp+TgAUDXLmICga5cxAU9U7+ACnqnfwAdm/I6G1nT8nAAoGuXMQFA1y5iAp6p38AFPVO/gA7N+R0NrOn5OABQNcuYgKBrlzEBT1Tv4AKeqd/AB2b8jobWdPycACga5cxAUDXLmICnqnfwAU9U7+ADs35HQ2s6fk4AFA1y5iAoGuXMQFPVO/gAp6p38AHZvyOhtZ0/JwAKBrlzEBQNcuYgKeqd/ACVGt+50VnwjoPru+EI/P8mt4j5q3su7DcNR0x3uDEM34W3T5Rb7TWZelqd7D9QcgAAAAAAAAAB1v3Ph09FZMjibdE5k8Mhu9mz/rU+MncDwMKO0bfOK+iO56SoGuXMTLamU9U7+ACnqnfwAdm/I6G1nT8nAAoGuXMQFA1y5iAp6p38AFPVO/gA7N+R0NrOn5OABQNcuYgKBrlzEBT1Tv4AKeqd/AB2b8jobWdPycACga5cxAUDXLmICnqnfwAU9U7+ACnqnfwAkAAK7h1iztArgAMiAAruHWLO0CuAAyIAD+p2PpzQDojo57QKDfm/HN1FOHhScasQ7KbVyve0zP6P6Ux3iYhMyY2ub19l7xxr6eN2eiX+RPZJ+G8TPC5zevsveGvp4z0TEcieyWU/DOJ/hU6PXWXvDXU8Z6JiORPZJ+GcT/Cp0eusveGup4z0TEcieyVVxR1icr0RnRsc6PzevDmXj/aGvp4z0TEcieyVb8N4meFzm9fZe8NfTxnomI5E9kn4bxM8LnN6+y94a+njPRMRyJ7JZT8M4oeFTo9eZe8NdTxnomI5E9kuL0sjVk3lYjg2YNFWjNd9QxZVdRM6FkJarTJQlHXNdvcJPS9DZVExgbMTyY7mOOtngAAAAAAAAAB0k3Ld/uJzybxyZPZ9QCBLtHwxWVVhEJUZpWRoeuhCyUTktl9URROrKqNMCzcu4u1NFMz/j9I/N7Z/DeJnhc5vX2XvEhr6eNoPomI5E9kn4bxM8LnN6+y94a+njPRMRyJ7JZT8M4n+FTo9dZe8NdTxnomI5E9kn4ZxP8ACp0eusveGup4z0TEcieyVVxR1icr0RnRsc6PzevDmXj/AGhr6eM9ExHInslW/DeJnhc5vX2XvDX08Z6JiORPZJ+G8TPC5zevsveGvp4z0TEcieyWU/DOJ/hU6PXWXvDXU8Z6JiORPZJ+GcT/AAqdHrrL3hrqeM9ExHInslVcUdYnK9EZ0bHOj83rw5l4/wBoa+njPRMRyJ7JVvw3iZ4XOb19l7w19PGeiYjkT2SfhvEzwuc3r7L3hr6eM9ExHInsllPwzif4VOj11l7w11PGeiYjkT2SfhnE/wAKnR66y94a6njPRMRyJ7JVXFHWJyvRGdGxzo/N68OZeP8AaGvp4z0TEcieyVb8N4meFzm9fZe8NfTxnomI5E9kn4bxM8LnN6+y94a+njPRMRyJ7JZT8M4n+FTo9dZe8NdTxnomI5E9kn4ZxP8ACp0eusveGup4z0TEcieyVVxR1icr0RnRsc6PzevDmXj/AGhr6eM9ExHInslW/DeJnhc5vX2XvDX08Z6JiORPZJ+G8TPC5zevsveGvp4z0TEcieyWU/DOJ/hU6PXWXvDXU8Z6JiORPZJ+GcT/AAqdHrrL3hrqeM9ExHInslVcUdYnK9EZ0bHOj83rw5l4/wBoa+njPRMRyJ7JVvw3iZ4XOb19l7w19PGeiYjkT2SfhvEzwuc3r7L3hr6eM9ExHInsllPwzif4VOj11l7w11PGeiYjkT2SfhnE/wAKnR66y94a6njPRMRyJ7JVXFHWJyvRGdGxzo/N68OZeP8AaGvp4z0TEcieyVb8N4meFzm9fZe8NfTxnomI5E9kn4bxM8LnN6+y94a+njPRMRyJ7JZT8M4n+FTo9dZe8NdTxnomI5E9kn4ZxP8ACp0eusveGup4z0TEcieyVVxR1icr0RnRsc6PzevDmXj/AGhr6eM9ExHInslW/DeJnhc5vX2XvDX08Z6JiORPZJ+G8TPC5zevsveGvp4z0TEcieyWU/DOJ/hU6PXWXvDXU8Z6JiORPZJ+GcT/AAqdHrrL3hrqeM9ExHInslVcUdYnK9EZ0bHOj83rw5l4/wBoa+njPRMRyJ7JVvw3iZ4XOb19l7w19PGeiYjkT2SfhvEzwuc3r7L3hr6eM9ExHInsllPwzif4VOj11l7w11PGeiYjkT2SfhnE/wAKnR66y94a6njPRMRyJ7JVXFHWJyvRGdGxzo/N68OZeP8AaGvp4z0TEcieyVb8N4meFzm9fZe8NfTxnomI5E9kn4bxM8LnN6+y94a+njPRMRyJ7JZT8M4n+FTo9dZe8NdTxnomI5E9kpkZ44xSXi09lFI0OhZZaAt0IQiGs50p0a3jOKqqdbPvd2Hwt+L1H+E7sfSeNxFhSUJhTZKE/rFvtNaejqd7D9QcgAAAAAAAAAB1t3PqM8WnZkyuKCPKMLtgrdWGQxKWTaFs1F0TtUzbyUzk3gqoizGrKlNGeHu3M3rqopmY1I+k8T0h+G8TPC5zevsveMvX08bVfRMRyJ7JZT8M4n+FTo9dZe8NdTxnomI5E9kn4ZxP8KnR66y94a6njPRMRyJ7JVXFHWJyvRGdGxzo/N68OZeP9oa+njPRMRyJ7JVvw3iZ4XOb19l7w19PGeiYjkT2SfhvEzwuc3r7L3hr6eM9ExHInsllPwzif4VOj11l7w11PGeiYjkT2S/1SOEUmic1SNDpWTwIhrP7xrqeNx6Lfj8E9ktPFmHQKGKwhaCQxg3R+Lvs2iFuHgOdWJdVVFVO+jUXjl8gGRAAV3DrFnaBXAAZEAAAAAK7h1iztArgAMiAAruHWLO0CuBLjJGeL0T3PCIwRofMEdbugqqV20JhTVDNRVHzp7/i65xVVFMasu6xh7uJuRas0zVVP0h4Klh3SVwOhs3c8j8X6YbKTqUpD52cHn4VGaPxlkeNMxHXcwiPdbjVWBlWgC7diLmPr1scmN39Z3HkyPOVhL7KA1aJfMojxg0HXT/0rvW6FZKo4JlJkp+lKTBrxV2vdlvWD0NZXgY/87UTPHPvn7vl8MfT4eLRLV4PWGQldO+lZs3WXSn6UpOiZmd1NUWrduNSimI/R/Npm3yq/wBZJw+9SDTNvlV/rJBqQ/zTNflV/rJDjUg0zX5Vf6yQakP90zb5Vf6yQ51INM2+VX+skGpBpm3yq/1kg1If5pmvyq/1khxqQ/FKUpTOlM6Q5AAAAAAAAAAAB/qrRooiZRdZX5kzA1H5aZt8qv8AWSDUg0zb5Vf6yQakP80zX5Vf6yQ41INM1+VX+skGpD/dM2+VX+skOdSDTNvlV/rJBqQaZt8qv9ZINSH+aZr8qv8AWSHGpBpmvyq/1kg1If7pm3yq/wBZIc6kGmbfKr/WSDUg0zb5Vf6yQakP80zX5Vf6yQ41INM1+VX+skGpD/dM2+VX+skOdSDTNvlV/rJBqQaZt8qv9ZINSH+aZr8qv9ZIcakGma/Kr/WSDUh/umbfKr/WSHOpBpm3yq/1kg1INM2+VX+skGpD/NM1+VX+skONSDTNflV/rJBqQ/3TNvlV/rJDnUg0zb5Vf6yQakGmbfKr/WSDUh/mma/Kr/WSHGpBpmvyq/1kg1If7pm3yq/1khzqQaZt8qv9ZINSDTNvlV/rJBqQ/wA0zX5Vf6yQ41INM1+VX+skGpD/AHTNvlV/rJDnUg0zb5Vf6yQakGmbfKr/AFkg1If5pmvyq/1khxqQaZr8qv8AWSDUh/umbfKr/WSHOpBpm3yq/wBZINSDTNvlV/rJBqQ/zTNflV/rJDjUg0zX5Vf6yQakP90zb5Vf6yQ51INM2+VX+skGpBpm3yq/1kg1If5pmvyq/wBZIcakGla/Kr/WSDUh+IcgAAAAAAAAAAA/JDVoqiZVoshHAhINR/umbfKr/WSDUh/mma/Kr/WSHGpBpmvyq/1kg1If7pm3yq/1khzqQaZt8qv9ZINSDTNvlV/rJBqQ/wA0zX5Vf6yQ41If6hs2R1mq/wBZINSFZzR0jfFxsrCHBGl7O5oomdC0FhjRmlH1Un1FdVO5Lpu4WxfjUuURPTEPusm2X5lGSfNWTKGRpVjM72aUIWgr3ZoapSrwIaomXRypMm3jbtH11Wu47QdlWNiZpo1lXHT7vtuPb8hO6FyRyrNYO4Y3ITE5/NkoUVZwxohaCNl095RtvIR8y03zkhZxtFz3Ve6Ve5voLxuXRNyx/wClH5bsfp5PvjNoo1UVaMl1V1F0IWVWVTOhKOFCTNadMTE6kv8AQ4V3DrFnaBXAAZEAAA1wACQ/tXtbAJAADXAAJD+1e1sA+Ry4S6RKkIimvGSNcKz27WdSAwBksjTQtrN+aqjvI4Vk7yDpvXqbNOrUlsnybE51f2GxHu+s/SIcqpcsoiUKXh+rvCNDxWYO1kulMCdTBZKIPB1e9vf2luFZO/8AMQl6/XfnVq3F3ZPkWEyW1rLEatX1qndn/wDcT5edCZAAAAAAAAAAAAAAAAAAAAAAAAAAAAAAAAAAAAAAAAAAAAAAAAAAAAAAAAAAAAAAAAAAAAAAAAAAAAAAAAAAAAAAAAAAAAAAAAAAAAAAAAAAAAAB6uyUsumN0jMLgsUI/QiEv2Ji6yGaELrJXhLuR/eZJT+cojvqJ+iYzcNjKrX+NXvhpmiLQjYzSmb+GjW3ftV0/n+bqrFaNMX46xfgUaIrPVg8XW8WSG0HhLFbOVXVT9ieFCd9CSZpqiuNWFN4jD3cLdmzep1Ko3Yfi/tXtbD6dKQAA1wAAAAASH9q9rYBIAAa4AB88lwlKi3JJEiFR5jTCUM4G72a6VWaE/jt2qZsxmojvrLJ3v8Ac67lyLVM1VM7LcvvZniacNYj3z9o43GSWaWGNctsd4XHKNEJWSloslSCQVCydHBGCE/is1Efanvp3yAvXar1WuqX5lOVWMow0YexHTP1meOWFOpJgAAAAAAAAAAAAAAAAAAAAAAAAAAAAAAAAAAAAAAAAAAAAAAAAAAAAAAAAAAAAAAAAAAAAAAAAAAAAAAAAAAAAAAAAAAAAAAAAAAAAAAAAAAAAAAAPUeRJlYvCQ2NrGJ8a4c0axJfTdVRuquslKHe2WTMhupwK/3kcG/10GZhMTNmrW1bktQ0V6HKc3sTfsx/607n5xxeTqy9YTB4ZBoFC4I2UbMG6mkZtFFp1V1UoVShKE99CUE5uqSqpmmZpq3YTQ4ANcAAASKeqd/ABT1Tv4AOzfkdDazp+TgAUDXLmICga5cxAU9U7+ACnqnfwA5X7oLlDtpVZSPwAccK/wD09FJouxWQovOrCYb1mi6eFCs2aj5k8JC42/slesjchdGgrJYwGE9Kux/nc+0fTt3Xk4wW6gAAAAAAAAAAAAAAAAAAAAAAAAAAAAAAAAAAAAAAAAAAAAAAAAAAAAAAAAAAAAAAAAAAAAAAAAAAAAAAAAAAAAAAAAAAAAAAAAAAAAAAAAAAAAAAAAADpxudcuzaUeJjWR+MzyznvFVlpHeu0TnLwiApShGb199LNMyPmSjgJjA39fTrKt2FQaOcljCYiMdZj/Gvd/Kr+3smga5cxJBoJQNcuYgKeqd/ABT1Tv4AKeqd/ACQAAruHWLO0CuAAyIHzPKPlNVkkkbjHHFRohWGM4MmDQFCeumEtfxFJvmSnO+g6cRc2K3NSYyDL9s8wt4edzV1Z6I98uMsIhDaFwhrCoS0WaNWy6WjRdZM6VlkpnSlP0mu7r0JTTFMRTG4/WHIAAAAAAAAAAAAAAAAAAAAAAAAAAAAAAAAAAAAAAAAAAAAAAAAAAAAAAAAAAAAAAAAAAAAAAAAAAAAAAAAAAAAAAAAAAAAAAAAAAAAAAAAAAAAAAAAAA+i5PcqMNkdlfi3HuDNVlWMDharOGqoT8ZBV05rVVNlKU/OhB22LmxXIqRedZfTmeBuYad2Y93TG47mwOFwd4QNhD4I1VaMISzVbMl1essosidCUfQk2OJ1fe88VUzRVNNW7D9wfLIgAAAABXcOsWdoFcABkQPCu6dx3XYu2KMnsHbJQiEtGz0hKqE9dCn4jOf6Ur8hGZjX7ooWXpeYOJrvYufpqUx3y5/kUtIAAAAAAAAAAAAAAAAAAAAAAAAAAAAAAAAAAAAAAAAAAAAAAAAAAAAAAAAAAAAAAAAAAAAAAAAAAAAAAAAAAAAAAAAAAAAAAAAAAAAAAAAAAAAAAAAAAAAHabIpj2vKBk3RRecIbaWFO+DrOuELJTOlK7BbMRPZQqbBhK9faiVCaKsH6Fmt2iNyZ10fr733IyGusiAAAa4ABIf2r2tgEgABrgOSu6Wv9d7ZSLV16RKWbnc8Eg6qs+8hKyEtE/zoITH1at3UXVoEsxbyqK+VVM+DyiYTcwAAAAAAAAAAAAAAAAAAAAAAAAAAAAAAAAAAAAAAAAAAAAAAAAAAAAAAAAAAAAAAAAAAAAAAAAAAAAAAAAAAAAAAAAAAAAAAAAAAAAAAAAAAAAAAAAAAAAdIdzJfi8LkvjO4V150O58qtlEJ7yGrJE/+6ieUmMuq1aJj81R6YVmKMbaux+Knun+3skkFfNcAAAAAEh/ava2ASAAGuA42ZfLVZrlTRvzkz5iYKoj5kMFCBxnDSvbQdGpk9r9e+XnoxWzgAAAAAAAAAAAAANvI3JDG2W6PcAiJE+CJaQiFLZzdushOjgrFCfxmq6e8hCOVMyDstWqrtWtpR+Z5lYynDVYm/PujcjjnihGj7FpSJsdX5FNnCUwhVzw9vAkNkomS00a6Vc6bvTzHzXTrKppZGDv+lYei/MamuiJ7UE+WQAAAAAAAAAAH0+KsgsZ47SNvqVmLKFoYiLrw6Gh8BUVnXQw0aFtMrwzJTvo4N87qbFVdua6foh8TnNnB4+jA3vdr41Yn89XcfMDpTAAAAAAAAAAAAAAAAAAAAAAAAAAAAAAAAAAAAAAAAAAAAAAAAAAAAAAAH1GQKQCNcvMYYZAHMqtBnU6IK0hj0eKys6kHZqqpShVHCutNMhH09ZB3WbNV6fduQh84zmzk9qKrnvqqnUiOP+ofMW7NDJu0ZITOhRZKqE/Mk6UvE6sar8A5AAAAAAAAAAD6a9ZCIzwaRZzS3OtVaGuaGt20Fh6qiv40CaKNEqqrLcKi3D3kndNmqLcXY3EPbzmzVmNeW1+6uIiY/PVjvh8yOlMAAAAAAAAAAAAAAAHvvcu2q3Qke2E/4ukga/0zLoJTLfxKv0xY/wArE9Pg93korJrgAACRT1Tv4AKeqd/AB2b8jobWdPycACga5cxAUDXLmICnqnfwA49ZdLfonKejg2zMzOXg+9PP+oUIHGcNK99B/wAns/r3y+BmK2YAAAAAAAAAAAAD98AgMMecNg7td8HaQiFQpqqxYsmaJ1l11kzKqoR30pSk5iNWdSHzXXTbpmuqdSIdfsj+Ql2ZPcnTJnDXao2jU+lFYQ94VP8AjKp66rBVM28qpP8ASmdJPYWxFij37sqJ0TZ7VnWLnWz/AOdPupjx/VywluX0ksMdGk02c/Yambg/LLEJe4SrpXRlPwFnqx3MSdaQAAAAAAAAAADpRuXbuZPWSyOMFbZqWaHyohdVZXOQuhZgidCUcG8S+XbyVS6YUzGNszHJ8XnjLpyYVpDY8qRpizB0pinGRos0YZisysDhPXXYp4Ef2lfFOjvGJjMPsVWup3JbVoQz7bbDbBen/wBaN384+k+by8YbcAAAAAAAAAAAAAAAAAAAAAAAAAAAAAAAAAAAAAAAAAAAAAAAAAAAAAsxNii+4+RodkUIuQRaEvF6whSDsFEI76U9dPAhCJ0pTwIPqima6ophj4vFW8FZqxF6dSmmNWXYqSqS6LcgsiEJiM4Xequ3Q7W7V4w2eZeFwlLJOeune63eQjvIQgn7dmLNvWwobMM2u5xmMYi5uasakcUarjDDN+Ft0+UW+016XoCnew/UHIAAAAAAAAAAdYshOJzqjdkmO5zvxkyhMAeDaHweEQdozzlV1FmqUJQnfJzBxFVjUlSejC9XYzyq7bnUqjWzE/o8CZVmT48snmU+ExdQho2cTwzoW54WlXeaMEp/MSn+8oneT9Ce+ReJsTYr1Pos7Q7nVGdYOLv4491Ufnx/q+MGOngAAAAAAAAAAAAAHQPcrIB0ayj/APltHmrQLvTz/GeMlMt/ErDTF3bH7vB7+oGuXMSUViU9U7+ACnqnfwAU9U7+AEgABXcOsWdoFcABkQOReW/3S8bvPg/MqEDjOGle+g/5PZ/Xvl8JMVswAAAAAAAAAAAAHtLc1pBmcdo+wqVuMMCQ0dUVVkM4Aq0VnVaw9ZE6FvHmK7/zpQSGAs6+rXz9GhaOs4nCYaMFan/Kvd6v9ujBMKfcSJae27HL05DOdWNbvcJV0vRuU/AWerHcxh1pAAAAAAAAAAAOme5TdrOOnpljzJL5dvJVJph/GWurPe9Sy7ySueW2S99yfvZmpnQ1gleBtko32EKV32bRCe9MtvJ8SUmZetxdommWoZRmVzKsZRiaPpPv/OPrDhxGNwPSKr/eMWn1BloPD3XCWkEhDNZEyVWiiyVUo/2NdqpmmdSXoWxeoxFqm7bnViqNWP1Tjh2gAAAAAAAAAAAAAAAAAAAAAAAAAAAAAAAAAAAAAAAAAAAAAAAAAADoFucEiDOCu6Gy2v2BoS3hSV4A5kLq/ms0J/KtUfOn8VCeBCSVy+zqRskqs0e5xNVdOW2p90e+rp+keL2pGr9GHx+4Qjm1iRq3sq7w3DUdMd7hdC/+qbf5i32msvS1O9h+oOQAAAAAAAAAA7AbnZ3Lrh/fYbzySdwPAwo7Rt84r6I7l/LOkKg8uMjTxgUDgqq8YHEou8nSuhH4yWiis67KfgXVQlE3DMfWKs7Nb1PrDH0L5vOU4+mqqf8ACr3Vef6OMTRmuyaLMmqiVV1EpVWVSiZKEo66CAXzExMasPxAAAAAAAAAAAAAB0O3J34qUHzoD9jQlMt/ErDTF3bH7vB0KJRWLIgAAAABXcOsWdoFcABkQOReW/3S8bvPg/MqEDjOGle+g/5PZ/Xvl8JMVswAAAAAAAAAAAPzYMWsJbM4OwZpXaNVkKKKoRvrLJTMhCPpDiZimNWXcPJlkrg0jkikWomKMVVIYpBFYU8FkI314U1RntEp+ZKc35lTYsPb2K3FLz3n2YTmeYXMR9NXUjojcaQ7kO4kS09t2OXpyGc6sa3e4Srpejcp+As9WO5jDrSAAAAAAAAAAAdM9ym7WcdPTLHmSXy7eSqTTD+MtdWe97lJFXrlhumckikT5WYBKM7YMhnAY3wdPRCVUfiohjJCEL/SsqlVP0JIbH29bXr4+q4tAeZek4KrC1z77c+7ol42MBvYAAAAAAAAAAAAAAAAAAAAAAAAAAAAAAAAAAAAAAAAAAAAAAAAABZiZFd4x2ja54oOlmleGPiGsYExQhH9pdZCs/0Tz/QfVFM11RTDoxWIpwliu/XuUxM9jtpEWKLtiHE5zxNdDJVnBHRA2cFZoQiafNVmSt86Uzp+k2SimKKYph5yxmKrxuIrxFzdqmZf0xq/Rh8fuEI5tYVb2XxhuGo6Y73C6F/9U2/zFvtNZelqd7D9QcgAAAAAAAAAB2A3OzuXXD++w3nkk7geBhR2jb5xX0R3PS6UISiZKDLam4u5aMlqkl0ur4g8Bg+idb9me0CQhEyqENEpz1UfMuhb6EoIHF2tjuzqbkr40JZltjllE1T/AJU/4z+m59nwoxWygAAAAAAAAAAAAdDtyd+KlB86A/Y0JTLfxKw0xd2x+7wdCiUViyIAABrgAEh/ava2ASAAGuA40ZendSxy8+DcwoQOM4aV76D/AJPZ/Xvl5+MVswAAAAAAAAAAAPruSdEVWUKX2KbkbsdJBWEL6PhSEonRomCM9M/zpQhH0mRhaNfdiEFomxvoOV3bsbsxqR0z7nY1CJt5BsDz+1wHB+XPtyx39PQ3nljW73CVdL0blHwFnq09zDnWkAAAAAAAAAAA6Q7mN2rY0+nFeZUJfLt5KpNMP4y11fF7JJFXrzll8REUjhk+vN5s2OfC4tt2TzZJQidKFEJzGl1ZKfoMTG0a+1M8TbdBWM9FzWmiZ91cTT4w5REEvAAAAAAAAAAAAAAAAAAAAAAAAAAAAAAAAAAAAAAAAAAAAAAAAAAA9P7nnEVSNUu6j+hLHPg0WYC0hs6UToQ2W/EZ/T+Msn6DNwFGuu6vE0zRzjfRss2KN2uYj9N2XXkm1KpMbf0VfPo+E82sfNW9l3YbhqOmO9wChn/Vt/8AMW+01l6Wp3sP1ByAAAAAAAAAAHV/ID7mpx/vkM51JO4HgYUfo2+cV9FPc9FmW1J5K3U6T9R5ydxalGgzCdu5HgmAQhdCP1DdWdWf5l1EfWI7MaNWiK+JYel9jNjxVzCzuVRqx0x/TmURC2gAAAAAAAAAAAAPe+5d/FR886Bf8hKZb+JWGmLu2P3eD3mSisWuAAAAACQ/tXtbAJAADXAcaMvTupY5efBuYUIHGcNK99B/yez+vfLz8YrZgAAAAAAAAAAAezdzJi0rDZSIzxoaM50Ox1KQdmtN1l2rTf8A9lEkjl1OrXNSvtMLEazB2rMfiq1eyP7dHSXVG1wHB+XPtyx39PQ3nljW73CVdL0blHwFnq09zDnWkAAAAAAAAAAA6Q7mN2rY0+nFeZUJfLt5KpNMP4y11fF7JJFXrPSiuBjGmIMYouN1ELqPJ1wmDJQnhWZrIR/vMfFynXUTDLwF+cNird6Pw1RP3cOoSwXgsJawZqhKF2K6zNZCe8lCZkmtS9I0zroiYfrDkAAAAAAAAAAAAAAAAAAAAAAAAAAAAAAAAAAAAAAAAAAAAAAAAB0P3MKLSsHihHCNq7P8pDYexgLNab+wzUSsn/df/Ylsup/xmpVGmJiNdiLNiPpEz2z/AE6EkkrlJjb+ir59Hwnm1j5q3su7DcNR0x3uAUM/6tv/AJi32msvS1O9h+oOQAAAAAAAAAA6v5Afc1OP98hnOpJ3A8DCj9G3zivop7nosy2pMJllRXUjbk1R5d6Wee0gzuTDmSJusuxWQvPyKpMfFU66zVCf0L4j0bNrNXHOp2+5xQNfX8AAAAAAAAAAAAB733Lv4qPnnQL/AJCUy38SsNMXdsfu8HvMlFYtcAAASKeqd/ABT1Tv4AOzfkdDazp+TgAUDXLmICga5cxAU9U7+AHHrLpb9E5T0cG2ZmZy8H3p5/1ChA4zhpXvoP8Ak9n9e+XwMxWzAAAAAAAAAAAA6MblhFxSFxRjy+dLo1lnjBoNPmzzoQzWW4f2iWy6P8apVVpi3P8A3sUflM/d7poGuXMSSVuU9U7+AHDSW5fSSwx0aTTZz9hqZuD8ssa3e4Srpejcp+As9WO5iTrSAAAAAAAAAAAdKty2gfR0mEb1NJmaN9s09aeedij7iXy7eSqTTD+MtdXxe16BrlzEkVevxXi+hdRZRMLnQshKE/iYgj3OEkpcCVdsokZ4AqrmqsHvC1EI4EIbLbxrVyNSuYeksBXsmFt18dMdzNnwywAAAAAAAAAAAAAAAAAAAAAAAAAAAAAAAAAAAAAAAAAAAAAAAAHV7c44sKq5OEGh6G+jTDntDGqfxZ55koV4f2SbwEallSmjq5r82mniph6jp6p38DNaalRrfudFZ8I6D67vhCPz/JreI+at7Luw3DUdMd7gxDN+Ft0+UW+01mXpanew/UHIAAAAAAAAAAdb9z4dPRWTI4m3ROZPDIbvZs/61PjJ3A8DCjtG3zivojuekqBrlzEy2ps1KXDGb5k7jO6msCnUhbnhjFP4/CxWRwHxcjVomGXgK9jxVuuPpVHe4SLozV1leBKUGtPST/AAAAAAAAAAAAA6B7lZAOjWUf8A8to81aBd6ef4zxkplv4lYaYu7Y/d4Pf1A1y5iSisSnqnfwAU9U7+ACnqnfwAkAAK7h1iztArgAMiByLy3+6Xjd58H5lQgcZw0r30H/J7P698vhJitmAAAAAAAAAAAB023KZZVMl8clEfnIfjJKf4CJiXy7eT0qk0xI/+ZZ6s973ESKvWRA4ly3sl2EsMdGS6JllX5DJ/4qxrl7hKul6Myeddl9mf9Y7mJOpIgAAAAAAAAAB023KhksrJdHJqlG8u+mSEfQxxJjLt5PSqPTDn/wCbaj/Xxe4iQV8AcGpaFlV5XI5LKfmpfkNSj+Msa3e4SrpejcpjUwFnq09zGHWkAAAAAAAAAAAAAAAAAAAAAAAAAAAAAAAAAAAAAAAAAAAAAAAAAHYDc61lVslxwoV/sw2GoT8+lSTuB4GFH6No/wD7FfRHc+1GW1JNjMolpFt6s0ddaAt0I/hrHzVuS7sPOpeon8473C2GoSrDG6qeuhqshPKk1qd16Vo3sP0nD6AAAAAAAAAADsJueLFdlktxdSuibSQqGro+bTLI2E7guBhRujWdXOLnRHc9KGW1R89jWlCsVnwst1kO+EJT/DWPmrey78Nw1HTHe4WQhKEwhqlHWSut9prL0rTuPwDkAAAAAAAAAAAHQ7cnfipQfOgP2NCUy38SsNMXdsfu8HQolFYsiAAAAAFdw6xZ2gVwAGRA5F5b/dLxu8+D8yoQOM4aV76D/k9n9e+XwkxWzAAAAAAAAAAAA6Mbk++FVnRH5wJWRnKQiBwxCPElVdVKf9kErl0+6qFW6Ytr/Oxd/KY7nQAk1aMiBx1yu4vNIt5RcdYEsolVWEPBMMZz99VqqhdCf90mv4qnW3ql/aF78YjKbNUfSNTs9z4+Y6fAAAAAAAAAADrDuZ8Xmjnye13k1ZpVWfD0bwlWdHXUV/Jo/kSTeAp1LWrxqV0d39lzWaI/DTEeL1uZrTH6oS2Vg8GawhdMyrJRZdKfEhE4c0xrpiHAaOzwpaOT9ek86IW8oS2QnhQs0WSj7TWa51apl6UwlGxYeijiiO5FPlkAAAAAAAAAAAAAAAAAAAAAAAAAAAAAAAAAAAAAAAAAAAAAAAAAOsG5kvhWH5O7V3Z6Eru19wpmlHAhZCi6PtJrATq2tRTGj21rM0irjpjyeijOaS/BuxUhDFowaInVaKpUWR4komDmJ1s6sOHUorkbRaj/ABji/CFEqNHe9YVB0oSj+61WQj/Y1q5Tra5h6SwF6MRhbd2PrTE/ZnT4ZQAAAAAAAAAAdssjqLbSK2TVEN2tlEqNWrsVha6qUdZLZZZp9iyDYcLTrbVMKA0TX4xGbX6449Ts9z7Md6BfJJXHqq45LY2vddbNRBXLDGk/j0S03+513Z1tEz+TOyu1s2NtW4+tUd7iElM6Up4TW3o8AAAAAAAAAAAADoduTvxUoPnQH7GhKZb+JWGmLu2P3eDoUSisWRAAANcAAkP7V7WwCQAA1wHGjL07qWOXnwbmFCBxnDSvfQf8ns/r3y8/GK2YAAAAAAAAAAAHrXc2o1KOeWh5RcbNUKqv10rqqISnrtGSyF0f7Zxn5fVqXJjjaLo/w2y5dTej8FXf7nTUmVONcBzN3UyThq64/RclNgrBPQz6gSXfCV0I3kN2KZ1Z/nUWukRmNvUqitbWl9jouYa5hJn30zqx0T/bwyRywwAAAAAAAAB+6BQOEvCGMIBA2SzRvCWirFkoqidKy6yZkIR9KREavucVVRRTNVW5DuHJdERnJnJJEyI6iqFV3U7GbJtN32yUKrNE/WSsbJZo2OiKXnPNsZOPxt3EcqZ7Pp9mhOxHsTLbGlnEuSON0Z2jRCiYC6ISsolKZvyiVEqqI+slB13qtZbmpI5RhpxePs2Y+tUd7iYssldZK6yZ0rJnSa29Gbj/AAAAAAAAAAAAAAAAAAAAAAAAAAAAAAAAAAAAAAAAAAAAAAAAAAAD3vuX8alNFHWJLVqjOzoO82KqU9dEyWa81wlMuq31KsNMTDe+ziY/OnxjxdISUViAchN0Pk4axGyiHi+mLBKkBjWwZvRishG8lpNmNUfPnKz2iDx1vWXdXjXfoKx0YvK6bcz76J1PJ5iMNtwAAAAAAAAA0EnsUodHyPDjic7maV273hzGComR1kLLIzk/QidP0H3bomuqKY+rFx2KpwWGrxFe5TEy7fud1wZyOmBOaBKIVg8Bg7ODMkI7yqiqFUf7INkiNSNR5wu3Kr1yq5VuzOr2v6zl1vlWXjG5SKWTHGtOlQo1e6rJ1st/fSlquieayhYxcZVrbMtm0IYb0nN7XFTq1djjUQK9wAAAAAAAAAAAAPe+5d/FR886Bf8AISmW/iVhpi7tj93g95korFrgAAAAAkP7V7WwCQAA1wHGjL07qWOXnwbmFCBxnDSvfQf8ns/r3y8/GK2YAAAAAAAAAAAG7kKjytJtK7FWOWkSoyd7xZdEb/XYrpzGiE2VknbYr2O5FSMznB7YYC7h/rMTqdO7DtYwbsoUwZwlguhdm1UQuosjrJVSidCTY3naqJpmYlsQ4fHcrCRhSXKRV9xTg7JVZ7QdTo91LJRvohLOdKFbSJ1bR0Ym1s1uafqndDuabU5hRfnez7quifLdcToXBITAIU2gMMYLsYRB2izJqzXRMsouqmZKEo7yUJQa9ManuX/TVFdMVU7kv1ByAAAAAAAAepNz5kObSpSzQeNjzgaV3DE5ZSHt1llZ1GkKn/Is/Hvozk+JUzMFZ2S5rp3IafozzaMvwE2aJ/zue6Oj6z4Orr+1e1sJxSSQB5N3RyUFSLcjsEiZB26FYXGeHKqLKoTv9DsZl10/NnZiDBx9zW29bxt50BYH0jMJxEx7qI+8+7zcxyFXIAAAAAAAAAAAAAAAAAAAAAAAAAAAAAAAAAAAAAAAAAAAAAAAAAAfesiKUFSIGUE4loU3Qygb8z3Q3SlMyPys2YlNtCvKZWDr1l2PzaxovwPpuVXNbHvp/wAo/Td+zs8TyiQDyjuiEjDWU+SRlGNzQRLV9RSS1hrJCis67WDJQjTKI4d5CFkI/ZMPG2dkt6sbsNw0F5tGXY/Ybk/4XPd+v0nwclSDXaAAAAAAAAAPbW5wSKQh6xjhstD6gaUQF1IXgLqSurvNISshGkXR5qqZp+FbxEll9nVq2SVdaPc2i1Zpy+3Pvq99XR9I/V0QJZU4B4h3VWUZRKsUZK4JCEJWQs0fMNUQnrbyWbJCf/7EkXmNe5Qs/S8wPC4yqP8AWO+fBzzItZwAAAAAAAAAAAAHvfcu/io+edAv+QlMt/ErDTF3bH7vB7zJRWLXAAAEinqnfwAU9U7+ADs35HQ2s6fk4AFA1y5iAoGuXMQFPVO/gBx6y6W/ROU9HBtmZmcvB96ef9QoQOM4aV76D/k9n9e+XwMxWzAAAAAAAAAAAAAdfchyUdlK9IW6+innnPiLczph6iyJ1k5iPyS6d/8AtKTfShJPYO7slqOOFFaLss2tzKqaY/xr/wAo/XdjtehKeqd/AymrlPVO/gBze3QLJlbut8wuXWIrpWoqHtEJfsHYon6Gbrfr0IQj8xeb8bgW3++ROOw+tnZKdz6rY0FaIYv24y7Ez/lG9njji6YeHyNWKAAAAAAAuxHiTGOUSNLvidFR3tIY8nk1QyZM1UbyOFZZPeVQjfSngPqiiblUU0sbGYuzgLFWIvzqU0uzGTzJe4ZApNHfEV0QNVtCVUad4wyeZaFQpZCM9frdbvIR3kIQbBYtRZo1sKBzrNrmc4urEV7m5EcUPpnZvyOhtZ0/JwHciSga5cxA5DZdMqrKUqXN4wB2Q3oh0RXQl1QRZCfxV11U/ll0b/fXnR8yqCCxl3ZLmpG5C89B+WTl2W01Vx/lX/lPh9nncxG1AAAAAAAAAAAAAAAAAAAAAAAAAAAAAAAAAAAAAAAAAAAAAAAAAAH7oDDYS7YbB3hA2qzKEQVqq2ZLqp31V1UoShKPpQcxOpOrD5roi5TNFW5Lt1IJLVBJXJJ4vx2YMFV28KgqrOGqoab6kJURmtEJ3v7yEp+ZKDYrNyLtEVPPOdZfVleOuYadyJ93RO4+g09U7+B2op+LRmzjAzWZNVEKKKISqsqsjOQuhbroT1uAOYmYnVhyiy4cleHyIRzaRwi1BFmsTn+2WaMV1FEzQGELb6zFbgQlM6VU8G93iDxeH2KrXU7krs0JaIKc1w8Ye9P/AK0R2xx+by6YbcAAAAAAAG8kVkfjNLbHyAxLi4wXmarIXhsKzUpUgsHQn8Zosn5usjvpmO2zaqvVa2EZm+aWcowtWIvT0RxzxO0Em8n8XYkRJdMQ4qwVECdzjg6rFnvZyzVZP5y63WnWWShKUp8ZsFuiLdMU0qAx2Nu5hiKsTenVqqlpaBrlzE+2I/TDXbBXdA28PhryVZQeDM1mzVosrMhRRVE6Up3+8hAmdT3vqmma6opp3ZcUcpKVdvLRLLGOPSy63QkIhKYPAFEpnzIKz/FZoR86ET/OlJrt+5styanoTIsujK8Bbw/1iNWemd18yOlLgAAAAAAAAAAAAdA9ysgHRrKP/wCW0eatAu9PP8Z4yUy38SsNMXdsfu8Hv6ga5cxJRWJT1Tv4AKeqd/ABT1Tv4ASAAFdw6xZ2gVwAGRA5F5b/AHS8bvPg/MqEDjOGle+g/wCT2f175fCTFbMAAAAAAAAAAAAB6IyH5fvgOlfg7N8QpLOLcZcx3vOdP4rJKU/km1lZO/4kpMrCXthr9+5LV9FmTbbYGdjj/wBKPfHjH6usDNozbM1WrJdVdRdCFlVlUzoShPWSgnlFzExOpL8g4f3QN3QB8O94Op6QNlC4HC2ehbsGqiFlGiiyFkJVShPXQlBxMRMakvuiuq1VFdE6kxuS5tZW+QI/4gQuGx/kdd7d7RZaLLNoQ7GaErwl3z76c1HXaM/m30d/hIjE4KaP8re4tzQ3oxtY2mMNjp1tz6T9KvKXi1ZRZRZKi6qVVlUzJQlEyUJI9v26/wAAAAAGwkvkkj9LHGVjFaIEX4Q8YW0WRpF1VZmMHV767RdO8qqjx/Qdlu1VdnW0wwcwzLDZZam9iatSPvPRDqRkyZLcV8n1xphCyzN5xphzNCIc8kq7yqPkmU++qohP0p75N4fDU2I/NSuiHRHfzy5qb23G5HjP5vuRktaV3DrFnaB8Zyz5fYNIVJDDoRAIUorGR/Kru90M5/xlV1kTLtpuBRVM/wA6UGNir2w0fnLZdC2Tzm+OiKo/wp99XhH6uMzVq0btV27ZdZdo0WSuussmdKyUpnSlJAL4iIiNSH4gAAAAAAAAAAAAAAAAAAAAAAAAAAAAAAAAAAAAAAAAAAAAAAAAAAAHr3c9pd2cSI6N5LIxQxDN0RmXQtAl11plWMOQiZCPEhdG986EEhgb2sq1k7ktC0c5LOMw8Y21H+VG7+dP9OlpMKfV3DrFnaB+EcomxblAi1D4oxudTF4up4sksoQwaonQlCe+jgSjroSjfQk+a6IrjW1bjIwuKu4O7TfsValUbkuT2VPkRR3kMh8JjJFWDQl/RLaLpXZwpmpntoEhP9huqjvI/vo3k9+YhcRhKrM6tPvhc+h7RXh83pi1emKbvF9J6PJ5iMNtwAAAAPpEi0gMocuj/UdMUHUuiBqLoRC3k2VSrBoMr30rLd9PAqjfSd1mxXenUpRGb53hMmtbJiKvf9I+s/8A7jdV5B5BYmyCRSUi7FpjpoY3Qqu8Hi0VRpoW1Qjrp4FUd5XvE5YsU2KdSlSOdZ1iM6v7LenUiNyPpEPsTh1iztO5Dq4HjzdGMoJlJ3Jz8FsX4chV/wAbWaVIRmLfjQeAdZdKZusldP4qPFnGDjr2so1kbst50EZNONxXpl2P8Le5+dX07N1yqIVcgAAAAAAAAAAAAADoduTvxUoPnQH7GhKZb+JWGmLu2P3eDoUSisWRAAAAACu4dYs7QK4ADIgci8t/ul43efB+ZUIHGcNK99B/yez+vfL4SYrZgAAAAAAAAAAAAAHSTINynWUdHExkgjq8UU86WUzrbtl9+GwZX+xOnrrqI5VfmJjBYjXxsdW6qLRpoenCXZx+Gj/CrfRxTx9E972MSCv1dw6xZ2gVkoQlEyUToSB54lvyGpEpaGrd7pda0W382nWWeLrVVU0i3C0Zfmr/AD7yfGYt7CW7vv3JbRlOi3MMriKNXX0cVXhO7DxNHfc3JYXG1aNInPlzxigyEpSohLRMGbTeNVadWf5ljAry+5Tvfe3rB6PsvvRqYimaJ7Y//fo+aQrIwyloI1SyWkuhzSZM2cybsV1U/Shc6fRL3JTNOizJ6o1dnjsnyXYrZAmUzGdvo0xLg7rZoSjPaQ+HMlEKoT35lUpT/sfVOCvT9GPf0Z5PZjVi5ruiJekJK9yxdsEbMXjK9HhaHIVShZZ3OhRLNRbxLNlt/kQj5zKt5dEe+5LV8w0wa6omjA29T86vJ7Yk/k0iLJa4mcXIhRZgTngLNG+pB2cyzRP95db85dPjSlJIUW6bcalMaiv8bj8TmFzZcTXNU/m/QfbEAPwekcIvRBiw+Y3xqeTKAut2MdPCGzRMyEIRPvI4UpTvIR30pPmqqKI11TvwuGu4y9TYsxq1Ve6HHDKXl8fmUJKXDI3w9LRg7GE8GdMCStOiDwZCd7e/vLfnLJ4U+IgMRem/Xrl+ZDk9vJcJFin31T76p45//bj5OdCaAAAAAAAAAAAAAAAAAAAAAAAAAAAAAAAAAAAAAAAAAAAAAAAAAAAAD9kGhLeBwhlC4K2XZNmK6GjNoomZZRZCZ0JQnvJQkROp73FVMVRNNW5Lq9kc5SsDlwiUzcj+hbNSN7jZKs4azWTMmFM0bysIVR35+stwJ+cncJiIvU6k7sKP0VaH6snxOyWo/wDKrc/KeLyen3DrFnaZbU1cD8GzFjCGS7CEMlGrJoqlVdRdVCyqyE9dCUJ66A5iZpnVh46lgyBpIJSGzd7xaVaxRezZKV1l4CohaDNFk99ZimZCN/8AupQYV3BW7nvj3S3HKtGuPwERbvf+lP57vb5vK0cdzpl2cDVdaLrRzxig6EpzVmEJ0LRKPMaTfaYVeAu07nvbthdHmWX4/wDXVon841fvDDK5FWU6u1WZMpJ3k0SqmZKVGzFKvLnnV6Je5KUjRXk8xq7PH38mtitudeU1GFsorD4tQBxsUp/GaQ+Hs/xUeaolZKT7pwN6rdjUYeI0bZRYj/Guap/KJ8dR6akk3LyI8X27B6ysRpbRjbqJQsl3wJVMHgs/Ast+euj6pl2svpp99c6rUsy0f4i9E0YKjWRxz758nqKLcWIvRPdDBwxXc0Edbvgyuayg8FZIUUVR8yOunxp3zPppiiNSmGhYjEXcVcm7eqmqqfrKmfTpV3DrFnaBnZZpXYqyJRBeMfI2QpVRjBFEqwdhnTNIU3Sj8RkojvpSnkROk67t2m1TrqkhleW3s1xNOGsx753Z4o43E+ViU6MssMfXrH+NUJS0hjybJWVZzzqMGSPzGSnAqqiZBr9y5N2qaqnoDLsBayzDU4azHuj7z9ZZA62aAAAAAAAAAAAAAA6Hbk78VKD50B+xoSmW/iVhpi7tj93g6FEorFkQAADXAAJD+1e1sAkAANcBxoy9O6ljl58G5hQgcZw0r30H/J7P698vPxitmAAAAAAAAAAAAAAf2uR9vaLb3gj+cTwbQF4QBqq3g0IYrJVXZrqpnQlCTmJmmdWHXdtUX6Jt3I1aZ90w605HuWY4Jd3OwijG6EsHdHmBskKtGSyUKqPFVVHxrL9r+8p3uujeJvC4qL0a2rdUtom0L3corm/YjVsz/wA/lPhL0W/tXtbDMaekAANcAAkP7V7WwCQAA1wEqNEaIvxLcMMjPGl7Qd2uyAM0tYRCW6+aooqj7U8CEb6T5qqiiNWp3YfD3cVcizZp1ap3IhySyxsrx65Qb/8Awei2s2gMSnW1T0KwSnNXhq6N7TtUfyq95HjITFYmb06kbi69DGhqjJbey3ffdndni/KPGXmkxG2AAAAAAAAAAAAAAAAAAAAAAAAAAAAAAAAAAAAAAAAAAAAAAAAAAAAAAAaOT2UGNUl0bnfHaJj0aQF5u5ohdmuqn8VdX+0ouj+0qlG8lCT7orqt1a6li43BWcwsVYe/GrTLrhk/5UkTcoyK0EbwNqygEZoCzmejpWX/ABlFt78ozn/OZpT1k97rJJ3D4im/T+ajc/0P38kvalXvtzuVeE/m+rmQ14A1wACQ/tXtbAJAADXAAMBLJKTFCSqKy0b46PZnAYBBVVpp0zrtl96ZRmr11lk8CD4uXKbVOuqZuAy/EZlfjD4enVqn7fnLkHlH5RUZ8oKN6z0h6V4G44Esso63ahadVip/fW/vNFu+n6EEFiMRVfq1Z3F5ZDkNnI7Gso99c76eP+nyIx08AAAAAAAAAAAAAAAe99y7+Kj550C/5CUy38SsNMXdsfu8HvMlFYtcAAAAAEh/ava2ASAAGuA40ZendSxy8+DcwoQOM4aV76D/AJPZ/Xvl5+MVswAAAAAAAAAAAAAAB/S7Xk8HND4O9XTDW0DhkFaIasG7FdKi7NdCZ0LKpRvoScxMxOrD5rt03aZorjVifo985PW6LM4ZBoBE6XlZKjZj+SYxgZKToXRvIR0QojrJ3vz0fSjvknh8d+G72qxz7QNMTN/LP4eXk9tOV+OaMbuYvdwPSCvCBQhVC7KEQZqhoouhPAlBJxVFUasK2vWbliubd2mYmPpL+45dbXAAJD+1e1sAkAAMbLplTySyBu5ovGl+M4W+EqJTB3PA1kNIS1W72chG8zR41pvpOi9iKLMf5bqcyjQ9jc4r/wDGnUp+tU7n9/o5ZZRuVbKNlFPdNNQhLti9B2iVoE5oOunRKcCzRP6xebvp63eQghr+Jrvz79xcWR6HcLklH/nGrXO7VO7+nFD4oY6fAAAAAAAAAAAAAAAAAAAAAAAAAAAAAAAAAAAAAAAAAAAAAAAAAAAAAAAAAK0VY2RiiQ/oJGaKr2hDteUCXQ0YwhgvmrKp4E8KE99Cd5J9U1TROrS6MThrWMtTZv066mfpLojk8boDFSOTKCxXleWYuF9zKs1HkhE0DhS3WnW+SWT4/wAXxoJaxjqa/wDG57pVRnugi/hJm9gP86OL6x59719BYXBYfB2cMgMJZQhg1VQszasl0LqLo4UJRvJQSETq7jQqqaqJ1tUaktmHyASH9q9rYBIAAa1KZt9IHnzKEy1pJpCYM3dikPZxijOhVKGbqgLRC2jW7yWzRE6GaPF+d4jFv4uiz7t2Wz5LoVxubzFeprLfKnwj6uWUt8vsokvsZloxR5eiV2TJKUQKAMUpVg0EUT/ZUV4eFZO+khr16u9OrUuHKcnwuT2diw9PTP1npfODqSoAAAAAAAAAAAAAAAA977l38VHzzoF/yEplv4lYaYu7Y/d4PeZKKxa4AAAkU9U7+ACnqnfwAdm/I6G1nT8nAAoGuXMQFA1y5iAp6p38AOPWXS36Jyno4NszMzl4PvTz/qFCBxnDSvfQf8ns/r3y+BmK2YAAAAAAAAAAAAAAAAANzJnLdKhJFDUQuIcbYa72aVs5pBc/Pg7Xzma34qfn652271dqf8ZRuYZRgs0p1uKtxP5/WP1euZOd02aqKsoHKlEVLRKJkLw10NJkp8aWS6ZuRYz7eY8uGiY7S8iZmrBXf0q848no2Le6FZN0YlVNLGdq6Wi3XUeEHaM836UKpR/uZNONs1fVrOI0GZvY3Leu6JiWyY5XuT5CFENGUqMW81PDDkK/7JQdvpFrlQj50O5rT7psVdiW/MsHJrYsUtYdK05lNB/Yg6y8IWXn4EKq+I+ZxVmPxOy1oYze7OpFif19z5BHjdHJDHAyaM4owV+xkhKs6FM2DIgzFKfGsumeaydFeYW6d7703hNAOY3p1b9VNEds/Z5dlT3QCWmPrNs7otNYPFF3tJ1ZoAlK0JSr42y2+iyhBh3Mdcr90e5uWW6CMuwUxXe1blX57nY81Q94Q96wxq8HnDW8LhTdZK7Vs3aJXXXWT10pWTvpSYczM++W4UUU26YpojUiH6Dh9AAAAAAAAAAAAAAAAAAAAAAAAAAAAAAAAAAAAAAAAAAAAAAAAAAAAAAAAAAAAA+oSU5SssMjjRRnE+NkIo9VM6zuhaUtoKt8yi35vzqzHfaxFy1vZQ2ZaH8vzWNXEW/8uOPdPa9lSe7qq5m7NlBZTZOG8FazIQvC3S3Q0ZpT306NeZKPoWSZ1GYx+OGi47S8uU6tWDuxP5Ve77w+4Rey+8myMCiqUR1Zu5ZZE6VIexaMUo+dOalH+5k04yzV9Wt39CGcWP8A6td0TEtMtlRZPD4UQ0XlgizB1WfWzoaqnOn8W9wHZ6Ra5UMKdD2ax7tgq7EF+ZW+TE4WSWjeWR1wlKP7EDZNG611B8zi7NP4mRa0K5venUixMdOpD4zHzdKJJXMzaMYhuB9RhhKJ0KLwhmiCMJ/GlKUrJR9Bj15hRG9jVT2D0v8AG3Z1cTXFEfl758nmCV/Lzl6lXZtnawfSkV3Q1nQmBuidmssqnvLtfz1voShBhXcZcue7chuuWaD8ty6YrmnX1cdXv+2486NGrRs0Watmiy666c5ZZZM6Up4UpMRtMRERqQ/EAAAAAAAAAAAAAAAAAAdA9ysgHRrKP/5bR5q0C708/wAZ4yUy38SsNMXdsfu8Hv6ga5cxJRWJT1Tv4AKeqd/ABT1Tv4ASAAFdw6xZ2gVwAGRA5F5b/dLxu8+D8yoQOM4aV76D/k9n9e+XwkxWzAAAAAAAAAAAAAAAAAAAAAAAAAAAAAAAAAAAAAAAAAAAAAAAAAAAAAAAAAAAAAAAAAAAAAAAAAAAAAAAAAAAAAAAAAAAAAAAAAAAAAAAAAAAAAAAAAAAAA6Hbk78VKD50B+xoSmW/iVhpi7tj93g6FEorFkQAAAAAruHWLO0CuAAyIHIvLf7peN3nwfmVCBxnDSvfQf8ns/r3y+EmK2YAAAAAAAAAAAAAAAAAAAAAAAAAAAAAAAAAAAAAAAAAAAAAAAAAAAAAAAAAAAAAAAAAAAAAAAAAAAAAAAAAAAAAAAAAAAAAAAAAAAAAAAAAAAAAAAAAAAAHQ7cnfipQfOgP2NCUy38SsNMXdsfu8HQolFYsiAAAa4ABIf2r2tgEgABrgONGXp3UscvPg3MKEDjOGle+g/5PZ/Xvl5+MVswAAAAAAAAAAAAAAAAAAAAAAAAAAAAAAAAAAAAAAAAAAAAAAAAAAAAAAAAAAAAAAAAAAAAAAAAAAAAAAAAAAAAAAAAAAAAAAAAAAAAAAAAAAAAAAAAAAAAPe+5d/FR886Bf8hKZb+JWGmLu2P3eD3mSisWuAAAAACQ/tXtbAJAADXAcaMvTupY5efBuYUIHGcNK99B/wAns/r3y8/GK2YAAAAAABoosScx9jqlP4JROfD2QjrrQSBrtFUWkImPum3VXvY1WJiMfhcJw9yKemYbBGS1lEp3/gcjP6isffo93kywvWDK+fp7TpWsonicjP6ksPR7vJk9YMr5+ntfg1yYcoNjNpZIYyqZ3WngS2+PR7vJk9YMr5+ntfr6WiX3iljJ6mkej3eTJ6wZXz9PadLRL7xSxk9TSPR7vJk9YMr5+ntfv6VrKJ4nIz+pLD0e7yZPWDK+fp7TpWsonicjP6ksPR7vJk9YMr5+ntfg1yYcoNjNpZIYyqZ3WngS2+PR7vJk9YMr5+ntfr6WiX3iljJ6mkej3eTJ6wZXz9PadLRL7xSxk9TSPR7vJk9YMr5+ntfv6VrKJ4nIz+pLD0e7yZPWDK+fp7TpWsonicjP6ksPR7vJk9YMr5+ntfg1yYcoNjNpZIYyqZ3WngS2+PR7vJk9YMr5+ntfr6WiX3iljJ6mkej3eTJ6wZXz9PadLRL7xSxk9TSPR7vJk9YMr5+ntfv6VrKJ4nIz+pLD0e7yZPWDK+fp7TpWsonicjP6ksPR7vJk9YMr5+ntfg1yYcoNjNpZIYyqZ3WngS2+PR7vJk9YMr5+ntfr6WiX3iljJ6mkej3eTJ6wZXz9PadLRL7xSxk9TSPR7vJk9YMr5+ntfv6VrKJ4nIz+pLD0e7yZPWDK+fp7TpWsonicjP6ksPR7vJk9YMr5+ntfg1yYcoNjNpZIYyqZ3WngS2+PR7vJk9YMr5+ntfr6WiX3iljJ6mkej3eTJ6wZXz9PadLRL7xSxk9TSPR7vJk9YMr5+ntfv6VrKJ4nIz+pLD0e7yZPWDK+fp7TpWsonicjP6ksPR7vJk9YMr5+ntfg1yYcoNjNpZIYyqZ3WngS2+PR7vJk9YMr5+ntfr6WiX3iljJ6mkej3eTJ6wZXz9PadLRL7xSxk9TSPR7vJk9YMr5+ntfv6VrKJ4nIz+pLD0e7yZPWDK+fp7TpWsonicjP6ksPR7vJk9YMr5+ntfg1yYcoNjNpZIYyqZ3WngS2+PR7vJk9YMr5+ntfr6WiX3iljJ6mkej3eTJ6wZXz9PadLRL7xSxk9TSPR7vJk9YMr5+ntfv6VrKJ4nIz+pLD0e7yZPWDK+fp7TpWsonicjP6ksPR7vJk9YMr5+ntfg1yYcoNjNpZIYyqZ3WngS2+PR7vJk9YMr5+ntfr6WiX3iljJ6mkej3eTJ6wZXz9PadLRL7xSxk9TSPR7vJk9YMr5+ntfv6VrKJ4nIz+pLD0e7yZPWDK+fp7TpWsonicjP6ksPR7vJk9YMr5+ntfg1yYcoNjNpZIYyqZ3WngS2+PR7vJk9YMr5+ntfr6WiX3iljJ6mkej3eTJ6wZXz9PadLRL7xSxk9TSPR7vJk9YMr5+ntfv6VrKJ4nIz+pLD0e7yZPWDK+fp7TpWsonicjP6ksPR7vJk9YMr5+ntfg1yYcoNjNpZIYyqZ3WngS2+PR7vJk9YMr5+ntfr6WiX3iljJ6mkej3eTJ6wZXz9PadLRL7xSxk9TSPR7vJk9YMr5+ntfv6VrKJ4nIz+pLD0e7yZPWDK+fp7TpWsonicjP6ksPR7vJk9YMr5+ntfg1yYcoNjNpZIYyqZ3WngS2+PR7vJk9YMr5+ntfr6WiX3iljJ6mkej3eTJ6wZXz9PadLRL7xSxk9TSPR7vJk9YMr5+ntfv6VrKJ4nIz+pLD0e7yZPWDK+fp7TpWsonicjP6ksPR7vJk9YMr5+ntfg1yYcoNjNpZIYyqZ3WngS2+PR7vJk9YMr5+ntfr6WiX3iljJ6mkej3eTJ6wZXz9PadLRL7xSxk9TSPR7vJk9YMr5+ntfv6VrKJ4nIz+pLD0e7yZPWDK+fp7TpWsonicjP6ksPR7vJk9YMr5+ntfg1yYcoNjNpZIYyqZ3WngS2+PR7vJk9YMr5+ntfr6WiX3iljJ6mkej3eTJ6wZXz9PadLRL7xSxk9TSPR7vJk9YMr5+ntfv6VrKJ4nIz+pLD0e7yZPWDK+fp7TpWsonicjP6ksPR7vJk9YMr5+ntfg1yYcoNjNpZIYyqZ3WngS2+PR7vJk9YMr5+ntfr6WiX3iljJ6mkej3eTJ6wZXz9PadLRL7xSxk9TSPR7vJk9YMr5+ntfv6VrKJ4nIz+pLD0e7yZPWDK+fp7TpWsonicjP6ksPR7vJk9YMr5+ntfg1yYcoNjNpZIYyqZ3WngS2+PR7vJk9YMr5+ntfr6WiX3iljJ6mkej3eTJ6wZXz9PadLRL7xSxk9TSPR7vJk9YMr5+ntfv6VrKJ4nIz+pLD0e7yZPWDK+fp7TpWsonicjP6ksPR7vJk9YMr5+ntfg1yYcoNjNpZIYyqZ3WngS2+PR7vJk9YMr5+ntfr6WiX3iljJ6mkej3eTJ6wZXz9PadLRL7xSxk9TSPR7vJk9YMr5+ntfv6VrKJ4nIz+pLD0e7yZPWDK+fp7TpWsonicjP6ksPR7vJk9YMr5+ntfg1yYcoNjNpZIYyqZ3WngS2+PR7vJk9YMr5+ntfr6WiX3iljJ6mkej3eTJ6wZXz9PadLRL7xSxk9TSPR7vJk9YMr5+ntRY0SOSrRKYdFRsk7jA62COu1hEAaKqI+daaZB81Wq6N9DKw+Z4LFzqWbtNU/lMMcdbOAAAAAAAe99y7+Kj550C/5CUy38SsNMXdsfu8HvMlFYtcAAASKeqd/ABT1Tv4AOzfkdDazp+TgAUDXLmICga5cxAU9U7+AHHrLpb9E5T0cG2ZmZy8H3p5/1ChA4zhpXvoP+T2f175fAzFbMAAAAAB72yM8gyBRrc8ClXlkgqyYFCkIbOpytFUoQ2Z95s230JzU9dVXvo308BJ4TBxVGvudittFOi+uxXOCwE++N9VxflHm6AOuJbrckCZO1zsoPAoIwVQozYweDoZqKIR3kIQmYlIiIjUhV1y7Xeqmu5MzM/WX9dPVO/gcvgp6p38AHZvyOhtZ0/JwAKBrlzEBQNcuYgKeqd/ABT1Tv4AOzfkdDazp+TgAUDXLmICga5cxAU9U7+ACnqnfwAdm/I6G1nT8nAAoGuXMQFA1y5iAp6p38AFPVO/gA7N+R0NrOn5OABQNcuYgKBrlzEBT1Tv4AKeqd/AB2b8jobWdPycACga5cxAUDXLmICnqnfwAU9U7+ADs35HQ2s6fk4AFA1y5iAoGuXMQFPVO/gAp6p38AHZvyOhtZ0/JwAKBrlzEBQNcuYgKeqd/ABT1Tv4AOzfkdDazp+TgAUDXLmICga5cxAU9U7+ACnqnfwAdm/I6G1nT8nAAoGuXMQFA1y5iAp6p38AFPVO/gA7N+R0NrOn5OABQNcuYgKBrlzEBT1Tv4AKeqd/AB2b8jobWdPycACga5cxAUDXLmICnqnfwAU9U7+ADs35HQ2s6fk4AFA1y5iAoGuXMQFPVO/gAp6p38AHZvyOhtZ0/JwAKBrlzEBQNcuYgKeqd/ABT1Tv4AOzfkdDazp+TgAUDXLmICga5cxAU9U7+ACnqnfwAdm/I6G1nT8nAAoGuXMQFA1y5iAp6p38AFPVO/gA7N+R0NrOn5OABQNcuYgKBrlzEBT1Tv4AKeqd/AB2b8jobWdPycACga5cxAUDXLmIH64Q9oPC2K8HhTsZtmTRGauzaTLKrI4EoSiZI3XNNU0zq0z73ivK2yI4rxydcNj/I64WbnjDB1Vm8JdkH3oPD1Ub62YrNMo04Jt5PAR+JwcVRrre63/Q1oxu4aunC4+rXUT7oqndjp44c2WzFrB2y8Hbs1mbVkslRdRZEyVVkJmShKO8kh1uRMVRqw/AOQAAAAdA9ysgHRrKP/AOW0eatAu9PP8Z4yUy38SsNMXdsfu8Hv6ga5cxJRWJT1Tv4AKeqd/ABT1Tv4ASAAFdw6xZ2gVwAGRA5F5b/dLxu8+D8yoQOM4aV76D/k9n9e+XwkxWzAAAAA+w5JckzKWWXWLsUoexS0djJqmHvFE28mDsUZyyqfOTmq2jvw1vZbkUyg9EeYzleXXL9O+3I6Zds4OwYwVgzgsGZKsmLFRDNmoqiZVVVCJkIQjgQg2F5/qmap1Z3X7A4ZEABXcOsWdoFcABkQAFdw6xZ2gVwAGRAAV3DrFnaBXAAZEABXcOsWdoFcABkQAFdw6xZ2gVwAGRAAV3DrFnaBXAAZEABXcOsWdoFcABkQAFdw6xZ2gVwAGRAAV3DrFnaBXAAZEABXcOsWdoFcABkQAFdw6xZ2gVwAGRAAV3DrFnaBXAAZEABXcOsWdoFcABkQAFdw6xZ2gVwAGRAAV3DrFnaBXAAZEABXcOsWdoFcABkQAFdw6xZ2gVwAGRAAcscv6SaCyeSyfhC54Khi7Y2MUw9CqisyqkJQtM1Qj50zLWkkJjrWx3NWPquvQTmdWPy/Yrk6tVudT9Pp5PMZhNyAAAAB0O3J34qUHzoD9jQlMt/ErDTF3bH7vB0KJRWLIgAAAABXcOsWdoFcABkQOReW/wB0vG7z4PzKhA4zhpXvoP8Ak9n9e+XwkxWzAAAAA9vblS7WEIlTjg811UJawNxs1FE8CF2yJ/5UEjl0f5zP5K+0w65pwdqjjq7odOiXVGAZEABXcOsWdoFcABkQAFdw6xZ2gVwAGRAAV3DrFnaBXAAZEABXcOsWdoFcABkQAFdw6xZ2gVwAGRAAV3DrFnaBXAAZEABXcOsWdoFcABkQAFdw6xZ2gVwAGRAAV3DrFnaBXAAZEABXcOsWdoFcABkQAFdw6xZ2gVwAGRAAV3DrFnaBXAAZEABXcOsWdoFcABkQAFdw6xZ2gVwAGRAAV3DrFnaBXAAZEABXcOsWdoFcABkQAFdw6xZ2gVwAGRAAeKt09drBpEOJ72SojTMXs2YIW7+asySlKOVVBG5jH+NMrG0u7kxib1H01sT93OoiVrgAAAA6Hbk78VKD50B+xoSmW/iVhpi7tj93g6FEorFkQAADXAAJD+1e1sAkAANcBxoy9O6ljl58G5hQgcZw0r30H/J7P698vPxitmAAAAB7W3L/APTyOvomD88SWXb6pXemL8LZ609zooSypgDXAAJD+1e1sAkAANcAAkP7V7WwCQAA1wACQ/tXtbAJAADXAAJD+1e1sAkAANcAAkP7V7WwCQAA1wACQ/tXtbAJAADXAAJD+1e1sAkAANcAAkP7V7WwCQAA1wACQ/tXtbAJAADXAAJD+1e1sAkAANcAAkP7V7WwCQAA1wACQ/tXtbAJAADXAAJD+1e1sAkAANcAAkP7V7WwCQAA1wACQ/tXtbAJAADXAAJD+1e1sAkAANcAAkP7V7WwCQAA1wADw1urPa0iV6abcyR2Y7yFhaXnxl3qx3uZhELbAAAAB733Lv4qPnnQL/kJTLfxKw0xd2x+7we8yUVi1wAAAAASH9q9rYBIAAa4DjRl6d1LHLz4NzChA4zhpXvoP+T2f175efjFbMAAAAD2tuX/AOnkdfRMH54ksu31Su9MX4Wz1p7nRQllTAGuAASH9q9rYBIAAa4ABIf2r2tgEgABrgAEh/ava2ASAAGuAASH9q9rYBIAAa4ABIf2r2tgEgABrgAEh/ava2ASAAGuAASH9q9rYBIAAa4ABIf2r2tgEgABrgAEh/ava2ASAAGuAASH9q9rYBIAAa4ABIf2r2tgEgABrgAEh/ava2ASAAGuAASH9q9rYBIAAa4ABIf2r2tgEgABrgAEh/ava2ASAAGuAASH9q9rYBIAAa4ABIf2r2tgEgABrgAHhrdWe1pEr0025kjsx3kLC0vPjLvVjvczCIW2AAAAD3vuXfxUfPOgX/ISmW/iVhpi7tj93g95korFrgAACRT1Tv4AKeqd/AB2b8jobWdPycACga5cxAUDXLmICnqnfwA49ZdLfonKejg2zMzOXg+9PP8AqFCBxnDSvfQf8ns/r3y+BmK2YAAAAHuDcsIF0bH6PCmkzM10QdPWnn/LJ3iSy7fVK70xfhbPWnudIaBrlzEllTFA1y5iAp6p38AFPVO/gA7N+R0NrOn5OABQNcuYgKBrlzEBT1Tv4AKeqd/AB2b8jobWdPycACga5cxAUDXLmICnqnfwAU9U7+ADs35HQ2s6fk4AFA1y5iAoGuXMQFPVO/gAp6p38AHZvyOhtZ0/JwAKBrlzEBQNcuYgKeqd/ABT1Tv4AOzfkdDazp+TgAUDXLmICga5cxAU9U7+ACnqnfwAdm/I6G1nT8nAAoGuXMQFA1y5iAp6p38AFPVO/gA7N+R0NrOn5OABQNcuYgKBrlzEBT1Tv4AKeqd/AB2b8jobWdPycACga5cxAUDXLmICnqnfwAU9U7+ADs35HQ2s6fk4AFA1y5iAoGuXMQFPVO/gAp6p38AHZvyOhtZ0/JwAKBrlzEBQNcuYgKeqd/ABT1Tv4AOzfkdDazp+TgAUDXLmICga5cxAU9U7+ACnqnfwAdm/I6G1nT8nAAoGuXMQFA1y5iAp6p38AFPVO/gA7N+R0NrOn5OABQNcuYgKBrlzEBT1Tv4AKeqd/AB2b8jobWdPycACga5cxAUDXLmICnqnfwAU9U7+ADs35HQ2s6fk4AFA1y5iAoGuXMQFPVO/gAp6p38AHZvyOhtZ0/JwAKBrlzEBQNcuYgKeqd/ABT1Tv4AOzfkdDazp+TgAUDXLmICga5cxAU9U7+ACnqnfwA8UbqTDOjpMYoL6PM0b7aI68887BP3EdmO8hYWl58Ze6vi5qkQtsAAAAHQPcrIB0ayj/wDltHmrQLvTz/GeMlMt/ErDTF3bH7vB7+oGuXMSUViU9U7+ACnqnfwAU9U7+AEgABXcOsWdoFcABkQOReW/3S8bvPg/MqEDjOGle+g/5PZ/Xvl8JMVswAAAAPdW5RdsCPfoaDc8kkcu39Su9MX4Wz1p7nS4l1TAGRAAV3DrFnaBXAAZEABXcOsWdoHk/LbyvJScnWOjgi9El3OWEQZ6O1eFtkw5guushdDRKu8lVZG9MgwMXia7FURS3rQpoawmd4e5dxEzE0zqe6fyeceqhy/f4FFP1Nr/AFDF2wu8UNq9QMt5VXbHkndUolz/AMFiv6o0/qDbC7xQeoGW8qrtjyOqUS5/4LFf1Rp/UG2F3ig9QMt5VXbHk/pgm6ay8wPP0TjiqnPmnngjXvf/AMnjG2F3ig9QMt5VXbHk/o6qHL9/gUU/U2v9QbYXeKD1Ay3lVdseR1UOX7/Aop+ptf6g2wu8UHqBlvKq7Y8k7qlEuf8AgsV/VGn9QbYXeKD1Ay3lVdseR1SiXP8AwWK/qjT+oNsLvFB6gZbyqu2PJ/RBN01l5gefonHFVOfNPPBGven8p4xthd4oPUDLeVV2x5OmslsZ4fHSTeLMbXozZKQx8OuDw1uqyQlCiF2iiFkoVQnvTpJa3VNVEVSqfMMPThcXcsUblMzEfo1J9sNkQAFdw6xZ2gVwAGRAAZeV2Pb3kxkdjnH5wsYO1eDkd6YVB1IQqlZmsuhP9pCEoSlG/wAJ13q5t25qj6JLJ8HRj8daw13e1TqTqPAPVRJff8Bin6o1/qEVthd4oWl6gZbyqu2PI6qJL7/gMU/VGv8AUG2F3ig9QMt5VXbHkndUolz/AMEiv6o0/qDbC7xQeoGW8qrtjyOqUS5/4JFf1Rp/UG2F3ig9QMt5VXbHk/ogm6bS8QPP0biiqnPmnngjXvT+U8Y2wu8UHqBlvKq7Y8n9PVRJff8AAYp+qNf6g2wu8UHqBlvKq7Y8jqokvv8AgMU/VGv9QbYXeKD1Ay3lVdseSd1SiXP/AASK/qjT+oNsLvFB6gZbyqu2PI6pRLn/AIJFf1Rp/UG2F3ig9QMt5VXbHk9V5CmU3HzKCh0bYNHKAuqDqudlBWjDoJksolKV0roTnZyyZ+sgzMJiK78zrvo0/RZoewuR02pw8zOu1dXV/J66M1pYBkQAFdw6xZ2gVwAGRAAeFJd8vaV+SCV+M0Q4tuiLzZ3uyEKMmK8KgzRZolGYhbfShdCOusnvEXfxty3cmmFnZHoNwOZYC3irtVWuqj36kxx9DCdVEl9/wGKfqjX+odW2F3ihLeoGW8qrtjyOqiS+/wCAxT9Ua/1Bthd4oPUDLeVV2x5J3VKJc/8ABIr+qNP6g2wu8UHqBlvKq7Y8jqlEuf8AgkV/VGn9QbYXeKD1Ay3lVdseT+iCbptLxA8/RuKKqc+aeeCNe9P5TxjbC7xQeoGW8qrtjyf09VEl9/wGKfqjX+oNsLvFB6gZbyqu2PI6qJL7/gMU/VGv9QbYXeKD1Ay3lVdseSd1SiXP/BIr+qNP6g2wu8UHqBlvKq7Y8lmJW6IS1Riji4nBDXNFpWDvJ5QaCNUqQVohZCjRqqqslCc/rzJSfVGPuVVRGpDHxegXLrGHru01VatMTO7H0jodNXDrFnaS6o1cABkQAFdw6xZ2gVwAGRA+D5YMuUbZBZP3bGiJ8Fd7eFQt5qwNdWGM1l1EKJUWWnQhCUb86qDFxV6qxRFVLZ9C2T2M6xVVnETMRFOr7ul5Igm6bS8QPP0biiqnPmnngjXvT+U8ZgbYXeKG++oGW8qrtjyf09VEl9/wGKfqjX+oNsLvFB6gZbyqu2PI6qJL7/gMU/VGv9QbYXeKD1Ay3lVdseSd1SiXP/BIr+qNP6g2wu8UHqBlvKq7Y8jqlEuf+CRX9Uaf1Bthd4oPUDLeVV2x5P6IJum0vEDz9G4oqpz5p54I170/lPGNsLvFB6gZbyqu2PJ/T1USX3/AYp+qNf6g2wu8UHqBlvKq7Y8jqokvv+AxT9Ua/wBQbYXeKD1Ay3lVdseSd1SiXP8AwSK/qjT+oNsLvFB6gZbyqu2PJ7VyU5XYyS2yTMI8Rrg0CYQ9pDoRBkqQRRKjPNUShCN5KUpn3+EkcNdqvUa6pXeiXK7OUY6cNYmZp1In3/m+8uHWLO0yGvq4ADIgAK7h1iztArgAMiAA8bbpz2rYrenVuYXI7Md5CwtLz4y91fFzeIhbYAAAAOh25O/FSg+dAfsaEplv4lYaYu7Y/d4OhRKKxZEAAAAAK7h1iztArgAMiByLy3+6Xjd58H5lQgcZw0r30H/J7P698vhJitmAAAAB7q3KLtgR79DQbnkkjl2/qV3pi/C2etPc6XEuqYAyIACu4dYs7QK4ADIgAK7h1iztA5vbqx20oneg2nPpIjMd/C29Lv4O91o7nh8jlhAAAAAAAAADuxk+9o6In+n4FzSpsdng6eh51zr5jf60976AdqMZEABXcOsWdoFcABkQAHzTKj7mWUv0Mt/MdGJ4GpO6Gfm9jrOMBrz0AAAAAAAAAAOgG5O9lpQ/3aA/zNSTy3dqVppi7yx01eDowSqrQDIgAK7h1iztArgAMiAA4/5ZvdLR3/fVOaUIDF8NUvvQn8nsdHjL4qYzYgAAAAAAADUSV9s6KPpyAc+odlrfx0sPMfg7vVq7pd2XDrFnabI83K4ADIgAK7h1iztArgAMiB5D3S/tNOP06pzS5gZhwcdLfdL75hX1fGHNEhlwAAAAAAAAADqhueHc5wT0rDP5kE5geBUpo6+bz1aXrFw6xZ2mY01XAAZEABXcOsWdoFcABkQAHjbdOe1bFb06tzC5HZjvIWFpefGXur4ubxELbAAAAB0O3J34qUHzoD9jQlMt/ErDTF3bH7vB0KJRWLIgAAGuAASH9q9rYBIAAa4DjRl6d1LHLz4NzChA4zhpXvoP+T2f175efjFbMAAAAD2tuX/6eR19EwfniSy7fVK70xfhbPWnudFCWVMAa4ABIf2r2tgEgABrgAEh/ava2Acy9077ZcUvQrTnkkRmO/hbel38He60dzxkRywgAAAAAAAAB2wkI7TESfQUD5pU2OxwdPQ865z8xv8AWq726O1GNcAAkP7V7WwCQAA1wAD4blo9zjHb0Q2+1Q6MVwNSd0M/N8P1nFk156AAAAAAAAAAHuzcu+yUfP8AJgX8zQk8t3alaaYu8sdNXg9/Eqq0A1wACQ/tXtbAJAADXAAOLWW93UcfP31nzKhAYvhql96E/k9jo8ZfDDGbEAAAAAAAAaySTtqxN9Pu/wD7hQ+7W/jpYWZfBXurV3S7qv7V7Ww2V5vSAAGuAASH9q9rYBIAAa4DxjupfaRcH+oFOZaEfmPBx0t80vvmFfV8YctSHXCAAAAAAAAAOt+5r9zNA/S8N/mQTeA4FSmjr5tPVh6Sf2r2thmtNSAAGuAASH9q9rYBIAAa4AB4a3VntaRK9NNuZI7Md5CwtLz4y71Y73MwiFtgAAAA977l38VHzzoF/wAhKZb+JWGmLu2P3eD3mSisWuAAAAACQ/tXtbAJAADXAcaMvTupY5efBuYUIHGcNK99B/yez+vfLz8YrZgAAAAe1ty//TyOvomD88SWXb6pXemL8LZ609zooSypgDXAAJD+1e1sAkAANcAAkP7V7WwDmXunfbLil6Fac8kiMx38Lb0u/g73WjueMiOWEAAAAAAAAAO2EhHaYiT6CgfNKmx2ODp6HnXOfmN/rVd7dHajGuAASH9q9rYBIAAa4AB8Ny0e5xjt6IbfaodGK4GpO6Gfm+H6ziya89AAAAAAAAAAD3ZuXfZKPn+TAv5mhJ5bu1K00xd5Y6avB7+JVVoBrgAEh/ava2ASAAGuAAcWst7uo4+fvrPmVCAxfDVL70J/J7HR4y+GGM2IAAAAAAAA1kknbVib6fd//cKH3a38dLCzL4K91au6XdV/ava2GyvN6QAA1wACQ/tXtbAJAADXAeMd1L7SLg/1ApzLQj8x4OOlvml98wr6vjDlqQ64QAAAAAAAAB1v3NfuZoH6Xhv8yCbwHAqU0dfNp6sPST+1e1sM1pqQAA1wACQ/tXtbAJAADXAAPDW6s9rSJXpptzJHZjvIWFpefGXerHe5mEQtsAAAAHvfcu/io+edAv8AkJTLfxKw0xd2x+7we8yUVi1wAABIp6p38AFPVO/gA7N+R0NrOn5OABQNcuYgKBrlzEBT1Tv4Acesulv0TlPRwbZmZnLwfenn/UKEDjOGle+g/wCT2f175fAzFbMAAAAD3BuWEC6Nj9HhTSZma6IOnrTz/lk7xJZdvqld6YvwtnrT3OkNA1y5iSypiga5cxAU9U7+ACnqnfwAdm/I6G1nT8nAAoGuXMQFA1y5iAp6p38AFPVO/gA7N+R0NrOn5OADmpupMC6ClOigppc/OcjRM80365JEZjv4W3pd/B3utHc8UkcsIAAAAAAAAAdw5A3LpZE4jNOi5s5wwJM2Z5JXxmx2eDp6HnXOvmN/rT3t9QNcuYnajCnqnfwAU9U7+ADs35HQ2s6fk4AFA1y5iAoGuXMQFPVO/gAp6p38APkOV01pTJrlBbTaPodztEzTz506UfNwHRieBqTuhn5vY6zi4a89AAAAAAAAAAD3tuVkC6Nekf1dJmZkHgSetPP+M0JPLd2pWmmLvLHTV4OhdA1y5iSqrSga5cxAU9U7+ACnqnfwAdm/I6G1nT8nAAoGuXMQFA1y5iAp6p38AFPVO/gBxty1m3RGU5HltmzZ0NZ708/6lQgMXw1S+9Cfyex0eMviBjNiAAAAAAAANVJOtmSoxPXmnzX9AEzf/YUOy1v46WFmXwd3q1d0u6/ZvyOhtZ0/JwGyPN5QNcuYgKBrlzEBT1Tv4AKeqd/AB2b8jobWdPycACga5cxAUDXLmICnqnfwA8c7p68+jJFnEz6HzJn8omfOn/VL+IwMw4OOlvul98wr6vjDmIQy4AAAAAAAAAB1f3OR6dCZNkEY9D5//q0NTPnTf2keIm8BwKlNHXzeerD1F2b8jobWdPycBmtNKBrlzEBQNcuYgKeqd/ABT1Tv4AOzfkdDazp+TgAUDXLmICga5cxAU9U7+ACnqnfwA8UbqTDOjpMYoL6PM0b7aI68887BP3EdmO8hYWl58Ze6vi5qkQtsAAAAHQPcrIB0ayj/APltHmrQLvTz/GeMlMt/ErDTF3bH7vB7+oGuXMSUViU9U7+ACnqnfwAU9U7+AEgABXcOsWdoFcABkQOReW/3S8bvPg/MqEDjOGle+g/5PZ/Xvl8JMVswAAAAPdW5RdsCPfoaDc8kkcu39Su9MX4Wz1p7nS4l1TAGRAAV3DrFnaBXAAZEABXcOsWdoHN7dWO2lE70G059JEZjv4W3pd/B3utHc8PkcsIAAAAAAAAAd2Mn3tHRE/0/AuaVNjs8HT0POudfMb/WnvfQDtRjIgAK7h1iztArgAMiAA+aZUfcyyl+hlv5joxPA1J3Qz83sdZxgNeegAAAAAAAAAB0A3J3stKH+7QH+ZqSeW7tStNMXeWOmrwdGCVVaAZEABXcOsWdoFcABkQAHH/LN7paO/76pzShAYvhql96E/k9jo8ZfFTGbEAAAAAAAAaiSvtnRR9OQDn1Dstb+Olh5j8Hd6tXdLuy4dYs7TZHm5XAAZEABXcOsWdoFcABkQPIe6X9ppx+nVOaXMDMODjpb7pffMK+r4w5okMuAAAAAAAAAAdUNzw7nOCelYZ/MgnMDwKlNHXzeerS9YuHWLO0zGmq4ADIgAK7h1iztArgAMiAA8bbpz2rYrenVuYXI7Md5CwtLz4y91fFzeIhbYAAAAOh25O/FSg+dAfsaEplv4lYaYu7Y/d4OhRKKxZEAAAAAK7h1iztArgAMiByLy3+6Xjd58H5lQgcZw0r30H/ACez+vfL4SYrZgAAAAe6tyi7YEe/Q0G55JI5dv6ld6YvwtnrT3OlxLqmAMiAAruHWLO0CuAAyIACu4dYs7QOb26sdtKJ3oNpz6SIzHfwtvS7+DvdaO54fI5YQAAAAAAAAA7sZPvaOiJ/p+Bc0qbHZ4Onoedc6+Y3+tPe+gHajGRAAV3DrFnaBXAAZEAB80yo+5llL9DLfzHRieBqTuhn5vY6zjAa89AAAAAAAAAADoBuTvZaUP8AdoD/ADNSTy3dqVppi7yx01eDowSqrQDIgAK7h1iztArgAMiAA4/5ZvdLR3/fVOaUIDF8NUvvQn8nsdHjL4qYzYgAAAAAAADUSV9s6KPpyAc+odlrfx0sPMfg7vVq7pd2XDrFnabI83K4ADIgAK7h1iztArgAMiB5D3S/tNOP06pzS5gZhwcdLfdL75hX1fGHNEhlwAAAAAAAAADqhueHc5wT0rDP5kE5geBUpo6+bz1aXrFw6xZ2mY01XAAZEABXcOsWdoFcABkQAHjbdOe1bFb06tzC5HZjvIWFpefGXur4ubxELbAAAAB0O3J34qUHzoD9jQlMt/ErDTF3bH7vB0KJRWLIgAAGuAASH9q9rYBIAAa4DjRl6d1LHLz4NzChA4zhpXvoP+T2f175efjFbMAAAAD2tuX/AOnkdfRMH54ksu31Su9MX4Wz1p7nRQllTAGuAASH9q9rYBIAAa4ABIf2r2tgHMvdO+2XFL0K055JEZjv4W3pd/B3utHc8ZEcsIAAAAAAAAAdsJCO0xEn0FA+aVNjscHT0POuc/Mb/Wq726O1GNcAAkP7V7WwCQAA1wAD4blo9zjHb0Q2+1Q6MVwNSd0M/N8P1nFk156AAAAAAAAAAHuzcu+yUfP8mBfzNCTy3dqVppi7yx01eD38SqrQDXAAJD+1e1sAkAANcAA4tZb3dRx8/fWfMqEBi+GqX3oT+T2Ojxl8MMZsQAAAAAAABrJJO2rE30+7/wDuFD7tb+OlhZl8Fe6tXdLuq/tXtbDZXm9IAAa4ABIf2r2tgEgABrgPGO6l9pFwf6gU5loR+Y8HHS3zS++YV9Xxhy1IdcIAAAAAAAAA637mv3M0D9Lw3+ZBN4DgVKaOvm09WHpJ/ava2Ga01IAAa4ABIf2r2tgEgABrgAHhrdWe1pEr0025kjsx3kLC0vPjLvVjvczCIW2AAAAD3vuXfxUfPOgX/ISmW/iVhpi7tj93g95korFrgAAAAAkP7V7WwCQAA1wHGjL07qWOXnwbmFCBxnDSvfQf8ns/r3y8/GK2YAAAAHtbcv8A9PI6+iYPzxJZdvqld6YvwtnrT3OihLKmANcAAkP7V7WwCQAA1wACQ/tXtbAOZe6d9suKXoVpzySIzHfwtvS7+DvdaO54yI5YQAAAAAAAAA7YSEdpiJPoKB80qbHY4Onoedc5+Y3+tV3t0dqMa4ABIf2r2tgEgABrgAHw3LR7nGO3oht9qh0Yrgak7oZ+b4frOLJrz0AAAAAAAAAAPdm5d9ko+f5MC/maEnlu7UrTTF3ljpq8Hv4lVWgGuAASH9q9rYBIAAa4ABxay3u6jj5++s+ZUIDF8NUvvQn8nsdHjL4YYzYgAAAAAAADWSSdtWJvp93/APcKH3a38dLCzL4K91au6XdV/ava2GyvN6QAA1wACQ/tXtbAJAADXAeMd1L7SLg/1ApzLQj8x4OOlvml98wr6vjDlqQ64QAAAAAAAAB1v3NfuZoH6Xhv8yCbwHAqU0dfNp6sPST+1e1sM1pqQAA1wACQ/tXtbAJAADXAAPDW6s9rSJXpptzJHZjvIWFpefGXerHe5mEQtsAAAAHvfcu/io+edAv+QlMt/ErDTF3bH7vB7zJRWLXAAAEinqnfwAU9U7+ADs35HQ2s6fk4AFA1y5iAoGuXMQFPVO/gBx6y6W/ROU9HBtmZmcvB96ef9QoQOM4aV76D/k9n9e+XwMxWzAAAAA9wblhAujY/R4U0mZmuiDp608/5ZO8SWXb6pXemL8LZ609zpDQNcuYksqYoGuXMQFPVO/gAp6p38AHZvyOhtZ0/JwAKBrlzEBQNcuYgKeqd/ABT1Tv4AOzfkdDazp+TgA5qbqTAugpTooKaXPznI0TPNN+uSRGY7+Ft6Xfwd7rR3PFJHLCAAAAAAAAAHcOQNy6WROIzToubOcMCTNmeSV8Zsdng6eh51zr5jf6097fUDXLmJ2owp6p38AFPVO/gA7N+R0NrOn5OABQNcuYgKBrlzEBT1Tv4AKeqd/AD5DldNaUya5QW02j6Hc7RM08+dOlHzcB0Yngak7oZ+b2Os4uGvPQAAAAAAAAAA97blZAujXpH9XSZmZB4EnrTz/jNCTy3dqVppi7yx01eDoXQNcuYkqq0oGuXMQFPVO/gAp6p38AHZvyOhtZ0/JwAKBrlzEBQNcuYgKeqd/ABT1Tv4AcbctZt0RlOR5bZs2dDWe9PP+pUIDF8NUvvQn8nsdHjL4gYzYgAAAAAAADVSTrZkqMT15p81/QBM3/2FDstb+OlhZl8Hd6tXdLuv2b8jobWdPycBsjzeUDXLmICga5cxAU9U7+ACnqnfwAdm/I6G1nT8nAAoGuXMQFA1y5iAp6p38APHO6evPoyRZxM+h8yZ/KJnzp/1S/iMDMODjpb7pffMK+r4w5iEMuAAAAAAAAAAdX9zkenQmTZBGPQ+f8A+rQ1M+dN/aR4ibwHAqU0dfN56sPUXZvyOhtZ0/JwGa00oGuXMQFA1y5iAp6p38AFPVO/gA7N+R0NrOn5OABQNcuYgKBrlzEBT1Tv4AKeqd/ADxRupMM6Okxigvo8zRvtojrzzzsE/cR2Y7yFhaXnxl7q+LmqRC2wAAAAdA9ysgHRrKP/AOW0eatAu9PP8Z4yUy38SsNMXdsfu8Hv6ga5cxJRWJT1Tv4AKeqd/ABT1Tv4ASAAFdw6xZ2gVwAGRA5F5b/dLxu8+D8yoQOM4aV76D/k9n9e+XwkxWzAAAAA91blF2wI9+hoNzySRy7f1K70xfhbPWnudLiXVMAZEABXcOsWdoFcABkQAFdw6xZ2gc3t1Y7aUTvQbTn0kRmO/hbel38He60dzw+RywgAAAAAAAAB3Yyfe0dET/T8C5pU2OzwdPQ86518xv8AWnvfQDtRjIgAK7h1iztArgAMiAA+aZUfcyyl+hlv5joxPA1J3Qz83sdZxgNeegAAAAAAAAAB0A3J3stKH+7QH+ZqSeW7tStNMXeWOmrwdGCVVaAZEABXcOsWdoFcABkQAHH/ACze6Wjv++qc0oQGL4apfehP5PY6PGXxUxmxAAAAAAAAGokr7Z0UfTkA59Q7LW/jpYeY/B3erV3S7suHWLO02R5uVwAGRAAV3DrFnaBXAAZEDyHul/aacfp1TmlzAzDg46W+6X3zCvq+MOaJDLgAAAAAAAAAHVDc8O5zgnpWGfzIJzA8CpTR183nq0vWLh1iztMxpquAAyIACu4dYs7QK4ADIgAPG26c9q2K3p1bmFyOzHeQsLS8+MvdXxc3iIW2AAAADoduTvxUoPnQH7GhKZb+JWGmLu2P3eDoUSisWRAAAAACu4dYs7QK4ADIgci8t/ul43efB+ZUIHGcNK99B/yez+vfL4SYrZgAAAAe6tyi7YEe/Q0G55JI5dv6ld6YvwtnrT3OlxLqmAMiAAruHWLO0CuAAyIACu4dYs7QPkOUDkgSd5Rj/dsYY5Pd8wSEOuCrQRkrAWqiqqVErZ06c5VO/OY17DUX51amxZNolxWR26rVimJiqdX3vlXUt5CvCeNfrDL+mdO19vjlM+0DMeRT2T5ofU05FPCSNH8dl7g2vt8cntAzHkU9k+Z1NORTwkjR/HZe4Nr7fHJ7QMx5FPZPm/udm5iyHwzS6SMsaUZk000IZd+f9jxDa+3xye0DMeRT2T5v7upbyFeE8a/WGX9MbX2+OT2gZjyKeyfM6lvIV4Txr9YZf0xtfb45PaBmPIp7J80PqacinhJGj+Oy9wbX2+OT2gZjyKeyfM6mnIp4SRo/jsvcG19vjk9oGY8insnzf3OzcxZD4ZpdJGWNSMyaaaEMu/P+x4htfb45PaBmPIp7J83sCJ0WIDEqKrpii7GrVpBHPA2UCYrtUoSusozVQqhKyUd+ZBm00xRTFMfRpeKxFWKvVX692qZntWD6dDIgAK7h1iztArgAMiAA/hjXEN1SnxFjFEB+N4QxgD8g3QrdpB1kIaKqpSnfVSlCUT73AfFyiLlM0z9WXgcZXl+JoxNuNWaZ1Y1XnHqW8hXhPGv1hl7hh7X2+OW4e0DMeRT2T5nUt5CvCeNfrDL3Btfb45PaBmPIp7J80PqacinhJGf+Oy9wbX2+OT2gZjyKeyfM6mnIp4SRn/jsvcG19vjk9oGY8insnzf3OzcxZD4ZpdJGaNKMyaaaEMu/P+x4htfb45PaBmPIp7J8393Ut5CvCeNfrDL3Btfb45PaBmPIp7J8zqW8hXhPGv1hl7g2vt8cntAzHkU9k+aH1NORTwkjP/HZe4Nr7fHJ7QMx5FPZPmdTTkU8JIz/AMdl7g2vt8cntAzHkU9k+b7dkz5MUR8nuEP6ExQeb1haz4UYM23RrRRZCqFErpRm5qqOFJ32MPTY1db9UHnWiLE55FEX6YjW6upqfm+8GQgADIgAK7h1iztArgAMiAA8+x6yBpJpYI8PqPsYn9GGDw95tVWrVnBmzNDNCc3N3kJUSnrKo75h3MFRdqmqZbfl+jLG5bhqMLappmmnj1fNF6lvIV4Txr9YZe4fG19vjlme0DMeRT2T5nUt5CvCeNfrDL3Btfb45PaBmPIp7J80PqacinhJGf8AjsvcG19vjk9oGY8insnzOppyKeEkZ/47L3Btfb45PaBmPIp7J839zs3MWQ+GaXSRmjSjMmmmhDLvz/seIbX2+OT2gZjyKeyfN/d1LeQrwnjX6wy9wbX2+OT2gZjyKeyfM6lvIV4Txr9YZe4Nr7fHJ7QMx5FPZPmh9TTkU8JIz/x2XuDa+3xye0DMeRT2T5v73BudcjsXX67owQOMMZF27shbKGMlV27PNSuzXQshCfxOtOg5pwFumYmJl139HeYX7VVqqinUqiY3J+v6vYDh1iztM5pCuAAyIACu4dYs7QK4ADIgfOJcpC4rS+RZgkVo2Q6HwWCwOFohii0DXVVXSuhVKsyc5Cd6ZZJ03rNN+nW1JfJ85v5Jem/YiJmY1Pe+OOzcxZD4ZpdJGaNKMyaaaEMu/P8AseIxtr7fHLZPaBmPIp7J8393Ut5CvCeNfrDL3Btfb45PaBmPIp7J8zqW8hXhPGv1hl7g2vt8cntAzHkU9k+aH1NORTwkjP8Ax2XuDa+3xye0DMeRT2T5nU05FPCSM/8AHZe4Nr7fHJ7QMx5FPZPm/udm5iyHwzS6SM0aUZk000IZd+f9jxDa+3xye0DMeRT2T5v7upbyFeE8a/WGXuDa+3xye0DMeRT2T5nUt5CvCeNfrDL3Btfb45PaBmPIp7J80PqacinhJGf+Oy9wbX2+OT2gZjyKeyfN9+kZkgi7IhEpnEaLEMhsJgLOENYShpC1lVmmculCUonQhCJt7gMqzaizTraWr5tml3OMT6TeiInUiPd+T6i4dYs7TtRiuAAyIACu4dYs7QK4ADIgAPG26c9q2K3p1bmFyOzHeQsLS8+MvdXxc3iIW2AAAADoduTvxUoPnQH7GhKZb+JWGmLu2P3eDoUSisWRAAANcAAkP7V7WwCQAA1wHGjL07qWOXnwbmFCBxnDSvfQf8ns/r3y8/GK2YAAAAHtbcv/ANPI6+iYPzxJZdvqld6YvwtnrT3OihLKmANcAAkP7V7WwCQAA1wACQ/tXtbAJAADXAAJD+1e1sAkAANcAAkP7V7WwCQAA1wACQ/tXtbAJAADXAAJD+1e1sAkAANcAAkP7V7WwCQAA1wACQ/tXtbAJAADXAAJD+1e1sAkAANcAAkP7V7WwCQAA1wACQ/tXtbAJAADXAAJD+1e1sAkAANcAAkP7V7WwCQAA1wACQ/tXtbAJAADXAAJD+1e1sAkAANcAAkP7V7WwCQAA1wACQ/tXtbAJAADXAAPDW6s9rSJXpptzJHZjvIWFpefGXerHe5mEQtsAAAAHvfcu/io+edAv+QlMt/ErDTF3bH7vB7zJRWLXAAAAABIf2r2tgEgABrgONGXp3UscvPg3MKEDjOGle+g/wCT2f175efjFbMAAAAD2tuX/wCnkdfRMH54ksu31Su9MX4Wz1p7nRQllTAGuAASH9q9rYBIAAa4ABIf2r2tgEgABrgAEh/ava2ASAAGuAASH9q9rYBIAAa4ABIf2r2tgEgABrgAEh/ava2ASAAGuAASH9q9rYBIAAa4ABIf2r2tgEgABrgAEh/ava2ASAAGuAASH9q9rYBIAAa4ABIf2r2tgEgABrgAEh/ava2ASAAGuAASH9q9rYBIAAa4ABIf2r2tgEgABrgAEh/ava2ASAAGuAASH9q9rYBIAAa4ABIf2r2tgEgABrgAHhrdWe1pEr0025kjsx3kLC0vPjLvVjvczCIW2AAAAD3vuXfxUfPOgX/ISmW/iVhpi7tj93g95korFrgAACRT1Tv4AKeqd/AB2b8jobWdPycACga5cxAUDXLmICnqnfwA49ZdLfonKejg2zMzOXg+9PP+oUIHGcNK99B/yez+vfL4GYrZgAAAAe4NywgXRsfo8KaTMzXRB09aef8ALJ3iSy7fVK70xfhbPWnudIaBrlzEllTFA1y5iAp6p38AFPVO/gA7N+R0NrOn5OABQNcuYgKBrlzEBT1Tv4AKeqd/AB2b8jobWdPycACga5cxAUDXLmICnqnfwAU9U7+ADs35HQ2s6fk4AFA1y5iAoGuXMQFPVO/gAp6p38AHZvyOhtZ0/JwAKBrlzEBQNcuYgKeqd/ABT1Tv4AOzfkdDazp+TgAUDXLmICga5cxAU9U7+ACnqnfwAdm/I6G1nT8nAAoGuXMQFA1y5iAp6p38AFPVO/gA7N+R0NrOn5OABQNcuYgKBrlzEBT1Tv4AKeqd/AB2b8jobWdPycACga5cxAUDXLmICnqnfwAU9U7+ADs35HQ2s6fk4AFA1y5iAoGuXMQFPVO/gAp6p38AHZvyOhtZ0/JwAKBrlzEBQNcuYgKeqd/ABT1Tv4AOzfkdDazp+TgAUDXLmICga5cxAU9U7+ACnqnfwAdm/I6G1nT8nAAoGuXMQFA1y5iAp6p38AFPVO/gA7N+R0NrOn5OABQNcuYgKBrlzEBT1Tv4AKeqd/AB2b8jobWdPycACga5cxAUDXLmICnqnfwAU9U7+ADs35HQ2s6fk4AFA1y5iAoGuXMQFPVO/gAp6p38AHZvyOhtZ0/JwAKBrlzEBQNcuYgKeqd/ABT1Tv4AOzfkdDazp+TgAUDXLmICga5cxAU9U7+ACnqnfwA8UbqTDOjpMYoL6PM0b7aI68887BP3EdmO8hYWl58Ze6vi5qkQtsAAAAHQPcrIB0ayj/8AltHmrQLvTz/GeMlMt/ErDTF3bH7vB7+oGuXMSUViU9U7+ACnqnfwAU9U7+AEgABXcOsWdoFcABkQOReW/wB0vG7z4PzKhA4zhpXvoP8Ak9n9e+XwkxWzAAAAA91blF2wI9+hoNzySRy7f1K70xfhbPWnudLiXVMAZEABXcOsWdoFcABkQAFdw6xZ2gVwAGRAAV3DrFnaBXAAZEABXcOsWdoFcABkQAFdw6xZ2gVwAGRAAV3DrFnaBXAAZEABXcOsWdoFcABkQAFdw6xZ2gVwAGRAAV3DrFnaBXAAZEABXcOsWdoFcABkQAFdw6xZ2gVwAGRAAV3DrFnaBXAAZEABXcOsWdoFcABkQAFdw6xZ2gVwAGRAAV3DrFnaBXAAZEABXcOsWdoFcABkQAFdw6xZ2gVwAGRAAeNt057VsVvTq3MLkdmO8hYWl58Ze6vi5vEQtsAAAAHQ7cnfipQfOgP2NCUy38SsNMXdsfu8HQolFYsiAAAAAFdw6xZ2gVwAGRA5F5b/AHS8bvPg/MqEDjOGle+g/wCT2f175fCTFbMAAAAD3VuUXbAj36Gg3PJJHLt/UrvTF+Fs9ae50uJdUwBkQAFdw6xZ2gVwAGRAAV3DrFnaBXAAZEABXcOsWdoFcABkQAFdw6xZ2gVwAGRAAV3DrFnaBXAAZEABXcOsWdoFcABkQAFdw6xZ2gVwAGRAAV3DrFnaBXAAZEABXcOsWdoFcABkQAFdw6xZ2gVwAGRAAV3DrFnaBXAAZEABXcOsWdoFcABkQAFdw6xZ2gVwAGRAAV3DrFnaBXAAZEABXcOsWdoFcABkQAFdw6xZ2gVwAGRAAV3DrFnaBXAAZEAB423TntWxW9OrcwuR2Y7yFhaXnxl7q+Lm8RC2wAAAAdDtyd+KlB86A/Y0JTLfxKw0xd2x+7wdCiUViyIAABrgAEh/ava2ASAAGuA40ZendSxy8+DcwoQOM4aV76D/AJPZ/Xvl5+MVswAAAAPa25f/AKeR19EwfniSy7fVK70xfhbPWnudFCWVMAa4ABIf2r2tgEgABrgAEh/ava2ASAAGuAASH9q9rYBIAAa4ABIf2r2tgEgABrgAEh/ava2ASAAGuAASH9q9rYBIAAa4ABIf2r2tgEgABrgAEh/ava2ASAAGuAASH9q9rYBIAAa4ABIf2r2tgEgABrgAEh/ava2ASAAGuAASH9q9rYBIAAa4ABIf2r2tgEgABrgAEh/ava2ASAAGuAASH9q9rYBIAAa4ABIf2r2tgEgABrgAEh/ava2ASAAGuAAeGt1Z7WkSvTTbmSOzHeQsLS8+Mu9WO9zMIhbYAAAAPe+5d/FR886Bf8hKZb+JWGmLu2P3eD3mSisWuAAAAACQ/tXtbAJAADXAcaMvTupY5efBuYUIHGcNK99B/wAns/r3y8/GK2YAAAAHtbcv/wBPI6+iYPzxJZdvqld6YvwtnrT3OihLKmANcAAkP7V7WwCQAA1wACQ/tXtbAPK2VFleQjJ1jO6IvMYls3yh6QJaFparQtLLMmXSrmzZqZ+sYeJxWwVRGpqtv0OaF4z6zXdm5rdbOpuav0fFeqiQ3imYe0k+4Y+2P+rYvZ1Tz/2/tW6rDDuJ9h7TT7hxtlPJPZ1Tz/2/s6rDDuJ9h7TT7g2ynkns6p5/7f2/kh+6pQ6G6P8A9omCujn/APk078837HiOdsv9T2dU8/8Ab+38nVRIbxTMPaSfcG2P+p7Oqef+39nVRIbxTMPaSfcG2P8Aqezqnn/t/at1WGHcT7D2mn3DjbKeSezqnn/t/Z1WGHcT7D2mn3BtlPJPZ1Tz/wBv7fyQ/dUodDdH/wC0TBXRz/8Ayad+eb9jxDbKeSezqnn/ALf29pxCjOtHSJTjjctBEQVL4gDGGpYoWztHpFELZs/fmnJOirX0xVxq4xuH9ExNdjV1dbMxq9C8fTFa4ABIf2r2tgEgABrgAHzmXqPi8mEmz4j+o70Q5ZxwNpCkQZK+YhrMlXezt+brnXdr2Oia+Jn5XgozHGW8LM6munU1XhvqokN4pmHtJPuEftj/AKrC9nVPP/b+zqokN4pmHtJPuDbH/U9nVPP/AG/tW6rDDuJ9h7TT7hxtlPJPZ1Tz/wBv7Oqww7ifYe00+4Nsp5J7Oqef+39v5IfuqUOhuj/9omCujn/+TTvzzfseI52y/wBT2dU8/wDb+38nVRIbxTMPaSfcG2P+p7Oqef8At/Z1USG8UzD2kn3Btj/qezqnn/t/at1WGHcT7D2mn3DjbKeSezqnn/t/Z1WGHcT7D2mn3BtlPJPZ1Tz/ANv7fbsmfK3hGU5CX3B20TWbjoFRiuhKsKS20ukSlHfVRNNm/wC5lYbE+kavu1NRrGiTQ3GQ025i5rtdq/TU3H3gy2qgGuAASH9q9rYBIAAa4AB4bygd0Ghclcqj7k3Uk3ZQ9Vwt0MUQpMPSolrnKKrT5uambrkfex2xVzRqbiwMp0E05ng6MXN7U10bmp/b5z1USG8UzD2kn3Dr2x/1SPs6p5/7f2dVEhvFMw9pJ9wbY/6ns6p5/wC39q3VYYdxPsPaafcONsp5J7Oqef8At/Z1WGHcT7D2mn3BtlPJPZ1Tz/2/t/JD91Sh0N0f/tEwV0c//wAmnfnm/Y8Rztl/qezqnn/t/b+TqokN4pmHtJPuDbH/AFPZ1Tz/ANv7OqiQ3imYe0k+4Nsf9T2dU8/9v7Vuqww7ifYe00+4cbZTyT2dU8/9v7V4obqJDY0RrcsWkyTMGCHs8IPAUtUPJKdHpWiqmdNmb82dOfVGYa6qI1roxOl/Th7Nd3Z9XWxM7nFGrxvcz+1e1sJNWqQAA1wACQ/tXtbAJAADXAfFcqrKIbZNsRnfHBjFlR9phzwVgKWC0ISyQrOostnTzJn/ADesY+Jv7BTrtTVT+h7JIzzEVWJr1upGruaryVD91Sh0N0f/ALRMFdHP/wDJp355v2PEYe2X+rcvZ1Tz/wBv7fydVEhvFMw9pJ9wbY/6ns6p5/7f2dVEhvFMw9pJ9wbY/wCp7Oqef+39q3VYYdxPsPaafcONsp5J7Oqef+39nVYYdxPsPaafcG2U8k9nVPP/AG/t/JD91Sh0N0f/ALRMFdHP/wDJp355v2PEc7Zf6ns6p5/7f2/k6qJDeKZh7ST7g2x/1PZ1Tz/2/s6qJDeKZh7ST7g2x/1PZ1Tz/wBv7Vuqww7ifYe00+4cbZTyT2dU8/8Ab+3r3Jnlva5QUmDGUNs4FXOs1hjeC9DKttKhGjShGdnTI685n4e9s9Gv1GkZ9lMZLjJwsVa73ROrubr6A/tXtbDuQqQAA1wACQ/tXtbAJAADXAAPDW6s9rSJXpptzJHZjvIWFpefGXerHe5mEQtsAAAAHvfcu/io+edAv+QlMt/ErDTF3bH7vB7zJRWLXAAAEinqnfwAU9U7+ADs35HQ2s6fk4AFA1y5iAoGuXMQFPVO/gBx6y6W/ROU9HBtmZmcvB96ef8AUKEDjOGle+g/5PZ/Xvl8DMVswAAAAPcG5YQLo2P0eFNJmZrog6etPP8Alk7xJZdvqld6YvwtnrT3OkNA1y5iSypiga5cxAU9U7+ACnqnfwAdm/I6G1nT8nAAoGuXMQFA1y5iAp6p38AFPVO/gA7N+R0NrOn5OADmpupMC6ClOigppc/OcjRM80365JEZjv4W3pd/B3utHc8UkcsIAAAAAAAAAdw5A3LpZE4jNOi5s5wwJM2Z5JXxmx2eDp6HnXOvmN/rT3t9QNcuYnajCnqnfwAU9U7+ADs35HQ2s6fk4AFA1y5iAoGuXMQFPVO/gAp6p38APkOV01pTJrlBbTaPodztEzTz506UfNwHRieBqTuhn5vY6zi4a89AAAAAAAAAAD3tuVkC6Nekf1dJmZkHgSetPP8AjNCTy3dqVppi7yx01eDoXQNcuYkqq0oGuXMQFPVO/gAp6p38AHZvyOhtZ0/JwAKBrlzEBQNcuYgKeqd/ABT1Tv4AcbctZt0RlOR5bZs2dDWe9PP+pUIDF8NUvvQn8nsdHjL4gYzYgAAAAAAADVSTrZkqMT15p81/QBM3/wBhQ7LW/jpYWZfB3erV3S7r9m/I6G1nT8nAbI83lA1y5iAoGuXMQFPVO/gAp6p38AHZvyOhtZ0/JwAKBrlzEBQNcuYgKeqd/ADxzunrz6MkWcTPofMmfyiZ86f9Uv4jAzDg46W+6X3zCvq+MOYhDLgAAAAAAAAAHV/c5Hp0Jk2QRj0Pn/8Aq0NTPnTf2keIm8BwKlNHXzeerD1F2b8jobWdPycBmtNKBrlzEBQNcuYgKeqd/ABT1Tv4AOzfkdDazp+TgAUDXLmICga5cxAU9U7+ACnqnfwA8UbqTDOjpMYoL6PM0b7aI68887BP3EdmO8hYWl58Ze6vi5qkQtsAAAAHQPcrIB0ayj/+W0eatAu9PP8AGeMlMt/ErDTF3bH7vB7+oGuXMSUViU9U7+ACnqnfwAU9U7+AEgABXcOsWdoFcABkQOReW/3S8bvPg/MqEDjOGle+g/5PZ/Xvl8JMVswAAAAPdW5RdsCPfoaDc8kkcu39Su9MX4Wz1p7nS4l1TAGRAAV3DrFnaBXAAZEABXcOsWdoHN7dWO2lE70G059JEZjv4W3pd/B3utHc8PkcsIAAAAAAAAAd2Mn3tHRE/wBPwLmlTY7PB09DzrnXzG/1p730A7UYyIACu4dYs7QK4ADIgAPmmVH3MspfoZb+Y6MTwNSd0M/N7HWcYDXnoAAAAAAAAAAdANyd7LSh/u0B/maknlu7UrTTF3ljpq8HRglVWgGRAAV3DrFnaBXAAZEABx/yze6Wjv8AvqnNKEBi+GqX3oT+T2Ojxl8VMZsQAAAAAAABqJK+2dFH05AOfUOy1v46WHmPwd3q1d0u7Lh1iztNkeblcABkQAFdw6xZ2gVwAGRA8h7pf2mnH6dU5pcwMw4OOlvul98wr6vjDmiQy4AAAAAAAAAB1Q3PDuc4J6Vhn8yCcwPAqU0dfN56tL1i4dYs7TMaargAMiAAruHWLO0CuAAyIADxtunPatit6dW5hcjsx3kLC0vPjL3V8XN4iFtgAAAA6Hbk78VKD50B+xoSmW/iVhpi7tj93g6FEorFkQAAAAAruHWLO0CuAAyIHIvLf7peN3nwfmVCBxnDSvfQf8ns/r3y+EmK2YAAAAHurcou2BHv0NBueSSOXb+pXemL8LZ609zpcS6pgDIgAK7h1iztArgAMiAAruHWLO0Dm9urHbSid6Dac+kiMx38Lb0u/g73WjueHyOWEAAAAAAAAAO7GT72joif6fgXNKmx2eDp6HnXOvmN/rT3voB2oxkQAFdw6xZ2gVwAGRAAfNMqPuZZS/Qy38x0Yngak7oZ+b2Os4wGvPQAAAAAAAAAA6Abk72WlD/doD/M1JPLd2pWmmLvLHTV4OjBKqtAMiAAruHWLO0CuAAyIADj/lm90tHf99U5pQgMXw1S+9Cfyex0eMvipjNiAAAAAAAANRJX2zoo+nIBz6h2Wt/HSw8x+Du9Wrul3ZcOsWdpsjzcrgAMiAAruHWLO0CuAAyIHkPdL+004/TqnNLmBmHBx0t90vvmFfV8Yc0SGXAAAAAAAAAAOqG54dznBPSsM/mQTmB4FSmjr5vPVpesXDrFnaZjTVcABkQAFdw6xZ2gVwAGRAAeNt057VsVvTq3MLkdmO8hYWl58Ze6vi5vEQtsAAAAHQ7cnfipQfOgP2NCUy38SsNMXdsfu8HQolFYsiAAAa4ABIf2r2tgEgABrgONGXp3UscvPg3MKEDjOGle+g/5PZ/Xvl5+MVswAAAAPa25f/p5HX0TB+eJLLt9UrvTF+Fs9ae50UJZUwBrgAEh/ava2ASAAGuAASH9q9rYBzL3TvtlxS9CtOeSRGY7+Ft6Xfwd7rR3PGRHLCAAAAAAAAAHbCQjtMRJ9BQPmlTY7HB09DzrnPzG/wBarvbo7UY1wACQ/tXtbAJAADXAAPhuWj3OMdvRDb7VDoxXA1J3Qz83w/WcWTXnoAAAAAAAAAAe7Ny77JR8/wAmBfzNCTy3dqVppi7yx01eD38SqrQDXAAJD+1e1sAkAANcAA4tZb3dRx8/fWfMqEBi+GqX3oT+T2Ojxl8MMZsQAAAAAAABrJJO2rE30+7/APuFD7tb+OlhZl8Fe6tXdLuq/tXtbDZXm9IAAa4ABIf2r2tgEgABrgPGO6l9pFwf6gU5loR+Y8HHS3zS++YV9Xxhy1IdcIAAAAAAAAA637mv3M0D9Lw3+ZBN4DgVKaOvm09WHpJ/ava2Ga01IAAa4ABIf2r2tgEgABrgAHhrdWe1pEr0025kjsx3kLC0vPjLvVjvczCIW2AAAAD3vuXfxUfPOgX/ACEplv4lYaYu7Y/d4PeZKKxa4AAAAAJD+1e1sAkAANcBxoy9O6ljl58G5hQgcZw0r30H/J7P698vPxitmAAAAB7W3L/9PI6+iYPzxJZdvqld6YvwtnrT3OihLKmANcAAkP7V7WwCQAA1wACQ/tXtbAOZe6d9suKXoVpzySIzHfwtvS7+DvdaO54yI5YQAAAAAAAAA7YSEdpiJPoKB80qbHY4Onoedc5+Y3+tV3t0dqMa4ABIf2r2tgEgABrgAHw3LR7nGO3oht9qh0Yrgak7oZ+b4frOLJrz0AAAAAAAAAAPdm5d9ko+f5MC/maEnlu7UrTTF3ljpq8Hv4lVWgGuAASH9q9rYBIAAa4ABxay3u6jj5++s+ZUIDF8NUvvQn8nsdHjL4YYzYgAAAAAAADWSSdtWJvp93/9wofdrfx0sLMvgr3Vq7pd1X9q9rYbK83pAADXAAJD+1e1sAkAANcB4x3UvtIuD/UCnMtCPzHg46W+aX3zCvq+MOWpDrhAAAAAAAAAHW/c1+5mgfpeG/zIJvAcCpTR182nqw9JP7V7WwzWmpAADXAAJD+1e1sAkAANcAA8Nbqz2tIlemm3MkdmO8hYWl58Zd6sd7mYRC2wAAAAe99y7+Kj550C/wCQlMt/ErDTF3bH7vB7zJRWLXAAAEinqnfwAU9U7+ADs35HQ2s6fk4AFA1y5iAoGuXMQFPVO/gBx6y6W/ROU9HBtmZmcvB96ef9QoQOM4aV76D/AJPZ/Xvl8DMVswAAAAPcG5YQLo2P0eFNJmZrog6etPP+WTvEll2+qV3pi/C2etPc6Q0DXLmJLKmKBrlzEBT1Tv4AKeqd/AB2b8jobWdPycACga5cxAUDXLmICnqnfwAU9U7+ADs35HQ2s6fk4AOam6kwLoKU6KCmlz85yNEzzTfrkkRmO/hbel38He60dzxSRywgAAAAAAAAB3DkDculkTiM06LmznDAkzZnklfGbHZ4Onoedc6+Y3+tPe31A1y5idqMKeqd/ABT1Tv4AOzfkdDazp+TgAUDXLmICga5cxAU9U7+ACnqnfwA+Q5XTWlMmuUFtNo+h3O0TNPPnTpR83AdGJ4GpO6Gfm9jrOLhrz0AAAAAAAAAAPe25WQLo16R/V0mZmQeBJ608/4zQk8t3alaaYu8sdNXg6F0DXLmJKqtKBrlzEBT1Tv4AKeqd/AB2b8jobWdPycACga5cxAUDXLmICnqnfwAU9U7+AHG3LWbdEZTkeW2bNnQ1nvTz/qVCAxfDVL70J/J7HR4y+IGM2IAAAAAAAA1Uk62ZKjE9eafNf0ATN/9hQ7LW/jpYWZfB3erV3S7r9m/I6G1nT8nAbI83lA1y5iAoGuXMQFPVO/gAp6p38AHZvyOhtZ0/JwAKBrlzEBQNcuYgKeqd/ADxzunrz6MkWcTPofMmfyiZ86f9Uv4jAzDg46W+6X3zCvq+MOYhDLgAAAAAAAAAHV/c5Hp0Jk2QRj0Pn/+rQ1M+dN/aR4ibwHAqU0dfN56sPUXZvyOhtZ0/JwGa00oGuXMQFA1y5iAp6p38AFPVO/gA7N+R0NrOn5OABQNcuYgKBrlzEBT1Tv4AKeqd/ADxRupMM6Okxigvo8zRvtojrzzzsE/cR2Y7yFhaXnxl7q+LmqRC2wAAAAdA9ysgHRrKP8A+W0eatAu9PP8Z4yUy38SsNMXdsfu8Hv6ga5cxJRWJT1Tv4AKeqd/ABT1Tv4ASAAFdw6xZ2gVwAGRA5F5b/dLxu8+D8yoQOM4aV76D/k9n9e+XwkxWzAAAAA91blF2wI9+hoNzySRy7f1K70xfhbPWnudLiXVMAZEABXcOsWdoFcABkQAFdw6xZ2gc3t1Y7aUTvQbTn0kRmO/hbel38He60dzw+RywgAAAAAAAAB3Yyfe0dET/T8C5pU2OzwdPQ86518xv9ae99AO1GMiAAruHWLO0CuAAyIAD5plR9zLKX6GW/mOjE8DUndDPzex1nGA156AAAAAAAAAAHQDcney0of7tAf5mpJ5bu1K00xd5Y6avB0YJVVoBkQAFdw6xZ2gVwAGRAAcf8s3ulo7/vqnNKEBi+GqX3oT+T2Ojxl8VMZsQAAAAAAABqJK+2dFH05AOfUOy1v46WHmPwd3q1d0u7Lh1iztNkeblcABkQAFdw6xZ2gVwAGRA8h7pf2mnH6dU5pcwMw4OOlvul98wr6vjDmiQy4AAAAAAAAAB1Q3PDuc4J6Vhn8yCcwPAqU0dfN56tL1i4dYs7TMaargAMiAAruHWLO0CuAAyIADxtunPatit6dW5hcjsx3kLC0vPjL3V8XN4iFtgAAAA6Hbk78VKD50B+xoSmW/iVhpi7tj93g6FEorFkQAAAAAruHWLO0CuAAyIHIvLf7peN3nwfmVCBxnDSvfQf8AJ7P698vhJitmAAAAB7q3KLtgR79DQbnkkjl2/qV3pi/C2etPc6XEuqYAyIACu4dYs7QK4ADIgAK7h1iztA5vbqx20oneg2nPpIjMd/C29Lv4O91o7nh8jlhAAAAAAAAADuxk+9o6In+n4FzSpsdng6eh51zr5jf60976AdqMZEABXcOsWdoFcABkQAHzTKj7mWUv0Mt/MdGJ4GpO6Gfm9jrOMBrz0AAAAAAAAAAOgG5O9lpQ/wB2gP8AM1JPLd2pWmmLvLHTV4OjBKqtAMiAAruHWLO0CuAAyIADj/lm90tHf99U5pQgMXw1S+9Cfyex0eMvipjNiAAAAAAAANRJX2zoo+nIBz6h2Wt/HSw8x+Du9Wrul3ZcOsWdpsjzcrgAMiAAruHWLO0CuAAyIHkPdL+004/TqnNLmBmHBx0t90vvmFfV8Yc0SGXAAAAAAAAAAOqG54dznBPSsM/mQTmB4FSmjr5vPVpesXDrFnaZjTVcABkQAFdw6xZ2gVwAGRAAeNt057VsVvTq3MLkdmO8hYWl58Ze6vi5vEQtsAAAAHQ7cnfipQfOgP2NCUy38SsNMXdsfu8HQolFYsiAAAa4ABIf2r2tgEgABrgONGXp3UscvPg3MKEDjOGle+g/5PZ/Xvl5+MVswAAAAPa25f8A6eR19EwfniSy7fVK70xfhbPWnudFCWVMAa4ABIf2r2tgEgABrgAEh/ava2Acy9077ZcUvQrTnkkRmO/hbel38He60dzxkRywgAAAAAAAAB2wkI7TESfQUD5pU2OxwdPQ865z8xv9arvbo7UY1wACQ/tXtbAJAADXAAPhuWj3OMdvRDb7VDoxXA1J3Qz83w/WcWTXnoAAAAAAAAAAe7Ny77JR8/yYF/M0JPLd2pWmmLvLHTV4PfxKqtANcAAkP7V7WwCQAA1wADi1lvd1HHz99Z8yoQGL4apfehP5PY6PGXwwxmxAAAAAAAAGskk7asTfT7v/AO4UPu1v46WFmXwV7q1d0u6r+1e1sNleb0gABrgAEh/ava2ASAAGuA8Y7qX2kXB/qBTmWhH5jwcdLfNL75hX1fGHLUh1wgAAAAAAAADrfua/czQP0vDf5kE3gOBUpo6+bT1Yekn9q9rYZrTUgABrgAEh/ava2ASAAGuAAeGt1Z7WkSvTTbmSOzHeQsLS8+Mu9WO9zMIhbYAAAAPe+5d/FR886Bf8hKZb+JWGmLu2P3eD3mSisWuAAAAACQ/tXtbAJAADXAcaMvTupY5efBuYUIHGcNK99B/yez+vfLz8YrZgAAAAe1ty/wD08jr6Jg/PEll2+qV3pi/C2etPc6KEsqYA1wACQ/tXtbAJAADXAAJD+1e1sA5l7p32y4pehWnPJIjMd/C29Lv4O91o7njIjlhAAAAAAAAADthIR2mIk+goHzSpsdjg6eh51zn5jf61Xe3R2oxrgAEh/ava2ASAAGuAAfDctHucY7eiG32qHRiuBqTuhn5vh+s4smvPQAAAAAAAAAA92bl32Sj5/kwL+ZoSeW7tStNMXeWOmrwe/iVVaAa4ABIf2r2tgEgABrgAHFrLe7qOPn76z5lQgMXw1S+9Cfyex0eMvhhjNiAAAAAAAANZJJ21Ym+n3f8A9wofdrfx0sLMvgr3Vq7pd1X9q9rYbK83pAADXAAJD+1e1sAkAANcB4x3UvtIuD/UCnMtCPzHg46W+aX3zCvq+MOWpDrhAAAAAAAAAHW/c1+5mgfpeG/zIJvAcCpTR182nqw9JP7V7WwzWmpAADXAAJD+1e1sAkAANcAA8Nbqz2tIlemm3MkdmO8hYWl58Zd6sd7mYRC2wAAAAe99y7+Kj550C/5CUy38SsNMXdsfu8HvMlFYtcAAASKeqd/ABT1Tv4AOzfkdDazp+TgAUDXLmICga5cxAU9U7+AHHrLpb9E5T0cG2ZmZy8H3p5/1ChA4zhpXvoP+T2f175fAzFbMAAAAD3BuWEC6Nj9HhTSZma6IOnrTz/lk7xJZdvqld6YvwtnrT3OkNA1y5iSypiga5cxAU9U7+ACnqnfwAdm/I6G1nT8nAAoGuXMQFA1y5iAp6p38AFPVO/gA7N+R0NrOn5OADzjlO5EquUXGV0xhTKAlzUXAloJougdLnzrpWzp89ExiYjC+kTE6uo23Q7oo2hs12tj12unV3dT6PjPUnVOOVPsn/wAhjbW/7Nh9os8x/wBf0l9S7YcbDT2Yj3xtb/se0WeY/wCv6OpdsONhp7MR742t/wBj2izzH/X9P6oFuVjKG5+bK+spmTdd1zzzz/t+IbW/7HtFnmP+v6f1dSdU45U+yf8AyDa3/Y9os8x/1/R1J1TjlT7J/wDINrf9j2izzH/X9JfUu2HGw09mI98bW/7HtFnmP+v6OpdsONhp7MR742t/2PaLPMf9f0/qgW5WMobn5sr6ymZN13XPPPP+34htb/se0WeY/wCv6e4IiSdIiXEtyRRQ9+iqHgLGBabRZuk0aqFc6afenmJKinWUxTxK6xuI9LxFd/U1NdMzqdK9QNcuYn0xinqnfwAU9U7+ADs35HQ2s6fk4AFA1y5iAoGuXMQFPVO/gAp6p38AMlKzEP4aZOH/ABBpFLqpaBrQXolCmlzM5KPxs3en/NOu7RslE0cbOyzG7XYu3itTV1s6uo8cdSdU45U+yf8AyEftb/ssD2izzH/X9HUnVOOVPsn/AMg2t/2PaLPMf9f0l9S7YcbDT2Yj3xtb/se0WeY/6/o6l2w42GnsxHvja3/Y9os8x/1/T+qBblYyhufmyvrKZk3Xdc888/7fiG1v+x7RZ5j/AK/p/V1J1TjlT7J/8g2t/wBj2izzH/X9HUnVOOVPsn/yDa3/AGPaLPMf9f0l9S7YcbDT2Yj3xtb/ALHtFnmP+v6OpdsONhp7MR742t/2PaLPMf8AX9Pv+ShkkKZP0JjDCFI6LPimFGCkyYJoszMSsn+8meef/YysNhvR9X36uq1rRFok2/ptxset1ur9dXdeiaBrlzEymrFA1y5iAp6p38AFPVO/gA7N+R0NrOn5OABQNcuYgKBrlzEBT1Tv4AKeqd/ADx1LDufKkt8qMYZSPhKWdSXw3UbdC0fpcyZRCsyFs9E/5s/WMC7gdlrmvV3W+5To2nLMHRhNh1db9dX+mQ6k6pxyp9k/+Q6trf8AZI+0WeY/6/o6k6pxyp9k/wDkG1v+x7RZ5j/r+kvqXbDjYaezEe+Nrf8AY9os8x/1/R1LthxsNPZiPfG1v+x7RZ5j/r+n9UC3KxlDc/NlfWUzJuu65555/wBvxDa3/Y9os8x/1/T+rqTqnHKn2T/5Btb/ALHtFnmP+v6OpOqccqfZP/kG1v8Ase0WeY/6/pL6l2w42GnsxHvja3/Y9os8x/1/SrFLc2GMV41OaMqJUWjdLph8Hh2io7N0miaKr5s+dvT5s059U5fraonXOjE6YE4izXa2DU10TG7xxqcT3n2b8jobWdPycBJK4KBrlzEBQNcuYgKeqd/ABT1Tv4AOzfkdDazp+TgAUDXLmICga5cxAU9U7+AHxnKkkVVykokwCJ6z7WcaIC8FYdp0MdNnTKLK5s29N+d1/EY+IsbPTrdXUT2h/O9osRVf1mu1Y1NTV1HmeBblYyhufmyvrKZk3Xdc888/7fiMPa3/AGbh7RZ5j/r+n9XUnVOOVPsn/wAg2t/2PaLPMf8AX9HUnVOOVPsn/wAg2t/2PaLPMf8AX9JfUu2HGw09mI98bW/7HtFnmP8Ar+jqXbDjYaezEe+Nrf8AY9os8x/1/T+qBblYyhufmyvrKZk3Xdc888/7fiG1v+x7RZ5j/r+n9XUnVOOVPsn/AMg2t/2PaLPMf9f0dSdU45U+yf8AyDa3/Y9os8x/1/SX1LthxsNPZiPfG1v+x7RZ5j/r+nrTJtktVyfJM2Mnir0WfKGUMbwropLPRT6RKE5ubv8AWm4TOsWdgo1mrqtKz3NtusXOK1ut90Rqbu4+qdm/I6G1nT8nAdyGKBrlzEBQNcuYgKeqd/ABT1Tv4AOzfkdDazp+TgAUDXLmICga5cxAU9U7+ACnqnfwA8UbqTDOjpMYoL6PM0b7aI68887BP3EdmO8hYWl58Ze6vi5qkQtsAAAAHQPcrIB0ayj/APltHmrQLvTz/GeMlMt/ErDTF3bH7vB7+oGuXMSUViU9U7+ACnqnfwAU9U7+AEgABXcOsWdoFcABkQOReW/3S8bvPg/MqEDjOGle+g/5PZ/Xvl8JMVswAAAAPdW5RdsCPfoaDc8kkcu39Su9MX4Wz1p7nS4l1TAGRAAV3DrFnaBXAAZEABXcOsWdoFcABkQAFdw6xZ2gVwAGRAAV3DrFnaBXAAZEABXcOsWdoFcABkQAFdw6xZ2gVwAGRAAV3DrFnaBXAAZEABXcOsWdoFcABkQAFdw6xZ2gVwAGRAAV3DrFnaBXAAZEABXcOsWdoFcABkQAFdw6xZ2gVwAGRAAV3DrFnaBXAAZEABXcOsWdoFcABkQAFdw6xZ2gVwAGRAAV3DrFnaBXAAZEABXcOsWdoFcABkQAHjbdOe1bFb06tzC5HZjvIWFpefGXur4ubxELbAAAAB0O3J34qUHzoD9jQlMt/ErDTF3bH7vB0KJRWLIgAAAABXcOsWdoFcABkQOReW/3S8bvPg/MqEDjOGle+g/5PZ/Xvl8JMVswAAAAPdW5RdsCPfoaDc8kkcu39Su9MX4Wz1p7nS4l1TAGRAAV3DrFnaBXAAZEABXcOsWdoFcABkQAFdw6xZ2gVwAGRAAV3DrFnaBXAAZEABXcOsWdoFcABkQAFdw6xZ2gVwAGRAAV3DrFnaBXAAZEABXcOsWdoFcABkQAFdw6xZ2gVwAGRAAV3DrFnaBXAAZEABXcOsWdoFcABkQAFdw6xZ2gVwAGRAAV3DrFnaBXAAZEABXcOsWdoFcABkQAFdw6xZ2gVwAGRAAV3DrFnaBXAAZEABXcOsWdoFcABkQAHjbdOe1bFb06tzC5HZjvIWFpefGXur4ubxELbAAAAB0O3J34qUHzoD9jQlMt/ErDTF3bH7vB0KJRWLIgAAGuAASH9q9rYBIAAa4DjRl6d1LHLz4NzChA4zhpXvoP+T2f175efjFbMAAAAD2tuX/6eR19EwfniSy7fVK70xfhbPWnudFCWVMAa4ABIf2r2tgEgABrgAEh/ava2ASAAGuAASH9q9rYBIAAa4ABIf2r2tgEgABrgAEh/ava2ASAAGuAASH9q9rYBIAAa4ABIf2r2tgEgABrgAEh/ava2ASAAGuAASH9q9rYBIAAa4ABIf2r2tgEgABrgAEh/ava2ASAAGuAASH9q9rYBIAAa4ABIf2r2tgEgABrgAEh/ava2ASAAGuAASH9q9rYBIAAa4ABIf2r2tgEgABrgAEh/ava2ASAAGuA/neDwgTqgMIebyhTKDQSCs1mzZs1WQqozUVROlZKU9ZCEHEzqe+X1RRVcqiiiNWZch8tvKmWygI4snBFtOZE+LrVdWApSrMtC2yfxVm6eBCUImVRwb/fITF4jZqtSNyF3aFND201jZbvC17v5RxebzOYbbQAAAAe99y7+Kj550C/5CUy38SsNMXdsfu8HvMlFYtcAAAAAEh/ava2ASAAGuA40ZendSxy8+DcwoQOM4aV76D/AJPZ/Xvl5+MVswAAAAPa25f/AKeR19EwfniSy7fVK70xfhbPWnudFCWVMAa4ABIf2r2tgEgABrgAEh/ava2ASAAGuAASH9q9rYBIAAa4ABIf2r2tgEgABrgAEh/ava2ASAAGuAASH9q9rYBIAAa4ABIf2r2tgEgABrgAEh/ava2ASAAGuAASH9q9rYBIAAa4ABIf2r2tgEgABrgAEh/ava2ASAAGuAASH9q9rYBIAAa4ABIf2r2tgEgABrgAEh/ava2ASAAGuAASH9q9rYBnXq93W4oA1ej6eMGgMDYKpWat4Q1QzUURwpWTvIOJmKY1Zdlq1Xeqii3EzM/SHmmUrdCZE4lNWsAiymGxshrNKVZ4CqhSDoT/AJq/XsoSYdzHW6PdHvbhl+gbMcXEVXtS3H57vZD4ZG3dTJXnk1XUihE2LzlYpT+Ks3Q0hTWb50pVV/2MSrMa53saja8NpfYG3H/vcqqn8tSIfPoZuiGVHC10rqxwgDBCf7LF2MUIRyoSdU469xpKnQVk9P8A9cz+sp8Iy98p6E5umj2xWzOt/wCnsfdOPTb3G+/UzJ+a+8v1dPblL+HLL1Bj7o9NvcZ6mZPzX3k6e3KX8OWXqDH3R6be4z1MyfmvvL+vqgWVL4fMfZzD3R6be4z1Myfm/vJ1QLKl8PmPs5h7o9NvcZ6mZPzf3l+mEZe+U9Cc3TR7YrZnW/8AT2Puj029xnqZk/NfeX6untyl/Dll6gx90em3uM9TMn5r7ydPblL+HLL1Bj7o9NvcZ6mZPzX3l/X1QLKl8PmPs5h7o9NvcZ6mZPzf3lnZQMsTKClNivConRsjwu2dUNzUQhiwg7NilqqhM+assohCUq8KO+fNeKu3KdbVPuZWC0MZZgL0X7Fv/KNzVmZfFjHT4AAAAAHvfcu/io+edAv+QlMt/ErDTF3bH7vB7zJRWLXAAAEinqnfwAU9U7+ADs35HQ2s6fk4AFA1y5iAoGuXMQFPVO/gBx6y6W/ROU9HBtmZmcvB96ef9QoQOM4aV76D/k9n9e+XwMxWzAAAAA9wblhAujY/R4U0mZmuiDp608/5ZO8SWXb6pXemL8LZ609zpDQNcuYksqYoGuXMQFPVO/gAp6p38AHZvyOhtZ0/JwAKBrlzEBQNcuYgKeqd/ABT1Tv4AOzfkdDazp+TgAUDXLmICga5cxAU9U7+ACnqnfwAdm/I6G1nT8nAAoGuXMQFA1y5iAp6p38AFPVO/gA7N+R0NrOn5OABQNcuYgKBrlzEBT1Tv4AKeqd/AB2b8jobWdPycACga5cxAUDXLmICnqnfwAU9U7+ADs35HQ2s6fk4AFA1y5iAoGuXMQFPVO/gAp6p38AHZvyOhtZ0/JwAKBrlzEBQNcuYgKeqd/ABT1Tv4AOzfkdDazp+TgAUDXLmICga5cxAU9U7+ACnqnfwAdm/I6G1nT8nAAoGuXMQFA1y5iAp6p38AFPVO/gA7N+R0NrOn5OABQNcuYgKBrlzEBT1Tv4AKeqd/AB2b8jobWdPycACga5cxAUDXLmICnqnfwAU9U7+ADs35HQ2s6fk4AFA1y5iAoGuXMQFPVO/gAp6p38AHZvyOhtZ0/JwAKBrlzEBQNcuYgKeqd/ABT1Tv4AOzfkdDazp+TgAUDXLmICga5cxAU9U7+ACnqnfwA+GZS+VlEKQ1zoZw9KHhGVqolaBOhi0QlZef+21T+rU3vnT3kGNiMTTYj82xZDocxOeV6tP+NuN2rwjjly6lhyhJT5bnovDI5P9qmBIWSlg7YOslSCsEd5CFJ99P7SZ0kNdv13p1apXJlWR4LKKNbh6ff8AWZ3Z/V82OlLgAAAAAAAAAAAAAAAAAAAAOge5WQDo1lH/APLaPNWgXenn+M8ZKZb+JWGmLu2P3eD39QNcuYkorEp6p38AFPVO/gAp6p38AJAACu4dYs7QK4ADIgci8t/ul43efB+ZUIHGcNK99B/yez+vfL4SYrZgAAAAe6tyi7YEe/Q0G55JI5dv6ld6YvwtnrT3OlxLqmAMiAAruHWLO0CuAAyIACu4dYs7QK4ADIgAK7h1iztArgAMiAAruHWLO0CuAAyIACu4dYs7QK4ADIgAK7h1iztArgAMiAAruHWLO0CuAAyIACu4dYs7QK4ADIgAK7h1iztArgAMiAAruHWLO0CuAAyIACu4dYs7QK4ADIgAK7h1iztArgAMiAAruHWLO0CuAAyIACu4dYs7QK4ADIgfEMqnKQdWT9ErTQXRQqM71VWZuqBrJnQhPfbLo/uK/wC6ZkGNicRFin82x6G8grzzEak+63Tvp8I/OXJiM8aH9HN/QyM0Znm3eDyh7VLVu3bLTrLLJ+xCO8hG8ggqqprnXVL0w+HtYS1FmzTqUxuQlny7gAAAAAAAAAAAAAAAAAAAAADoduTvxUoPnQH7GhKZb+JWGmLu2P3eDoUSisWRAAAAACu4dYs7QK4ADIgci8t/ul43efB+ZUIHGcNK99B/yez+vfL4SYrZgAAAAe6tyi7YEe/Q0G55JI5dv6ld6YvwtnrT3OlxLqmAMiAAruHWLO0CuAAyIACu4dYs7QPjeURlhxDycIwuyLsbIvvl4N3pBFoYyXgSGaVVVUL5syc5ZG/Ogxr+KpsTEVQ2TJNDOJzy1Vds1REUzqe/VfJuqnyMeBEavqsffOjbG3xSmvZ7j+cp+/kidUzkh8DYzfVY++NsbfFJ7PcfzlP38jqmckPgbGb6rH3xtjb4pPZ7j+cp+/k/tdu6gyOwPS6SJcaE5800yrHvT/t+MbY2+KT2e4/nKfv5P7uqnyMeBEavqsffG2Nvik9nuP5yn7+R1U+RjwIjV9Vj742xt8Uns9x/OU/fyROqZyQ+BsZvqsffG2Nvik9nuP5yn7+R1TOSHwNjN9Vj742xt8Uns9x/OU/fyf2u3dQZHYFpdJEqNCc+aaZVj3p/2/GNsbfFJ7PcfzlP38nsiJkaIHHaKToje72DVjBXzA2UNYs2s2eqo0VQshC029PMkzqKtfTFUfVpGKw9WEv12K92mZjsWj6dDIgAK7h1iztArgAMiAAnxvj87JLohRjlAfMFhEJgTjgvRbZlB0I0i6qEpRMrOlCJ98+LlcW6Zqn6MvAYOvMMTRhrc6k1Tqe95p6qfIx4ERq+qx98wtsbfFLc/Z7j+cp+/kdVPkY8CI1fVY++NsbfFJ7PcfzlP38kTqmckPgbGb6rH3xtjb4pPZ7j+cp+/kdUzkh8DYzfVY++NsbfFJ7PcfzlP38n9rt3UGR2B6XSRLjQnPmmmVY96f8Ab8Y2xt8Uns9x/OU/fyf3dVPkY8CI1fVY++NsbfFJ7PcfzlP38jqp8jHgRGr6rH3xtjb4pPZ7j+cp+/kidUzkh8DYzfVY++NsbfFJ7PcfzlP38jqmckPgbGb6rH3xtjb4pPZ7j+cp+/k+5ZMOVDE7KHhL/g0VnK9IAs5lGDRsmGoUQhZC6V0Izc1KeAyLGJpv6ut+iBzvQ7iMiiib9UTrtXc/J99Mhr4BkQAFdw6xZ2gVwAGRAAedY/Zf8mMj0e33EB/RVjBCoa62qrJo1gyrLRrJzc6dGcshP9pBh3MbRaqmiY3G45doLxmZYWjFW66Yirj1UPqp8jHgRGr6rH3zr2xt8Us32e4/nKfv5HVT5GPAiNX1WPvjbG3xSez3H85T9/JE6pnJD4Gxm+qx98bY2+KT2e4/nKfv5HVM5IfA2M31WPvjbG3xSez3H85T9/J/a7d1Bkdgel0kS40Jz5pplWPen/b8Y2xt8Uns9x/OU/fyf3dVPkY8CI1fVY++NsbfFJ7PcfzlP38jqp8jHgRGr6rH3xtjb4pPZ7j+cp+/kidUzkh8DYzfVY++NsbfFJ7PcfzlP38lCL26NSUxjf7ti/BIoxjZt3nC2MDZrrqss1VZouhVCUzLdadJ9U4+iqYiIl1X9AeOsWqrtVynUpiZ+v09/E9kOHWLO0zmjK4ADIgAK7h1iztArgAMiB81l4l2i3IBFeCRqjM64fDoNDIYiBqKQNCqV0LJVStOnOShE0yqTpv3osU66pMZLk17O702LNURMRq+98Vdu6gyOwPS6SJcaE5800yrHvT/ALfjMXbG3xS2b2e4/nKfv5P7uqnyMeBEavqsffG2Nvik9nuP5yn7+R1U+RjwIjV9Vj742xt8Uns9x/OU/fyROqZyReBsZvqsffG2Nvik9nuP5yn7+TwnLfK2+5a5RXnHl8rLqKQhfRwKDJWnRBoMrvKM0fRvp4UpSRl67N6uapWZk+V28owlOGt/Tdnjn6ywR1JMAAAAAAAAAAAAAAAAAAAAAAAdDtyd+KlB86A/Y0JTLfxKw0xd2x+7wdCiUViyIAABrgAEh/ava2ASAAGuA40ZendSxy8+DcwoQOM4aV76D/k9n9e+Xn4xWzAAAAA9rbl/+nkdfRMH54ksu31Su9MX4Wz1p7nRQllTAGuAASH9q9rYBIAAa4ABIf2r2tgHMvdO+2XFL0K055JEZjv4W3pd/B3utHc8ZEcsIAAAAAAAAAdsJCO0xEn0FA+aVNjscHT0POuc/Mb/AFqu9ujtRjXAAJD+1e1sAkAANcAA+G5aPc4x29ENvtUOjFcDUndDPzfD9ZxZNeegAAAAAAAAAB7s3LvslHz/ACYF/M0JPLd2pWmmLvLHTV4PfxKqtANcAAkP7V7WwCQAA1wADi1lvd1HHz99Z8yoQGL4apfehP5PY6PGXwwxmxAAAAAAAAGskk7asTfT7v8A+4UPu1v46WFmXwV7q1d0u6r+1e1sNleb0gABrgAEh/ava2ASAAGuA8Y7qX2kXB/qBTmWhH5jwcdLfNL75hX1fGHLUh1wgAAAAAAAAAAAAAAAAAAAAAAAAAAAAHvfcu/io+edAv8AkJTLfxKw0xd2x+7we8yUVi1wAAAAASH9q9rYBIAAa4DjRl6d1LHLz4NzChA4zhpXvoP+T2f175efjFbMAAAAD2tuX/6eR19EwfniSy7fVK70xfhbPWnudFCWVMAa4ABIf2r2tgEgABrgAEh/ava2Acy9077ZcUvQrTnkkRmO/hbel38He60dzxkRywgAAAAAAAAB2wkI7TESfQUD5pU2OxwdPQ865z8xv9arvbo7UY1wACQ/tXtbAJAADXAAPhuWj3OMdvRDb7VDoxXA1J3Qz83w/WcWTXnoAAAAAAAAAAe7Ny77JR8/yYF/M0JPLd2pWmmLvLHTV4PfxKqtANcAAkP7V7WwCQAA1wADi1lvd1HHz99Z8yoQGL4apfehP5PY6PGXwwxmxAAAAAAAAGskk7asTfT7v/7hQ+7W/jpYWZfBXurV3S7qv7V7Ww2V5vSAAGuAASH9q9rYBIAAa4DxjupfaRcH+oFOZaEfmPBx0t80vvmFfV8YctSHXCAAAAAAAAAAAAAAAAAAAAAAAAAAAAAe99y7+Kj550C/5CUy38SsNMXdsfu8HvMlFYtcAAASKeqd/ABT1Tv4AOzfkdDazp+TgAUDXLmICga5cxAU9U7+AHHrLpb9E5T0cG2ZmZy8H3p5/wBQoQOM4aV76D/k9n9e+XwMxWzAAAAA9wblhAujY/R4U0mZmuiDp608/wCWTvEll2+qV3pi/C2etPc6Q0DXLmJLKmKBrlzEBT1Tv4AKeqd/AB2b8jobWdPycACga5cxAUDXLmICnqnfwAU9U7+ADs35HQ2s6fk4AOam6kwLoKU6KCmlz85yNEzzTfrkkRmO/hbel38He60dzxSRywgAAAAAAAAB3DkDculkTiM06LmznDAkzZnklfGbHZ4Onoedc6+Y3+tPe31A1y5idqMKeqd/ABT1Tv4AOzfkdDazp+TgAUDXLmICga5cxAU9U7+ACnqnfwA+Q5XTWlMmuUFtNo+h3O0TNPPnTpR83AdGJ4GpO6Gfm9jrOLhrz0AAAAAAAAAAPe25WQLo16R/V0mZmQeBJ608/wCM0JPLd2pWmmLvLHTV4OhdA1y5iSqrSga5cxAU9U7+ACnqnfwAdm/I6G1nT8nAAoGuXMQFA1y5iAp6p38AFPVO/gBxty1m3RGU5HltmzZ0NZ708/6lQgMXw1S+9Cfyex0eMviBjNiAAAAAAAANVJOtmSoxPXmnzX9AEzf/AGFDstb+OlhZl8Hd6tXdLuv2b8jobWdPycBsjzeUDXLmICga5cxAU9U7+ACnqnfwAdm/I6G1nT8nAAoGuXMQFA1y5iAp6p38APHO6evPoyRZxM+h8yZ/KJnzp/1S/iMDMODjpb7pffMK+r4w5iEMuAAAAAAAAAAAAAAAAAAAAAAAAAAAAAA6B7lZAOjWUf8A8to81aBd6ef4zxkplv4lYaYu7Y/d4Pf1A1y5iSisSnqnfwAU9U7+ACnqnfwAkAAK7h1iztArgAMiByLy3+6Xjd58H5lQgcZw0r30H/J7P698vhJitmAAAAB7q3KLtgR79DQbnkkjl2/qV3pi/C2etPc6XEuqYAyIACu4dYs7QK4ADIgAK7h1iztA5vbqx20oneg2nPpIjMd/C29Lv4O91o7nh8jlhAAAAAAAAADuxk+9o6In+n4FzSpsdng6eh51zr5jf60976AdqMZEABXcOsWdoFcABkQAHzTKj7mWUv0Mt/MdGJ4GpO6Gfm9jrOMBrz0AAAAAAAAAAOgG5O9lpQ/3aA/zNSTy3dqVppi7yx01eDowSqrQDIgAK7h1iztArgAMiAA4/wCWb3S0d/31TmlCAxfDVL70J/J7HR4y+KmM2IAAAAAAAA1ElfbOij6cgHPqHZa38dLDzH4O71au6Xdlw6xZ2myPNyuAAyIACu4dYs7QK4ADIgeQ90v7TTj9Oqc0uYGYcHHS33S++YV9XxhzRIZcAAAAAAAAAAAAAAAAAAAAAD+1yOR6xje8EcLjgLWGQ+HtlWEHYMlc5ZousmZCEIOYiap1Idd69Rh7c3bk6lMe+ZencojJqdkgOT3FVs8FGcIjW93znvOFI30M0aBZKGCif7qqeunvp3+Azb+HixajV3ZadkOiCvO80uxT7rVNP+Mfruz0vKpgt1AAAAB0O3J34qUHzoD9jQlMt/ErDTF3bH7vB0KJRWLIgAAAABXcOsWdoFcABkQOReW/3S8bvPg/MqEDjOGle+g/5PZ/Xvl8JMVswAAAAPdW5RdsCPfoaDc8kkcu39Su9MX4Wz1p7nS4l1TAGRAAV3DrFnaBXAAZEABXcOsWdoHN7dWO2lE70G059JEZjv4W3pd/B3utHc8PkcsIAAAAAAAAAd2Mn3tHRE/0/AuaVNjs8HT0POudfMb/AFp730A7UYyIACu4dYs7QK4ADIgAPmmVH3MspfoZb+Y6MTwNSd0M/N7HWcYDXnoAAAAAAAAAAdANyd7LSh/u0B/maknlu7UrTTF3ljpq8HRglVWgGRAAV3DrFnaBXAAZEABx/wAs3ulo7/vqnNKEBi+GqX3oT+T2Ojxl8VMZsQAAAAAAABqJK+2dFH05AOfUOy1v46WHmPwd3q1d0u7Lh1iztNkeblcABkQAFdw6xZ2gVwAGRA8h7pf2mnH6dU5pcwMw4OOlvul98wr6vjDmiQy4AAAAAAAAAAAAAAAAAAAAPyZs2jZoqyZKLLrrrIVVVVROlZKeshCATMRGrLpnkSZKLOTB0MZTY+QBVMankxngkHaKz0cwWRwd5osjr8CN7hJnB4XY419W6pzRfolnMbk4PCz/AOVO7PKnyhL3TntWRW9OrcyufOY7yGRpefGXur4ubxELbAAAAB0O3J34qUHzoD9jQlMt/ErDTF3bH7vB0KJRWLIgAAGuAASH9q9rYBIAAa4DjRl6d1LHLz4NzChA4zhpXvoP+T2f175efjFbMAAAAD2tuX/6eR19EwfniSy7fVK70xfhbPWnudFCWVMAa4ABIf2r2tgEgABrgAEh/ava2Acy9077ZcUvQrTnkkRmO/hbel38He60dzxkRywgAAAAAAAAB2wkI7TESfQUD5pU2OxwdPQ865z8xv8AWq726O1GNcAAkP7V7WwCQAA1wAD4blo9zjHb0Q2+1Q6MVwNSd0M/N8P1nFk156AAAAAAAAAAHuzcu+yUfP8AJgX8zQk8t3alaaYu8sdNXg9/Eqq0A1wACQ/tXtbAJAADXAAOLWW93UcfP31nzKhAYvhql96E/k9jo8ZfDDGbEAAAAAAAAaySTtqxN9Pu/wD7hQ+7W/jpYWZfBXurV3S7qv7V7Ww2V5vSAAGuAASH9q9rYBIAAa4DxjupfaRcH+oFOZaEfmPBx0t80vvmFfV8YctSHXCAAAAAAAAAAAAAAAAAAAB0E3P/ACPOiloHLrKc6/yKqUNYvu5up+envQpdVPe/uI+ngJTBYX/7K/0Vnoy0Ta3Vy7CT7/xTHdHi6KEoq54b3VntZxL9NNuZI/Md5HSsLS8+MvdXxcyyHW2AAAAD3vuXfxUfPOgX/ISmW/iVhpi7tj93g95korFrgAAAAAkP7V7WwCQAA1wHGjL07qWOXnwbmFCBxnDSvfQf8ns/r3y8/GK2YAAAAHtbcv8A9PI6+iYPzxJZdvqld6YvwtnrT3OihLKmANcAAkP7V7WwCQAA1wACQ/tXtbAOZe6d9suKXoVpzySIzHfwtvS7+DvdaO54yI5YQAAAAAAAAA7YSEdpiJPoKB80qbHY4Onoedc5+Y3+tV3t0dqMa4ABIf2r2tgEgABrgAHw3LR7nGO3oht9qh0Yrgak7oZ+b4frOLJrz0AAAAAAAAAAPdm5d9ko+f5MC/maEnlu7UrTTF3ljpq8Hv4lVWgGuAASH9q9rYBIAAa4ABxay3u6jj5++s+ZUIDF8NUvvQn8nsdHjL4YYzYgAAAAAAADWSSdtWJvp93/APcKH3a38dLCzL4K91au6XdV/ava2GyvN6QAA1wACQ/tXtbAJAADXAeMd1L7SLg/1ApzLQj8x4OOlvml98wr6vjDlqQ64QAAAAAAAAAAAAAAAAAAeqcivJTbytvtnKDHaBLqRQdbadkyXRNSLdVM+YjyaE/nJ7/W4TOweG2WdfVuNJ0W6JYyu36Lhp/9av8AmPPida4PB2EFYM4LBmKjJixUQozZqKzKqKoRMhCEI6yEIJpTMzNU6s7r9gcPDe6s9rOJfpptzJH5jvI6VhaXnxl7q+LmWQ62wAAAAe99y7+Kj550C/5CUy38SsNMXdsfu8HvMlFYtcAAASKeqd/ABT1Tv4AOzfkdDazp+TgAUDXLmICga5cxAU9U7+AHHrLpb9E5T0cG2ZmZy8H3p5/1ChA4zhpXvoP+T2f175fAzFbMAAAAD3BuWEC6Nj9HhTSZma6IOnrTz/lk7xJZdvqld6YvwtnrT3OkNA1y5iSypiga5cxAU9U7+ACnqnfwAdm/I6G1nT8nAAoGuXMQFA1y5iAp6p38AFPVO/gA7N+R0NrOn5OADmpupMC6ClOigppc/OcjRM80365JEZjv4W3pd/B3utHc8UkcsIAAAAAAAAAdw5A3LpZE4jNOi5s5wwJM2Z5JXxmx2eDp6HnXOvmN/rT3t9QNcuYnajCnqnfwAU9U7+ADs35HQ2s6fk4AFA1y5iAoGuXMQFPVO/gAp6p38APkOV01pTJrlBbTaPodztEzTz506UfNwHRieBqTuhn5vY6zi4a89AAAAAAAAAAD3tuVkC6Nekf1dJmZkHgSetPP+M0JPLd2pWmmLvLHTV4OhdA1y5iSqrSga5cxAU9U7+ACnqnfwAdm/I6G1nT8nAAoGuXMQFA1y5iAp6p38AFPVO/gBxty1m3RGU5HltmzZ0NZ708/6lQgMXw1S+9Cfyex0eMviBjNiAAAAAAAANVJOtmSoxPXmnzX9AEzf/YUOy1v46WFmXwd3q1d0u6/ZvyOhtZ0/JwGyPN5QNcuYgKBrlzEBT1Tv4AKeqd/AB2b8jobWdPycACga5cxAUDXLmICnqnfwA8c7p68+jJFnEz6HzJn8omfOn/VL+IwMw4OOlvul98wr6vjDmIQy4AAAAAAAAAAAAAAAAAA+75JmTA/coyOyGLZDWBxWdS6rR7Q/N66OuhizT311v8AZG+ZOGw836vya5ojz+3kmH1Y99yrex4z+UOvEXYgOWKbjgUXIvM2UBdzvYqsIOwZM5lVFEI3kdf/AHJ6mmKY1IUXfv3MTcqvXZ1ap98ypU9U7+By6SnqnfwA8U7qTDOjpMIoL6PM0b7aI68887FP3EdmO8jpWFpefGXer4uahELbAAAAB0D3KyAdGso//ltHmrQLvTz/ABnjJTLfxKw0xd2x+7we/qBrlzElFYlPVO/gAp6p38AFPVO/gBIAAV3DrFnaBXAAZEDkXlv90vG7z4PzKhA4zhpXvoP+T2f175fCTFbMAAAAD3VuUXbAj36Gg3PJJHLt/UrvTF+Fs9ae50uJdUwBkQAFdw6xZ2gVwAGRAAV3DrFnaBze3VjtpRO9BtOfSRGY7+Ft6Xfwd7rR3PD5HLCAAAAAAAAAHdjJ97R0RP8AT8C5pU2OzwdPQ86518xv9ae99AO1GMiAAruHWLO0CuAAyIAD5plR9zLKX6GW/mOjE8DUndDPzex1nGA156AAAAAAAAAAHQDcney0of7tAf5mpJ5bu1K00xd5Y6avB0YJVVoBkQAFdw6xZ2gVwAGRAAcf8s3ulo7/AL6pzShAYvhql96E/k9jo8ZfFTGbEAAAAAAAAaiSvtnRR9OQDn1Dstb+Olh5j8Hd6tXdLuy4dYs7TZHm5XAAZEABXcOsWdoFcABkQPIe6X9ppx+nVOaXMDMODjpb7pffMK+r4w5okMuAAAAAAAAAAAAAAAAAfRZBpD42S+R+gcSosMVlGaUoaw+GrKzs4HB0J/GaLJ4e8hHfSdtmzVeq1sIvOM2sZPhpxF79I454naOSeSyKcjcR3fESJ0BVYQKAqfjtEoRpIQ1T+e1XT31lk7/+xP27dNqnW0qEzHML+aYirE351Zn7RxQ2B2MFkQAHjbdOe1ZFb06tzK5HZjvIWFpefGXur4ubxELbAAAAB0O3J34qUHzoD9jQlMt/ErDTF3bH7vB0KJRWLIgAAAABXcOsWdoFcABkQOReW/3S8bvPg/MqEDjOGle+g/5PZ/Xvl8JMVswAAAAPdW5RdsCPfoaDc8kkcu39Su9MX4Wz1p7nS4l1TAGRAAV3DrFnaBXAAZEABXcOsWdoHN7dWO2lE70G059JEZjv4W3pd/B3utHc8PkcsIAAAAAAAAAd2Mn3tHRE/wBPwLmlTY7PB09DzrnXzG/1p730A7UYyIACu4dYs7QK4ADIgAPmmVH3MspfoZb+Y6MTwNSd0M/N7HWcYDXnoAAAAAAAAAAdANyd7LSh/u0B/maknlu7UrTTF3ljpq8HRglVWgGRAAV3DrFnaBXAAZEABx/yze6Wjv8AvqnNKEBi+GqX3oT+T2Ojxl8VMZsQAAAAAAABqJK+2dFH05AOfUOy1v46WHmPwd3q1d0u7Lh1iztNkeblcABkQAFdw6xZ2gVwAGRA8h7pf2mnH6dU5pcwMw4OOlvul98wr6vjDmiQy4AAAAAAAAAAAAAAAC9EWI8ZJR41O+J0U3evDHk8WqGbJRVG8qjvrrJ7yqEb6Un1RRNyqKaWNjMZZwFirEX51KaXY/JZkEi3IFEVMXXWozhD0hKGbV6PDNmXhLaZM6Ed9CivWVQT9ixFinUjdUNnudXs7xM3a/dTG9jijz432s70IAZEAB423TntWRW9OrcyuR2Y7yFhaXnxl7q+Lm8RC2wAAAAdDtyd+KlB86A/Y0JTLfxKw0xd2x+7wdCiUViyIAABrgAEh/ava2ASAAGuA40ZendSxy8+DcwoQOM4aV76D/k9n9e+Xn4xWzAAAAA9rbl/+nkdfRMH54ksu31Su9MX4Wz1p7nRQllTAGuAASH9q9rYBIAAa4ABIf2r2tgHjnLByTY+ZQcbnG/4pvtywJg7HetBGqsOaNFVllktErTozVFt6ZJg4vC1X6ommW8aFtE2FyOxXav01TNU6vu1OLpfAepmyz+F0U/4zf8ApGJtfc44bT7Qcv5uv7eaj1LGXHwyif8Ax4R/SOdrrnHDj2hZfzdf28zqWMuPhlE/+PCP6Q2uuccHtCy/m6/t5v54ZuX8tkDzNJHCKKc+eaZvCO9N5Lxja65xw59oOX83X9vN/N1M2Wfwuin/ABm/9I42vuccHtBy/m6/t5nUzZZ/C6Kf8Zv/AEhtfc44PaDl/N1/bzUepYy4+GUT/wCPCP6Rztdc44ce0LL+br+3mdSxlx8Mon/x4R/SG11zjg9oWX83X9vN/PDNy/lsgeZpI4RRTnzzTN4R3pvJeMbXXOOHPtBy/m6/t5ugEm0WoZE6T+L0VHi2ZNYU6HawgbZdklKVFl1FEKpSrOhCZp0cBK26ZooimfoqnH4inF4q5fo3Kpme2WkPtiNcAAkP7V7WwCQAA1wAD5hlGRHecpUk7+iI5oRB2ENfUBaQVg0hCUoZqrJSrvrJQhKZt7vIOq9RNy3NMfVJZRjKMvx1rE3ImYpnVnU3XPPqZss/hdFP+M3/AKRF7X3OOFn+0HL+br+3mdTNln8Lop/xm/8ASG19zjg9oOX83X9vNR6ljLj4ZRP/AI8I/pHO11zjhx7Qsv5uv7eZ1LGXHwyif/HhH9IbXXOOD2hZfzdf28388M3L+WyB5mkjhFFOfPNM3hHem8l4xtdc44c+0HL+br+3m/m6mbLP4XRT/jN/6Rxtfc44PaDl/N1/bzOpmyz+F0U/4zf+kNr7nHB7Qcv5uv7eaj1LGXHwyif/AB4R/SOdrrnHDj2hZfzdf28zqWMuPhlE/wDjwj+kNrrnHB7Qsv5uv7eb0TkiZKcesmyFxihEcn05oeq/GbBRhR7RoslVLNKyU52eor/eR1jLwmGqsauu+rUdFeiLDZ7TbixTMa3V3dT69EvSZmtNANcAAkP7V7WwCQAA1wADnplKZBEqkqEskYpRHJGWLcHgD8hCrVgyhLVshqqhVmoqnOQqzSjro7ySMv4Ku7cmuJj3rMyTRngstwFvC3aKpmmPpqam70vl/UzZZ/C6Kf8AGb/0jp2vuccJX2g5fzdf28zqZss/hdFP+M3/AKQ2vuccHtBy/m6/t5qPUsZcfDKJ/wDHhH9I52uuccOPaFl/N1/bzOpYy4+GUT/48I/pDa65xwe0LL+br+3m/nhm5fy2QPM0kcIopz55pm8I703kvGNrrnHDn2g5fzdf28383UzZZ/C6Kf8AGb/0jja+5xwe0HL+br+3mdTNln8Lop/xm/8ASG19zjg9oOX83X9vNR6ljLj4ZRP/AI8I/pHO11zjhx7Qsv5uv7ea3EfczZZ4sx0cEY4bG6KbSDup5wWGtVGbZuldZRm1VXShE7OaeZB9UYC5TVEzMMfF6PMBfw9dqm3Vq1RMfT6xqcbow/tXtbCWVOkAANcAAkP7V7WwCQAA1wHwDLMyf415RMnbsijFB5uyAwqBPRWGrrw9ddVRKiGaysyMxVZM86yO8YuKsVX6YppbLoXzmzkmKqv34mYmNT3dP5vFkM3L+WyB5mkjhFFOfPNM3hHem8l4zB2uuccN89oOX83X9vN/N1M2Wfwuin/Gb/0jja+5xwe0HL+br+3m/neO5tSxO13wp4to2RVWZwViu3XQq2bzpQqqlKUI/J9feE5fciNXVh9W9H+X3K4oi3X7/d9PN5LaKJZtFmaeuqlKE/QYDeonVjVf4AAAAAAAAAAf1Op1PF+PKCud0QJrC4bDWqrCDsGSqVl2i6yZkKoQjrpSk5iJmdSHxcuUWqJuVzqRG7Lr3kZZKLuyfopIfkYYOxhEdXyyVWhzebO6DZp30Qdmnxf2k99PiQTmFw0WadWd2VIaKNEVec39jtTqWqdz8/znwffH9q9rYZbVEgABrgAHhvdWe1nEv0025kj8x3kdKwtLz4y91fFzLIdbYAAAAPe+5d/FR886Bf8AISmW/iVhpi7tj93g95korFrgAAAAAkP7V7WwCQAA1wHGjL07qWOXnwbmFCBxnDSvfQf8ns/r3y8/GK2YAAAAHtbcv/08jr6Jg/PEll2+qV3pi/C2etPc6KEsqYA1wACQ/tXtbAJAADXAAJD+1e1sAkAANcAAkP7V7WwCQAA1wACQ/tXtbAJAADXAAJD+1e1sAkAANcAAkP7V7WwCQAA1wACQ/tXtbAJAADXAAJD+1e1sAkAANcAAkP7V7WwCQAA1wACQ/tXtbAJAADXAAJD+1e1sAkAANcAAkP7V7WwCQAA1wACQ/tXtbAJAADXAAJD+1e1sAkASo2foq+fR8I5tY+at7LvwvD0dMd7hdCv+pa/5i32msvStO5D9YcgAAAAAAAH+qqrLrIUUVSsssmZCEInSlINx09yCMj5WT92waWOUh2o/CSHskLuqBNld93sFkfGLIT1mqyPqoTwpJjB4XWRsle6qLRhom9NrnAYSf/ON9PHPF0R93tokFfpD+1e1sAkAANcAA8N7qz2s4l+mm3MkfmO8jpWFpefGXur4uZZDrbAAAAB733Lv4qPnnQL/AJCUy38SsNMXdsfu8HvMlFYtcAAASKeqd/ABT1Tv4AOzfkdDazp+TgAUDXLmICga5cxAU9U7+AHHrLpb9E5T0cG2ZmZy8H3p5/1ChA4zhpXvoP8Ak9n9e+XwMxWzAAAAA9wblhAujY/R4U0mZmuiDp608/5ZO8SWXb6pXemL8LZ609zpDQNcuYksqYoGuXMQFPVO/gAp6p38AHZvyOhtZ0/JwAKBrlzEBQNcuYgKeqd/ABT1Tv4AOzfkdDazp+TgAUDXLmICga5cxAU9U7+ACnqnfwAdm/I6G1nT8nAAoGuXMQFA1y5iAp6p38AFPVO/gA7N+R0NrOn5OABQNcuYgKBrlzEBT1Tv4AKeqd/AB2b8jobWdPycACga5cxAUDXLmICnqnfwAU9U7+ADs35HQ2s6fk4AFA1y5iAoGuXMQFPVO/gAp6p38AHZvyOhtZ0/JwAKBrlzEBQNcuYgKeqd/ABT1Tv4AOzfkdDazp+TgAUDXLmICga5cxAU9U7+ACnqnfwAdm/I6G1nT8nAAoGuXMQFA1y5iAp6p38AFPVO/gA7N+R0NrOn5OABQNcuYgKBrlzEBT1Tv4AKeqd/AB2b8jobWdPycACga5cxAUDXLmICnqnfwAU9U7+ADs35HQ2s6fk4AFA1y5iAoGuXMQFPVO/gAp6p38AHZvyOhtZ0/JwAKBrlzEBQNcuYgKeqd/ABT1Tv4AOzfkdDazp+TgAUDXLmIEiNzizYpvpbozrO6Ep/M8kt4z5q3su/C8PR0x3uDMJ/6lr5632msvStO5D9YcgAAAAAAAHurILyOGka2kFlrlJgOjdbBdDRxwBuzn6KXQnehC6E/wBhCfzUd9O/1kElgsLrv/Svc+iudGWibYInL8JP+U76Y+n5dPG6LIfqEImRApkI/bwJZVD/AGnqnfwAdm/I6G1nT8nAAoGuXMQFA1y5iAp6p38AFPVO/gB4p3UmGdHSYRQX0eZo320R15552KfuI7Md5HSsLS8+Mu9Xxc1CIW2AAAADoHuVkA6NZR//AC2jzVoF3p5/jPGSmW/iVhpi7tj93g9/UDXLmJKKxKeqd/ABT1Tv4AKeqd/ACQAAruHWLO0CuAAyIHIvLf7peN3nwfmVCBxnDSvfQf8AJ7P698vhJitmAAAAB7q3KLtgR79DQbnkkjl2/qV3pi/C2etPc6XEuqYAyIACu4dYs7QK4ADIgAK7h1iztArgAMiAAruHWLO0CuAAyIACu4dYs7QK4ADIgAK7h1iztArgAMiAAruHWLO0CuAAyIACu4dYs7QK4ADIgAK7h1iztArgAMiAAruHWLO0CuAAyIACu4dYs7QK4ADIgAK7h1iztArgAMiAAruHWLO0CuAAyIACu4dYs7QK4ADIgAK7h1iztArgR44/oi+/RsJ5pY+at7LvwvD0dMd7gHCf+oa+et9prL0rTuQ/WHIAAAAAAD1PkR5JMLlzjMpHSOEEaMokuZshLTOQlFIt1d9DFVP91H9pP0d8zcJhtmnXVbkNO0V6JKcos+j2J/8AWr/mOPydaoFAoI7YGxd8AgzODwaDM1WTFkzVQqozUVRMhVCEdZCEE3EanuhStddVdU1VTqzLMB8gFdw6xZ2gVwAGRAAeNt057VkVvTq3MrkdmO8hYWl58Ze6vi5vEQtsAAAAHQ7cnfipQfOgP2NCUy38SsNMXdsfu8HQolFYsiAAAAAFdw6xZ2gVwAGRA5F5b/dLxu8+D8yoQOM4aV76D/k9n9e+XwkxWzAAAAA9u7lU82EGlUjc62i6ENYa41F2aOHRtkT/AMyCRy6f85j8lfaYduasFar4qu+HTsl1RgGRAAV3DrFnaBXAAZEABXcOsWdoFcABkQAFdw6xZ2gVwAGRAAV3DrFnaBXAAZEABXcOsWdoFcABkQAFdw6xZ2gVwAGRAAV3DrFnaBXAAZEABXcOsWdoFcABkQAFdw6xZ2gVwAGRAAV3DrFnaBXAAZEABXcOsWdoFcABkQAFdw6xZ2gVwAGRAAV3DrFnaBXAAZEABXcOsWdoFcCPHH9EX36NhPNLHzVvZd+F4ejpjvcA4T/1DXz1vtNZeladyH6w5AAAAAA+05LOTZGHKMj4zdLBVrBYvO5ZVs+HghXeZM5/i1E99ot1kI72+nvGRh7E36tT6IDRBntrJMNr599c72PHoh2WidFCL0Qosu+KMVXaygDrdjFVhB2DNEyEKo76eFKeulPfSknqaYojW0qIxOJu4y7VfvTq1Ve+Vk+nQyIACu4dYs7QK4ADIgAPFO6evNgziJE9zpXRpmz2bQhCvfzVWSUJTyrII3MZ/wAaYWNpd25nE3q/prYj7udZErXAAAAB0O3J34qUHzoD9jQlMt/ErDTF3bH7vB0KJRWLIgAAGuAASH9q9rYBIAAa4DjRl6d1LHLz4NzChA4zhpXvoP8Ak9n9e+Xn4xWzAAAAA+q5MMqSkkEtMX42wxolR3JbJgbw/d2v4qy1lKULfQd+GubFciqUJoiy2c0y65Yp327HTDsjBoSwhkHZQuCtlWrFuoq0ZtFEzqrKpROhKE99CUGwxOq8/VUzTM01bsP2Bw1wACQ/tXtbAJAADXAAJD+1e1sAkAANcAAkP7V7WwCQAA1wACQ/tXtbAJAADXAAJD+1e1sAkAANcAAkP7V7WwCQAA1wACQ/tXtbAJAADXAAJD+1e1sAkAANcAAkP7V7WwCQAA1wACQ/tXtbAJAADXAAJD+1e1sAkAANcAAkP7V7WwCQAA1wACQ/tXtbAJAADXAAJD+1e1sAkARY7wuCwCJr9hkNhLNgwZO6ErLtGiyFVVUaNbfSlPWPmudSmZlk4OmqvEW6aY1Z1Y73DOEJQtCGqyqZ0JXWShP0msvSdO4/WHIAAAAN3ItI7G2XKPsBiLFGCpWawhZC8JhKyqdHBGCE/jNV095CEdZHfTMg7LVqq9VraUdmuZ2Mpw1WJvz7o3I+szxQ7GSbSPxSkPiG6IiRRgqFGMGVStCYQsqjSQtunNzmq6e+lKeREyDYLVqmzTraVCZpmd/NsTVib8++dyOKOKGjOxHAGuAASH9q9rYBIAAa4AByM3Q6WKBynS3JcDkhard1RPYJdqi6i06rSEpWnbLI728mZWyQeOu7Jc1I3IXboKyyrAZfstyNSq57/wBPp5vLRhtwAAAAB733Lv4qPnnQL/kJTLfxKw0xd2x+7we8yUVi1wAAAAASH9q9rYBIAAa4DjXl8MlmWVNHDORNnJgyyPmSwUIHG8NK99B86uT2v175eezFbMAAAAAB7byP8tuBxPd0EkvldhjRDrYTMnY+Fp1uhlO8ybd/MR3lu91k7xJYXGRTGsuK50U6EKsVXONwEf5TvqeP84/P8nQFzP1yxigDJ6uF6wR4QNuqhZm3gzZVooshPAlCSViqKo1YVZds3LFU0XaZiY+k+5vDl1gEh/ava2ASAAGuAASH9q9rYBIAAa4ABIf2r2tgEgABrgAEh/ava2ASAAGuAASH9q9rYBIAAa4ABIf2r2tgEgABrgAEh/ava2ASAAGuAASH9q9rYBIAAa4ABIf2r2tgEgABrgAEh/ava2ASAAGuAASH9q9rYBIAAa4ABIf2r2tgEgABrgAEh/ava2ASAAGuAASH9q9rYBHWWVUVSuushVVVE6UpTMhCAbrm3lxZWC0fXjCJJZPnin8HYC1zXnDGK29D2yqfzEJR12aqeVPiQQ+MxWvnY6Nxb2g/Qz6FRGOxcf8ApO9jkxx9M/Z46I9v4AAAALUTYnRij/Gd3xPim7GsPejzbKsIOwZonSlKe+ngQhG+lPeQg+qaZrnW07roxWKtYOzVfvTqU07rsrkt5NsXcnOIbN0QdVlCowPBVVq+HihXfatZvi1U9dDNXrIR3+v3yew9iLFOp9VEaIM9u53idfPuojex+XH0y+pP7V7WwyEAkAANcAAkP7V7WwCQAA08MhsDd8HXhkPhbGDMGSErLtWy6FFFUcKUp3kCZ1N19U0VVzraY1ZeH8rzL9i7F90Q6TuRN6qPN9QpRaDwt8sEzsIEqlEyyGS39tp3p0byPGkjsTjYpjWW91YWhrQbdvV04rMKdbRHvimd2enihzQatWjdqu2bNFmjRoslZdZZM6Vkp30pSnhIhbMRERqQ/EAAAAAPfW5ds1uhY+NpvxdJA1fpmXJTLfxKv0xZ/wArEdPg94EorJrgAACRT1Tv4AKeqd/AB2b8jobWdPycACga5cxAUDXLmICnqnfwA5Q7o47F4NlHwl7aBLNR7OqCQhXfnQlKqqWaf5CEx9Opd1V16Bb2yZTFHJqmPHxeXDCbkAAAAAAAuRcj1HSKC6V4rRrezpSnrogcMaMkJ+dCqUISfVNdVG9ljX8Hh8V7r9EVdMRLVdMdL1xuxq9pNPvPvZ7nKlh7R5bzFPZB0x0vXG7Gr2k0+8bPc5RtHlvMU9kPxaZRMuzWbSStRoWm607yafeNnu8qTaPLeYp7Ifh0wkuPGvGf2i0+8bPd5Uudo8t5insg6YSXHjXjP7RafeNnu8qTaPLeYp7Ift6Y6XrjdjV7SafeNnucpxtHlvMU9kHTHS9cbsavaTT7xs9zlG0eW8xT2Q/FplEy7NZtJK1GhabrTvJp942e7ypNo8t5insh+HTCS48a8Z/aLT7xs93lS52jy3mKeyDphJceNeM/tFp942e7ypNo8t5insh+3pjpeuN2NXtJp942e5ynG0eW8xT2QdMdL1xuxq9pNPvGz3OUbR5bzFPZD8WmUTLs1m0krUaFputO8mn3jZ7vKk2jy3mKeyH4dMJLjxrxn9otPvGz3eVLnaPLeYp7IOmElx414z+0Wn3jZ7vKk2jy3mKeyH7emOl643Y1e0mn3jZ7nKcbR5bzFPZB0x0vXG7Gr2k0+8bPc5RtHlvMU9kPxaZRMuzWbSStRoWm607yafeNnu8qTaPLeYp7Ifh0wkuPGvGf2i0+8bPd5Uudo8t5insg6YSXHjXjP7RafeNnu8qTaPLeYp7Ift6Y6XrjdjV7SafeNnucpxtHlvMU9kHTHS9cbsavaTT7xs9zlG0eW8xT2Q/FplEy7NZtJK1GhabrTvJp942e7ypNo8t5insh+HTCS48a8Z/aLT7xs93lS52jy3mKeyDphJceNeM/tFp942e7ypNo8t5insh+3pjpeuN2NXtJp942e5ynG0eW8xT2QdMdL1xuxq9pNPvGz3OUbR5bzFPZD8WmUTLs1m0krUaFputO8mn3jZ7vKk2jy3mKeyH4dMJLjxrxn9otPvGz3eVLnaPLeYp7IOmElx414z+0Wn3jZ7vKk2jy3mKeyH7emOl643Y1e0mn3jZ7nKcbR5bzFPZB0x0vXG7Gr2k0+8bPc5RtHlvMU9kPxaZRMuzWbSStRoWm607yafeNnu8qTaPLeYp7Ifh0wkuPGvGf2i0+8bPd5Uudo8t5insg6YSXHjXjP7RafeNnu8qTaPLeYp7Ift6Y6XrjdjV7SafeNnucpxtHlvMU9kHTHS9cbsavaTT7xs9zlG0eW8xT2Q/FplEy7NZtJK1GhabrTvJp942e7ypNo8t5insh+HTCS48a8Z/aLT7xs93lS52jy3mKeyDphJceNeM/tFp942e7ypNo8t5insh+3pjpeuN2NXtJp942e5ynG0eW8xT2QdMdL1xuxq9pNPvGz3OUbR5bzFPZD8WmUTLs1m0krUaFputO8mn3jZ7vKk2jy3mKeyH4dMJLjxrxn9otPvGz3eVLnaPLeYp7IOmElx414z+0Wn3jZ7vKk2jy3mKeyH7emOl643Y1e0mn3jZ7nKcbR5bzFPZB0x0vXG7Gr2k0+8bPc5RtHlvMU9kPxaZRMuzWbSStRoWm607yafeNnu8qTaPLeYp7Ifh0wkuPGvGf2i0+8bPd5Uudo8t5insg6YSXHjXjP7RafeNnu8qTaPLeYp7Ift6Y6XrjdjV7SafeNnucpxtHlvMU9kHTHS9cbsavaTT7xs9zlG0eW8xT2Q/FplEy7NZtJK1GhabrTvJp942e7ypNo8t5insh+HTCS48a8Z/aLT7xs93lS52jy3mKeyDphJceNeM/tFp942e7ypNo8t5insh+3pjpeuN2NXtJp942e5ynG0eW8xT2QdMdL1xuxq9pNPvGz3OUbR5bzFPZD8WmUTLs1m0krUaFputO8mn3jZ7vKk2jy3mKeyH4dMJLjxrxn9otPvGz3eVLnaPLeYp7IOmElx414z+0Wn3jZ7vKk2jy3mKeyH7emOl643Y1e0mn3jZ7nKcbR5bzFPZB0x0vXG7Gr2k0+8bPc5RtHlvMU9kPxaZRMuzWbSStRoWm607yafeNnu8qTaPLeYp7Ifh0wkuPGvGf2i0+8bPd5Uudo8t5insg6YSXHjXjP7RafeNnu8qTaPLeYp7Ift6Y6XrjdjV7SafeNnucpxtHlvMU9kHTHS9cbsavaTT7xs9zlG0eW8xT2Q/FplEy7NZtJK1GhabrTvJp942e7ypNo8t5insh/PCpepaYdBmsDhcqMZWrBuolm0ZrPFolCyqUTJQnf60wm/cn3a6X1TkuXUTFVNmnVj8oYNKUpTOlJ1JMAAAAACvFeN8Z4kvOmYpP2GuiHoUSzRCYI1SzaIVT10IWRvonPqmqqidWmXRiMNZxdGx36Yqjilr+mOl643Y1e0mn3n3s9zlMHaPLeYp7Ifi0yiZdms2klajQtN1p3k0+8bPd5Um0eW8xT2Q/DphJceNeM/tFp942e7ypc7R5bzFPZB0wkuPGvGf2i0+8bPd5Um0eW8xT2Q/b0x0vXG7Gr2k0+8bPc5TjaPLeYp7IOmOl643Y1e0mn3jZ7nKNo8t5insh+LTKJl2azaSVqNC03WneTT7xs93lSbR5bzFPZD8OmElx414z+0Wn3jZ7vKlztHlvMU9kHTCS48a8Z/aLT7xs93lSbR5bzFPZCPGWVOUqOLLQRqj4/nqy+ThUPatFPqpTMfNVyurfSyLGX4TCzq2bdNM/lEMsfDMAAAAAAAdLNy5iiutJfGuMS7RLNEOfKkHUTmzzoZMkT9/hXJjLqdSiZVHph3tdjLVqPpTq9s/09q0DXLmJIK+Keqd/ABT1Tv4AKeqd/ACQAAruHWLO0CuAAyIHhDdPIlNGkGihKCwYpSqxWbOqELIR1p/yjOf6ULkXmNG5Ws3S7xcRN7CT9dSqO6XgQi1oAAAAAAAAAAAAAAAAAAAAAAAAAAAAAAAAAAAAAAAAAAAAAAAAAAAAAAAAAAAAAAAAAAAAAAAAAAAAAAAAAAAAAAAAAAAAAAAAAAAAAAAAAAAAAAAAAAAAA7QZEERWkQcmuKcBhLFLKFPNiu9m6qUTJzm62crPZzSfwlGstQoXRZi/TM2u1RuU/wCMfp/b7wZLXGRAAAAACu4dYs7QK4ADIgfLMpuTH4WpFoxRTYMULw5EH6MgG9vohDL8dVCPnmSraOjEW9ltzSm9D2Y7WZjbvzvdXUnon3ONTVk0YNV2DZRKjRmslRdVZEyVUoTMlCTXnoGJiqNWH4hyAAAAAAAAAAAAAAAAAAAAAAAAAAAAAAAAAAAAAAAAAAAAAAAAAAAAAAAAAAAAAAAAAAAAAAAAAAAAAAAAAAAAAAAAAAAAAAAAAAAAAAAAAAAAAAAAAAN7IRJnDpXpWIuRCgTNZZV4QxRMKWQifRwZVOc1WT8yqE/7HbZtzdrilG5vj6cswVzE1fSPd0/R3Td8BgrrgEGdsBZKsoPBGSjBkor1lVFUIQhHIg2KI1I1Iedq65uVTXVuy/oOXyyIAABrgAEh/ava2ASAAGuAAckN0Dyfmsk8qrSOrkgSVItxwaLwpklRX8SDwvrtWXinSnOR86eAhMbZ2OvXRuSuvQZnUZjg4w9yf/S37umPpPg8rGE3IAAAAAAAAAAAAAAAAAAAAAAAAAAAAAAAAAAAAAAAAAAAAAAAAAAAAAAAAAAAAAAAAAAAAAAAAAAAAAAAAAAAAAAAAAAAAAAAAAAAAAAAAAAAAAAAAAAdI9zykAbxQim0lmjLAks3jGNRLB1KNFZlmUCQlE7TxZ6et+yhHCS+As62nZJ+qpNHedRib0YCzP8AjR76uni/R7HJFXoBrgAAAAAkP7V7WwCQAA1wAD5pL5JXFyWSIcJiLGVihLGGKLJYN0InXgzZE2Y1V8aE8qJ0HXdtxdpmmUhleZXsqxVOJs7sbsccfWHGOVmSqNcjkdIbEqNsDWZQiDLJSxbIQnRwlin81oonvoSjkTvGv3bVVqrW1L+yzMrGa4enE2J90/aeKWOOtngAAAAAAAAAAAAAAAAAAAAAAAAAAAAAAAAAAAAAAAAAAAAAAAAAAAAAAAAAAAAAAAAAAAAAAAAAAAAAAAAAAAAAAAAAAAAAAAAAAAAAAAAAAAAAAAPSWRhkqvOX6ObN+P8AgjVhEpytlV4e3ShKEQtojfRB2ae/P/aSjrI8aTLwuHm9VqzuQ1TRTohoyaxsdqdW7VuRxfnPg60PCBQR2wKAO+AQdnB4NBmeiYsmauaqooqhVCFUI7yEIQTsRqe6FH111XKpqqnVmU8PkA1wAABIp6p38AFPVO/gA7N+R0NrOn5OABQNcuYgKBrlzEBT1Tv4AKeqd/AB2b8jobWdPycAHy2X7JfiZL9FVZyRhbIgzygyErO55s2SNLBmnB1/xlE99XadF+xTfp1JTWSZ5iMkv7Ja99M7tP0n+3JmW/J/lGkDjKu4Y7OldEHXWT0G8mKqVoNC1O8sot3k8Kqd9BCXrFdmdSpd2U5zhc4tbJh6vf8AWPrD5sdKVAAAAAAAAAAAAAAAAAAAAAAAAAAAAAAAAAAAAAAAAAAAAAAAAAAAAAAAAAAAAAAAAAAAAAAAAAAAAAAAAAAAAAAAAAAAAAAAAAAAAAAAAAAAAAB6OyY8jiN8tjwg0YYyweEuaJzNdCzSFLqpUawxCOuowQlHf76/WR4zMw+EqvTq1e6GpaIdFeHyimbVqddd4vpHT5Oq8SnRFiTyLMBihE+LrF3Op3MkMmDBkmb51kpm31k9dKU76Uk1RRFEa2ncUvisXext6q/fq1ap+q52b8jobWdPycB9McoGuXMQFA1y5iAp6p38AFPVO/gAp6p38AJAACu4dYs7QK4ADIgAK7h1iztArgQ44xJinKA4oRFmObhgb3dkJRM0g8JZoWV+dHfVT40b581U01xqVQyMLir2CuResVTTVH1hz8lh3NdRs2bviRmMSrFCyUrodLzWTmoTwM2yEdbxLI+kjbuX/W3Kxcq0f6kRbzGj91PjHk8mR3ydpapPGzRnGiTt8MWTNM3RDFgluxW8aF1J0GDXh7lvfQ3rB57l2OjVs3Yn8tXUnsl88bQdvBl0s4QxaMl0ddVdVKqeRJ07iViqKo1YfgHIAAAAAAAAAAAAAAAAAAAAAAAAAAAAAAAAAAAAAAAAAAAAAAAAAAAAAAAAAAAAAAAAAAAAAAAAAAAAAAAAAAAAAAAAAAAAAAAAAAAAAAP63e6Hs9mqGDqdcLhjRZMyFIOxWaJSn5lUJOYiZ3HxXcotxq1zEdL7XJtkTZRUpbZktAoiQlzQFpMlMNfH/wCKzQrwoVW/HW+hUyLeEu3PpqIDHaKsrwETrrkVTxU+/wDp7gkI3OCTOTtswf8AKTC0RwfDJKF1YOuzzICxW6/5nXaJR+1veIkbOBoo99fvlXub6OMXjYm1hI2Onj/FP6/T9HpFgwYQVipBoMxUZMmSqFVGaiqFVVVUdZCEI6yDO3GjzVNU6s7r8w4V3DrFnaBXAAZEAAAAAK7h1iztArgAMiAAruHWLO0CuAAyIH+LKqrqpVWVQlCeuhKN4G4/VBIiRIfSYSs94nuWGpSlVM8IgDJonv8ACqfM0UzuwyaMZiLW8uVR0TL9vwPyUcWsWPZTD3TjYqOJ27Z43nav5T5nwPST8WsWPZTD3RsVHEbZ43nav5T5sr8E8l/F3Fv2Yx90bFRxG2eN52r+U+Z8E8l/F3Fv2Yx90bFRxG2eN52r+U+aq5JI5K2mnz5OItLTZs07rYp4f2RsVHEbZ43nav5T5qvwPST8WsWPZTD3RsVHEbZ43nav5T5nwPST8WsWPZTD3RsVHEbZ43nav5T5sr8E8l/F3Fv2Yx90bFRxG2eN52r+U+Z8E8l/F3Fv2Yx90bFRxG2eN52r+U+aq5JI5K2mnz5OItLTZs07rYp4f2RsVHEbZ43nav5T5qvwPST8WsWPZTD3RsVHEbZ43nav5T5nwPST8WsWPZTD3RsVHEbZ43nav5T5sr8E8l/F3Fv2Yx90bFRxG2eN52r+U+Z8E8l/F3Fv2Yx90bFRxG2eN52r+U+aq5JI5K2mnz5OItLTZs07rYp4f2RsVHEbZ43nav5T5qvwPST8WsWPZTD3RsVHEbZ43nav5T5nwPST8WsWPZTD3RsVHEbZ43nav5T5sr8E8l/F3Fv2Yx90bFRxG2eN52r+U+Z8E8l/F3Fv2Yx90bFRxG2eN52r+U+aq5JI5K2mnz5OItLTZs07rYp4f2RsVHEbZ43nav5T5qvwPST8WsWPZTD3RsVHEbZ43nav5T5nwPST8WsWPZTD3RsVHEbZ43nav5T5sr8E8l/F3Fv2Yx90bFRxG2eN52r+U+Z8E8l/F3Fv2Yx90bFRxG2eN52r+U+aq5JI5K2mnz5OItLTZs07rYp4f2RsVHEbZ43nav5T5qvwPST8WsWPZTD3RsVHEbZ43nav5T5nwPST8WsWPZTD3RsVHEbZ43nav5T5sr8E8l/F3Fv2Yx90bFRxG2eN52r+U+Z8E8l/F3Fv2Yx90bFRxG2eN52r+U+aq5JI5K2mnz5OItLTZs07rYp4f2RsVHEbZ43nav5T5qvwPST8WsWPZTD3RsVHEbZ43nav5T5nwPST8WsWPZTD3RsVHEbZ43nav5T5sr8E8l/F3Fv2Yx90bFRxG2eN52r+U+Z8E8l/F3Fv2Yx90bFRxG2eN52r+U+aq5JI5K2mnz5OItLTZs07rYp4f2RsVHEbZ43nav5T5qvwPST8WsWPZTD3RsVHEbZ43nav5T5nwPST8WsWPZTD3RsVHEbZ43nav5T5sr8E8l/F3Fv2Yx90bFRxG2eN52r+U+Z8E8l/F3Fv2Yx90bFRxG2eN52r+U+aq5JI5K2mnz5OItLTZs07rYp4f2RsVHEbZ43nav5T5qvwPST8WsWPZTD3RsVHEbZ43nav5T5nwPST8WsWPZTD3RsVHEbZ43nav5T5sr8E8l/F3Fv2Yx90bFRxG2eN52r+U+Z8E8l/F3Fv2Yx90bFRxG2eN52r+U+aq5JI5K2mnz5OItLTZs07rYp4f2RsVHEbZ43nav5T5qvwPST8WsWPZTD3RsVHEbZ43nav5T5nwPST8WsWPZTD3RsVHEbZ43nav5T5sr8E8l/F3Fv2Yx90bFRxG2eN52r+U+Z8E8l/F3Fv2Yx90bFRxG2eN52r+U+aq5JI5K2mnz5OItLTZs07rYp4f2RsVHEbZ43nav5T5qvwPST8WsWPZTD3RsVHEbZ43nav5T5nwPST8WsWPZTD3RsVHEbZ43nav5T5sr8E8l/F3Fv2Yx90bFRxG2eN52r+U+Z8E8l/F3Fv2Yx90bFRxG2eN52r+U+aq5JI5K2mnz5OItLTZs07rYp4f2RsVHEbZ43nav5T5qvwPST8WsWPZTD3RsVHEbZ43nav5T5nwPST8WsWPZTD3RsVHEbZ43nav5T5sr8E8l/F3Fv2Yx90bFRxG2eN52r+U+Z8E8l/F3Fv2Yx90bFRxG2eN52r+U+aq5JI5K2mnz5OItLTZs07rYp4f2RsVHEbZ43nav5T5qvwPST8WsWPZTD3RsVHEbZ43nav5T5nwPST8WsWPZTD3RsVHEbZ43nav5T5sr8E8l/F3Fv2Yx90bFRxG2eN52r+U+Z8E8l/F3Fv2Yx90bFRxG2eN52r+U+aq5JI5K2mnz5OItLTZs07rYp4f2RsVHEbZ43nav5T5qvwPST8WsWPZTD3RsVHEbZ43nav5T5nwPST8WsWPZTD3RsVHEbZ43nav5T5sr8E8l/F3Fv2Yx90bFRxG2eN52r+U+Z8E8l/F3Fv2Yx90bFRxG2eN52r+U+aq5JI5K2mnz5OItLTZs07rYp4f2RsVHEbZ43nav5T5qvwPST8WsWPZTD3RsVHEbZ43nav5T5nwPST8WsWPZTD3RsVHEbZ43nav5T5sr8E8l/F3Fv2Yx90bFRxG2eN52r+U+Z8E8l/F3Fv2Yx90bFRxG2eN52r+U+aq5JI5K2mnz5OItLTZs07rYp4f2RsVHEbZ43nav5T5qvwPST8WsWPZTD3RsVHEbZ43nav5T5nwPST8WsWPZTD3RsVHEbZ43nav5T5sr8E8l/F3Fv2Yx90bFRxG2eN52r+U+Z8E8l/F3Fv2Yx90bFRxG2eN52r+U+aq5JI5K2mnz5OItLTZs07rYp4f2RsVHEbZ43nav5T5qvwPST8WsWPZTD3RsVHEbZ43nav5T5nwPST8WsWPZTD3RsVHEbZ43nav5T5sr8E8l/F3Fv2Yx90bFRxG2eN52r+U+Z8E8l/F3Fv2Yx90bFRxG2eN52r+U+aq5JI5K2mnz5OItLTZs07rYp4f2RsVHEbZ43nav5T5qvwPST8WsWPZTD3RsVHEbZ43nav5T5nwPST8WsWPZTD3RsVHEbZ43nav5T5sr8E8l/F3Fv2Yx90bFRxG2eN52r+U+b/AFElEmCqZ0SeRcQlH/7Yx90bFRxONssbztX8pa+KMWouulDdDqcLugc2bNoIKozm6/8AdQg+opiNyHRcxF27v6pnpmWpOXSAZEABXcOsWdoFcABkQAADXAAJD+1e1sAkAANcAAkP7V7WwCQAA1wACQ/tXtbAJAADXAAJD+1e1sAkAANcAAkP7V7WwCQAA1wACQ/tXtbAJAADXAAJD+1e1sAkAANcAAkP7V7WwCQAA1wACQ/tXtbAJAADXAAJD+1e1sAkAANcAAkP7V7WwCQAA1wACQ/tXtbAJAADXAAJD+1e1sAkAANcAAkP7V7WwCQAA1wACQ/tXtbAJAADXAAJD+1e1sAkAANcAAkP7V7WwCQAA1wACQ/tXtbAJAADXAAJD+1e1sAkAANcAAkP7V7WwCQAA1wACQ/tXtbAJAADXAAJD+1e1sAkAANcAAAAAEh/ava2ASAAGuAASH9q9rYBIAAa4ABIf2r2tgEgABrgAEh/ava2ASAAGuAASH9q9rYBIAAa4ABIf2r2tgEgABrgAEh/ava2ASAAGuAASH9q9rYBIAAa4ABIf2r2tgEgABrgAEh/ava2ASAAGuAASH9q9rYBIAAa4ABIf2r2tgEgABrgAEh/ava2ASAAGuAASH9q9rYBIAAa4ABIf2r2tgEgABrgAEh/ava2ASAAGuAASH9q9rYBIAAa4ABIf2r2tgEgABrgAEh/ava2ASAAGuAASH9q9rYBIAAa4ABIf2r2tgEgABrgAEh/ava2ASAAGuAAAP8AJkcACZHABJfv6rxT/T1vuAkfSnlAfSnlA1syOABMjgAkv39V4p/p633ASPpTygPpTyga2ZHAAmRwASX7+q8U/wBPW+4CR9KeUB9KeUDWzI4AEyOACS/f1Xin+nrfcBI+lPKA+lPKBrZkcACZHABJfv6rxT/T1vuAkfSnlAfSnlA1syOABMjgAkv39V4p/p633ASPpTygPpTyga2ZHAAmRwASX7+q8U/09b7gJH0p5QH0p5QNbMjgATI4AJL9/VeKf6et9wEj6U8oD6U8oGtmRwAJkcAEl+/qvFP9PW+4CR9KeUB9KeUDWzI4AEyOACS/f1Xin+nrfcBI+lPKA+lPKBrZkcACZHABJfv6rxT/AE9b7gJH0p5QH0p5QNbMjgATI4AJL9/VeKf6et9wEj6U8oD6U8oGtmRwAJkcAEl+/qvFP9PW+4CR9KeUB9KeUDWzI4AEyOACS/f1Xin+nrfcBI+lPKA+lPKBrZkcACZHABJfv6rxT/T1vuAkfSnlAfSnlA1syOABMjgAkv39V4p/p633ASPpTygPpTyga2ZHAAmRwASX7+q8U/09b7gJH0p5QH0p5QNbMjgATI4AJL9/VeKf6et9wEj6U8oD6U8oGtmRwAJkcAEl+/qvFP8AT1vuAkfSnlAfSnlA1syOABMjgAkv39V4p/p633ASPpTygPpTyga2ZHAAmRwASX7+q8U/09b7gJH0p5QH0p5QNbMjgATI4AJL9/VeKf6et9wEj6U8oD6U8oGtmRwAJkcACZHAB//Z;imageWidth=50;imageHeight=50;" vertex="1" parent="5SMbFwftjrHj00-97PuI-2">
            <mxGeometry x="20" y="60" width="60" height="20" as="geometry" />
          </mxCell>
        </UserObject>
      </root>
    </mxGraphModel>
  </diagram>
</mxfile>
